<svg id="visual" viewBox="0 0 1920 300" width="1920" height="300" xmlns="http://www.w3.org/2000/svg" xmlns:xlink="http://www.w3.org/1999/xlink" version="1.1"><path d="M0 100L64 119C128 138 256 176 384 190.7C512 205.3 640 196.7 768 173.3C896 150 1024 112 1152 103.7C1280 95.3 1408 116.7 1536 129.7C1664 142.7 1792 147.3 1856 149.7L1920 152L1920 0L1856 0C1792 0 1664 0 1536 0C1408 0 1280 0 1152 0C1024 0 896 0 768 0C640 0 512 0 384 0C256 0 128 0 64 0L0 0Z" fill="#2468f7" stroke-linecap="round" stroke-linejoin="miter"></path></svg>