<?xml version="1.0" standalone="no"?>
<svg version="1.1" id="Layer_1" xmlns="http://www.w3.org/2000/svg" xmlns:xlink="http://www.w3.org/1999/xlink" x="0px" y="0px" width="595.276px" height="595.276px" viewBox="0 0 595.276 595.276" enable-background="new 0 0 595.276 595.276" xml:space="preserve">
<path id="color_x5F_6" fill-rule="evenodd" clip-rule="evenodd" fill="#2563eb" d="M545.058,323.309
	c-1.699-4.558-5.153-8.494-9.909-10.674l-20.696-9.457l-6.173,13.534l-9.654,21.036c6.88,3.17,13.844,6.256,20.668,9.484
	c4.784,2.179,9.994,2.236,14.552,0.537s8.466-5.125,10.645-9.881l0.029-0.056C546.7,333.076,546.729,327.867,545.058,323.309z
	 M106.08,265.75h17.837c1.019,0,1.982-0.198,2.887-0.565c0.878-0.369,1.67-0.907,2.378-1.586l0.028-0.057
	c0.708-0.707,1.274-1.528,1.643-2.406c0.368-0.906,0.565-1.869,0.565-2.887v-14.411l-13.25,13.222c-1.925,1.954-4.557,1.614-6.341,0
	l-13.222-13.222v14.411c0,1.019,0.198,1.982,0.566,2.887c0.368,0.878,0.906,1.699,1.614,2.406c0.707,0.708,1.528,1.274,2.434,1.643
	C104.099,265.552,105.09,265.75,106.08,265.75z M123.918,232.937c0.963,0,1.897,0.17,2.775,0.509l0.056,0.029
	c0.538,0.226,1.048,0.48,1.501,0.821l-13.251,13.25l-13.25-13.25c0.51-0.341,1.02-0.623,1.586-0.85
	c0.849-0.34,1.783-0.509,2.746-0.509H123.918z M106.08,208.674h17.837c1.019,0,1.982-0.198,2.887-0.566
	c0.878-0.368,1.699-0.906,2.406-1.614c0.708-0.707,1.274-1.528,1.643-2.434c0.368-0.907,0.565-1.869,0.565-2.86v-14.411
	l-13.25,13.222c-1.925,1.926-4.557,1.585-6.341,0l-13.222-13.222V201.2c0,0.991,0.198,1.953,0.566,2.86
	c0.368,0.906,0.906,1.727,1.614,2.434c0.707,0.708,1.528,1.246,2.434,1.614C104.099,208.476,105.09,208.674,106.08,208.674z
	 M123.918,175.859c0.963,0.001,1.897,0.199,2.775,0.538l0.056,0.028c0.538,0.199,1.048,0.481,1.501,0.821l-13.251,13.251
	l-13.25-13.251c0.51-0.368,1.02-0.651,1.586-0.849c0.849-0.34,1.783-0.537,2.746-0.538H123.918z M265.333,87.358
	c-0.584,0.013-1.165,0.126-1.696,0.339c-0.594,0.255-1.104,0.594-1.557,1.047c-0.452,0.453-0.821,0.992-1.047,1.557
	c-0.227,0.566-0.369,1.19-0.369,1.841V132.6c0,0.651,0.142,1.274,0.369,1.841l0.028,0.028c0.227,0.566,0.566,1.076,1.019,1.529
	c0.453,0.452,0.963,0.792,1.557,1.019c0.566,0.255,1.19,0.369,1.813,0.369c0.651,0,1.273-0.114,1.84-0.369h0.057
	c0.537-0.255,1.048-0.594,1.5-1.019c0.453-0.453,0.793-0.991,1.048-1.557c0.227-0.566,0.34-1.19,0.34-1.841V92.141
	c0-0.651-0.113-1.274-0.34-1.841c-0.255-0.565-0.594-1.104-1.048-1.557c-0.452-0.452-0.991-0.792-1.557-1.047
	c-0.566-0.227-1.189-0.341-1.84-0.341L265.333,87.358z M166.835,87.358c-0.583,0.013-1.166,0.126-1.723,0.339
	c-0.566,0.255-1.076,0.594-1.529,1.047c-0.453,0.453-0.821,0.992-1.048,1.557c-0.227,0.566-0.368,1.19-0.368,1.841V132.6
	c0,0.651,0.141,1.274,0.368,1.841l0.029,0.028c0.226,0.566,0.565,1.076,1.019,1.529c0.453,0.452,0.963,0.792,1.557,1.019
	c0.566,0.255,1.19,0.369,1.812,0.369c0.651,0,1.274-0.114,1.841-0.369h0.056c0.538-0.255,1.048-0.594,1.501-1.019
	c0.452-0.453,0.793-0.991,1.019-1.557c0.255-0.566,0.369-1.19,0.369-1.841V92.141c0-0.651-0.114-1.274-0.369-1.841
	c-0.226-0.565-0.566-1.104-1.019-1.557c-0.453-0.452-0.991-0.792-1.557-1.047c-0.566-0.227-1.19-0.341-1.841-0.341L166.835,87.358z
	 M117.595,87.358c-0.607,0.013-1.188,0.126-1.719,0.339c-0.566,0.255-1.104,0.594-1.557,1.047c-0.452,0.453-0.793,0.992-1.019,1.557
	c-0.255,0.566-0.369,1.19-0.369,1.841V132.6c0,0.651,0.114,1.274,0.369,1.841v0.028c0.255,0.566,0.594,1.076,1.019,1.529
	c0.453,0.452,0.991,0.792,1.557,1.019c0.566,0.255,1.19,0.369,1.841,0.369c0.622,0,1.245-0.114,1.812-0.369h0.057
	c0.566-0.255,1.076-0.594,1.5-1.019c0.453-0.453,0.821-0.991,1.048-1.557c0.227-0.566,0.368-1.19,0.368-1.841V92.141
	c0-0.651-0.141-1.274-0.368-1.841c-0.227-0.565-0.594-1.104-1.048-1.557c-0.453-0.452-0.963-0.792-1.529-1.047
	c-0.594-0.227-1.218-0.341-1.84-0.341L117.595,87.358z M216.093,87.358c-0.607,0.013-1.188,0.126-1.718,0.339
	c-0.566,0.255-1.105,0.594-1.558,1.047c-0.452,0.453-0.792,0.992-1.019,1.557c-0.255,0.566-0.368,1.19-0.368,1.841V132.6
	c0,0.651,0.113,1.274,0.368,1.841c0.227,0.566,0.566,1.104,1.019,1.557c0.453,0.452,0.992,0.792,1.558,1.019
	c0.565,0.255,1.189,0.369,1.84,0.369c0.623,0,1.245-0.114,1.812-0.369h0.057c0.566-0.255,1.076-0.594,1.5-1.019
	c0.453-0.453,0.821-0.991,1.048-1.557c0.227-0.566,0.369-1.19,0.369-1.841V92.141c0-0.651-0.142-1.274-0.369-1.841
	c-0.227-0.565-0.594-1.104-1.048-1.557c-0.452-0.452-0.962-0.792-1.528-1.047c-0.595-0.227-1.218-0.341-1.841-0.341L216.093,87.358z
	"></path>
<path id="color_x5F_5" fill-rule="evenodd" clip-rule="evenodd" fill="#FFD2BB" d="M434.273,300.885l-5.296,9.192
	c-0.028,0.056-0.763,1.284-0.763,1.284c-0.792,1.387-0.934,2.944-0.566,4.388c0.369,1.416,1.302,2.69,2.69,3.483
	c2.775,1.614,5.578,3.256,8.381,4.841c1.359,0.765,2.916,0.935,4.332,0.538c1.415-0.369,2.69-1.302,3.482-2.662l1.586-2.746
	l0.424-0.765l1.585-2.718l2.464-4.275L434.273,300.885z M427.45,308.757l3.822-6.625l-3.54,1.954
	c-0.311,0.17-0.565,0.396-0.764,0.651c-0.227,0.255-0.368,0.565-0.452,0.877l-0.029,0.085c-0.085,0.34-0.113,0.68-0.056,1.02
	c0.056,0.312,0.17,0.651,0.368,0.963L427.45,308.757z M311.428,250.576l0.17-0.142c1.048-0.906,2.577-1.076,3.794-0.312
	c0,0,0.906,0.935,1.302,1.02c0.368,0.056,0.736-0.085,0.934-0.369c0.198-0.198,0.679-0.537,0.679-0.537
	c0.256-0.171,0.538-0.284,0.85-0.369c0.566-0.142,1.133-0.142,1.699,0.028l0.283,0.085c0.17,0.057,0.312,0.114,0.453,0.199
	l13.589,7.842c0.34,0.227,0.679,0.509,0.934,0.821c0.255,0.34,0.425,0.736,0.538,1.133c0.227,0.849,0.113,1.699-0.312,2.463
	l-0.906,1.585l-0.736,1.274c-1.5,2.576-4.19,4.02-7.078,2.35l-3.906-2.237c-0.029-0.028-0.057-0.056-0.085-0.085l-6.145-3.539
	c-0.056-0.028-1.528-1.076-1.67-1.274l-4.728-7.191c-0.198-0.311-0.312-0.651-0.34-0.991v-0.028
	C310.691,251.594,310.975,251.057,311.428,250.576z M311.145,210.57l-28.313-2.01l-2.236,4.869l-4.955,10.816l20.046,20.102
	l13.986-30.578L311.145,210.57z M352.82,170.849c18.148,5.436,31.625-4.841,36.607-9.512c-1.614,18.006,7.955,25.282,9.003,26.018
	c0.17,0.142,0.397,0.255,0.651,0.255h6.767c0.764,0,1.528,0.142,2.208,0.424c0.679,0.284,1.302,0.68,1.812,1.19l0.283,0.283
	c0.019,0.024,0.038,0.046,0.059,0.066l0.021,0.023c0.847,1.012,1.364,2.318,1.364,3.762c0,1.585-0.623,3.029-1.67,4.048
	c-1.048,1.048-2.492,1.699-4.077,1.699h-6.767c-0.566,0-0.991,0.424-0.991,0.991v23.952c0,0.23-0.016,0.443-0.035,0.665
	c-0.006,0.024-0.362,2.166-0.786,3.072l-0.029,0.057c-0.452,0.962-1.048,1.812-1.784,2.576c-0.849,0.821-1.84,1.5-2.915,1.926
	c-1.076,0.452-2.237,0.679-3.426,0.679c-1.217,0-2.378-0.227-3.454-0.679c-1.077-0.425-2.067-1.105-2.916-1.926
	c-0.764-0.793-1.387-1.67-1.812-2.661c-0.453-0.963-0.708-2.011-0.793-3.115l-0.028-0.594v-9.372c0-0.565-0.424-1.018-0.991-1.019
	h-7.447c-5.21,0-9.937-2.095-13.335-5.521c-3.426-3.397-5.52-8.125-5.52-13.306v-23.981H352.82z M372.355,201.765
	c-0.17-0.537,0.142-1.076,0.679-1.245c0.509-0.141,1.02,0.142,1.218,0.623c0.34,0.764,0.878,1.387,1.557,1.84
	c0.708,0.425,1.529,0.68,2.378,0.68c0.85,0,1.671-0.255,2.378-0.68c0.68-0.452,1.245-1.104,1.586-1.897
	c0.056-0.142,0.17-0.283,0.283-0.368l0.028-0.029c0.341-0.255,0.822-0.283,1.19,0c0.369,0.255,0.509,0.708,0.369,1.133
	c0,0-1.359,2.152-2.379,2.832c-1.019,0.651-2.208,1.019-3.454,1.019s-2.435-0.368-3.454-1.019
	C373.743,204.002,372.536,202.338,372.355,201.765z"></path>
<path id="color_x5F_4" fill-rule="evenodd" clip-rule="evenodd" fill="#000000" d="M123.918,404.112
	c1.02,0,1.982,0.198,2.887,0.566c0.878,0.368,1.699,0.934,2.406,1.642c0.708,0.707,1.274,1.528,1.643,2.406
	c0.368,0.906,0.565,1.869,0.565,2.888v17.837c0,0.991-0.198,1.982-0.565,2.86c-0.369,0.906-0.935,1.727-1.643,2.434
	c-0.707,0.708-1.528,1.246-2.406,1.614c-0.906,0.369-1.869,0.566-2.887,0.566H106.08c-0.991,0-1.982-0.198-2.86-0.566
	c-0.906-0.368-1.727-0.906-2.434-1.614l-0.057-0.056c-0.679-0.68-1.19-1.501-1.557-2.378c-0.369-0.878-0.566-1.869-0.566-2.86
	v-17.837c0-1.019,0.198-1.982,0.566-2.888c0.368-0.878,0.906-1.699,1.614-2.406c0.707-0.708,1.528-1.274,2.434-1.642
	c0.878-0.369,1.868-0.566,2.86-0.566H123.918z M123.918,347.062c1.02,0.001,1.982,0.199,2.887,0.566
	c0.878,0.369,1.699,0.907,2.406,1.614l0.057,0.057c0.679,0.679,1.218,1.5,1.586,2.378s0.565,1.869,0.565,2.859v17.836
	c0,1.02-0.198,1.982-0.565,2.888c-0.369,0.877-0.935,1.698-1.643,2.406c-0.707,0.708-1.528,1.274-2.406,1.642
	c-0.906,0.369-1.869,0.566-2.887,0.566H106.08c-0.991,0-1.982-0.198-2.86-0.566c-0.906-0.368-1.727-0.934-2.434-1.642
	c-0.708-0.708-1.246-1.529-1.614-2.406c-0.369-0.907-0.566-1.869-0.566-2.888v-17.836c0-0.991,0.198-1.982,0.566-2.859
	c0.368-0.906,0.906-1.727,1.614-2.435c0.707-0.707,1.528-1.245,2.434-1.614c0.878-0.368,1.868-0.565,2.86-0.566H123.918z
	 M123.918,289.986c1.02,0,1.982,0.199,2.887,0.566c0.878,0.368,1.727,0.934,2.406,1.642c0.708,0.679,1.274,1.529,1.643,2.407
	c0.368,0.906,0.565,1.868,0.565,2.887v17.836c0,0.991-0.198,1.954-0.565,2.86c-0.369,0.906-0.935,1.727-1.643,2.435
	c-0.707,0.708-1.528,1.246-2.406,1.614c-0.906,0.368-1.869,0.566-2.887,0.566H106.08c-0.991,0-1.982-0.199-2.86-0.566
	c-0.906-0.369-1.727-0.906-2.434-1.614c-0.708-0.708-1.246-1.529-1.614-2.435c-0.369-0.878-0.566-1.869-0.566-2.86v-17.836
	c0-1.02,0.198-1.982,0.566-2.887c0.368-0.878,0.906-1.699,1.614-2.407l0.056-0.057c0.68-0.679,1.501-1.217,2.378-1.585
	c0.878-0.368,1.868-0.566,2.86-0.566H123.918z M346.393,270.253l6.398,34.003c0.341,1.812,0.284,3.652-0.17,5.407
	c-0.452,1.755-1.302,3.397-2.463,4.813c-0.821,0.963-1.755,1.812-2.803,2.491h1.869c1.33,0,2.576-0.424,3.624-1.161
	c1.048-0.736,1.869-1.784,2.293-3.029l11.126-31.257l-0.509-2.406L346.393,270.253z M326.631,269.375l-2.179-1.245l5.86,39.947
	l0.227,1.048c0.538,2.123,1.699,3.964,3.284,5.323c1.614,1.387,3.681,2.293,5.918,2.492h1.557c1.302-0.085,2.576-0.424,3.736-0.963
	c1.359-0.651,2.605-1.585,3.596-2.775c0.992-1.189,1.671-2.576,2.068-4.048c0.368-1.444,0.424-3.001,0.141-4.53l-6.681-35.39
	l-2.944-1.359l-4.53-2.066l-0.566,1.02C334.191,270.139,329.944,271.299,326.631,269.375z M414.116,246.13l37.966,21.914
	c0.481,0.283,0.651,0.906,0.369,1.387l-17.185,29.727l18.318,10.561l21.744-37.825c1.812-3.143,2.18-6.71,1.302-9.966
	c-0.85-3.228-2.944-6.116-6.059-7.927l-45.724-26.416C413.011,220.763,401.46,238.826,414.116,246.13z M98.267,240.695l-4.191-4.219
	l3.511-3.511l16.705,16.705c0.397,0.397,1.019,0.397,1.415,0l27.774-27.774l3.511,3.539c0,0-28.542,28.542-30.139,30.139
	c-0.046,0.046-0.097,0.088-0.152,0.124c-0.175,0.115-0.58,0.381-0.749,0.491c-0.075,0.05-0.157,0.089-0.244,0.116
	c-0.333,0.087-0.688,0.092-1.034,0.044c-0.097-0.014-0.192-0.043-0.28-0.085c-0.272-0.126-0.908-0.429-1.11-0.562
	c-0.029-0.023-0.057-0.048-0.083-0.074c-0.878-0.875-14.879-14.876-14.879-14.876l-0.028-0.057L98.267,240.695L98.267,240.695z
	 M403.98,201.086c-1.048,1.643-2.011,3.001-2.889,3.964c-0.396,0.424-0.736,0.792-1.019,1.047v-5.011H403.98z M98.267,183.646
	l-4.191-4.219l3.511-3.539l16.705,16.704c0.397,0.397,1.019,0.397,1.415,0l27.774-27.745l3.511,3.511l-30.209,30.237
	c-0.17,0.113-0.566,0.452-0.906,0.566c-0.424,0.17-0.905,0.198-1.358,0.085l-0.708-0.255c-0.198-0.114-0.397-0.227-0.566-0.397
	l-14.949-14.949h-0.029V183.646z M399.394,185.6c-1.561-1.165-10.362-8.639-7.645-26.925c0.085-0.537-0.283-1.048-0.849-1.133
	c-0.369-0.056-0.708,0.114-0.935,0.397c-0.821,0.935-15.883,18.007-37.825,10.617c-0.537-0.17-1.104,0.113-1.273,0.623
	c-0.029,0.113-0.029,0.226-0.029,0.312h-0.028v7.105c-1.784-1.443-4.813-4.218-6.992-8.068c0.764-2.888,6.766-22.197,29.245-27.604
	c23.896-5.747,27.435,11.183,27.464,11.239c0.113,0.538,0.65,0.878,1.189,0.765l0.057-0.029c0,0,6.511-1.982,9.909,6.031
	c1.67,3.907,2.208,8.409,1.926,13.024c-0.284,5.096-1.501,10.333-3.143,15.175c-0.509-0.368-1.048-0.707-1.642-0.934
	c-0.934-0.397-1.925-0.594-2.972-0.594h-6.457V185.6z"></path>
<path id="color_x5F_3" fill-rule="evenodd" clip-rule="evenodd" fill="#2563eb" d="M368.533,476.42v-57.416
	c0-3.114,0.538-6.2,1.557-9.088c1.048-2.916,2.548-5.634,4.529-8.041l24.859-30.634c0.424-0.509,0.906-0.906,1.472-1.189
	l0.056-0.029c0.595-0.283,1.217-0.424,1.898-0.424h0.085c1.161,0,2.236,0.453,3.029,1.218c0.792,0.736,1.302,1.784,1.358,2.944
	l1.869,35.702c0.114,2.293,0.453,4.558,1.02,6.767c0.537,2.208,1.302,4.36,2.293,6.427l25.254,53.764h26.273l-18.034-56.737
	c-0.651-2.066-1.133-4.162-1.416-6.256c-0.312-2.123-0.397-4.276-0.34-6.427l2.407-64.863c-23.33,5.861-48.867,6.994-72.281,1.02
	l-30.549,51.188c-1.161,1.954-2.066,4.049-2.661,6.228c-0.595,2.152-0.906,4.417-0.906,6.682v69.166h28.228V476.42z
	 M275.953,417.022v7.021H159.845v-7.021H275.953z M275.953,359.944v7.021H159.845v-7.021H275.953z M492.88,293.299l-21.744-9.966
	l-19.111,33.097l25.028,11.466l5.776-12.628L492.88,293.299z M275.953,302.896v7.021H159.845v-7.021H275.953z M316.552,212.552
	c-0.028,0-0.085-0.028-0.142-0.056l-3.284-1.501l-6.597,14.439l-9.23,20.158l11.637,5.323c0.991-3.029,4.869-4.134,7.503-2.492
	l0.509,0.312c0.509-0.368,1.076-0.622,1.67-0.792c0.68-0.171,1.359-0.227,2.039-0.142c0.679,0.113,1.33,0.312,1.926,0.679
	l13.589,7.814c0.594,0.368,1.105,0.821,1.529,1.358c0.397,0.538,0.707,1.162,0.877,1.813c0.199,0.679,0.227,1.358,0.142,2.039
	c-0.085,0.679-0.312,1.33-0.651,1.925l-0.368,0.651l7.758,3.539l0.028,0.029l21.489,9.824c0.028,0.028,0.085,0.028,0.113,0.057
	l52.774,24.178l5.153,2.35c0.114-0.198,0.227-0.368,0.369-0.537c0.368-0.481,0.849-0.878,1.387-1.19l6.426-3.539l12.203-21.149
	l2.775-4.813l-16.223-7.446c-0.028,0-0.057-0.028-0.085-0.028L316.552,212.552z M275.953,245.819v7.02H159.845v-7.02H275.953z
	 M280.709,208.391l-22.395-1.586l15.827,15.912L280.709,208.391z M275.953,188.77v7.021H159.845v-7.021H275.953z"></path>
<path id="color_x5F_2" fill-rule="evenodd" clip-rule="evenodd" fill="#000000" d="M368.533,478.402v24.348
	c0,0.594-0.113,1.189-0.34,1.698c-0.227,0.538-0.538,1.048-0.963,1.472c-0.424,0.397-0.878,0.708-1.415,0.935l-0.029,0.028
	c-0.537,0.199-1.104,0.34-1.698,0.34H313.92c-0.566,0-1.105-0.113-1.614-0.34c-0.509-0.198-0.963-0.509-1.387-0.934
	c-0.397-0.396-0.708-0.878-0.906-1.387c-0.227-0.509-0.34-1.048-0.34-1.614c0-1.472,0.368-2.887,1.048-4.133
	c0.651-1.246,1.613-2.322,2.831-3.115l26.047-17.298H368.533z M464.539,478.402l2.548,23.867c0.085,0.622,0,1.273-0.198,1.869
	c-0.17,0.566-0.481,1.132-0.906,1.585c-0.425,0.481-0.963,0.849-1.529,1.105c-0.538,0.255-1.161,0.368-1.784,0.396h-40.685
	c-0.566,0-1.076-0.113-1.585-0.34c-0.481-0.198-0.963-0.509-1.359-0.906c-0.368-0.397-0.679-0.849-0.906-1.33
	c-0.198-0.509-0.312-1.048-0.312-1.614c0-1.076,0.199-2.123,0.594-3.086c0.369-0.991,0.935-1.897,1.671-2.661l17.525-18.884
	L464.539,478.402L464.539,478.402z M426.233,310.88l0.085-0.17l-1.218-1.983c-0.34-0.537-0.537-1.132-0.651-1.727
	c-0.028-0.34-0.056-0.679-0.028-1.019l-56.397-25.821l5.605,25.707c1.274,5.889,1.671,11.892,1.246,17.808
	c-0.397,5.634-1.557,11.24-3.483,16.591c25.424,7.333,53.623,5.889,78.877-1.133l-1.557-16.986l-0.452,0.792
	c-1.077,1.841-2.804,3.086-4.7,3.596c-1.897,0.51-3.992,0.312-5.832-0.736l-8.381-4.841c-1.869-1.076-3.114-2.803-3.624-4.699
	C425.242,314.504,425.384,312.607,426.233,310.88z M496.815,336.926l6.2-13.533l9.625-21.036l-17.949-8.238l-5.776,12.627
	l-10.051,21.97L496.815,336.926z M412.785,226.085l-12.882-0.142c-0.142,0.906-0.424,1.813-0.821,2.662l-0.029,0.085
	c-0.537,1.161-1.273,2.208-2.179,3.114c-1.048,1.048-2.265,1.841-3.568,2.378c-1.33,0.566-2.746,0.85-4.19,0.85
	c-1.472,0-2.887-0.284-4.219-0.85c-1.302-0.537-2.52-1.33-3.567-2.378c-0.935-0.934-1.671-2.011-2.237-3.227
	c-0.397-0.907-0.679-1.869-0.849-2.888l-13.674-0.141c-1.02,0-2.039,0.198-2.945,0.622c-0.877,0.424-1.698,1.048-2.349,1.869
	c-0.284,0.34-0.51,0.708-0.736,1.076c-0.057,0.142-0.114,0.255-0.17,0.397l72.308,33.125l-1.755-5.662l-15.798-9.116
	C404.716,243.016,404.772,231.04,412.785,226.085z"></path>
<path id="color_x5F_1" fill="#000000" d="M532.828,509.205h-7.304c-0.538,0-0.991-0.452-0.991-0.991
	c0-0.566,0.452-0.991,0.991-0.991h7.304c0.538,0,0.991,0.424,0.991,0.991C533.818,508.753,533.366,509.205,532.828,509.205z
	 M65.284,132.175c0-2.775,0.538-5.464,1.557-7.956c1.048-2.52,2.577-4.813,4.53-6.767c1.926-1.925,4.247-3.454,6.739-4.502
	c2.491-1.048,5.21-1.585,7.955-1.585h24.858V92.142c0-0.906,0.199-1.784,0.538-2.605c0.312-0.821,0.821-1.557,1.444-2.208
	c0.651-0.623,1.387-1.133,2.208-1.472c0.821-0.34,1.698-0.51,2.605-0.51c0.877,0,1.755,0.171,2.576,0.51
	c0.821,0.34,1.586,0.849,2.208,1.472c0.623,0.651,1.133,1.387,1.472,2.208c0.34,0.821,0.509,1.699,0.509,2.605v19.224h35.702V92.142
	c0-0.906,0.17-1.784,0.509-2.605c0.341-0.821,0.85-1.557,1.473-2.208c0.622-0.623,1.386-1.133,2.208-1.472
	c0.821-0.34,1.698-0.51,2.576-0.51c0.906,0,1.784,0.171,2.605,0.51c0.821,0.34,1.557,0.849,2.208,1.472
	c0.623,0.651,1.104,1.387,1.444,2.208s0.537,1.699,0.537,2.605v19.224h35.674V92.142c0-0.906,0.198-1.784,0.537-2.605
	s0.821-1.557,1.444-2.208c0.651-0.623,1.387-1.133,2.208-1.472c0.821-0.34,1.699-0.51,2.605-0.51c0.878,0,1.755,0.171,2.576,0.51
	c0.821,0.34,1.586,0.849,2.208,1.472c0.651,0.651,1.133,1.387,1.472,2.208c0.341,0.821,0.51,1.699,0.51,2.605v19.224h35.702V92.142
	c0-0.906,0.17-1.784,0.509-2.605c0.34-0.821,0.849-1.557,1.472-2.208c0.622-0.623,1.387-1.133,2.208-1.472
	c0.821-0.34,1.699-0.51,2.576-0.51c0.906,0,1.784,0.171,2.605,0.51c0.821,0.34,1.557,0.849,2.208,1.472
	c0.623,0.651,1.133,1.387,1.472,2.208c0.34,0.821,0.51,1.699,0.51,2.605v19.224h24.858c2.747,0,5.464,0.537,7.955,1.585
	c2.52,1.048,4.813,2.577,6.739,4.502c1.953,1.954,3.482,4.247,4.529,6.767c1.019,2.492,1.585,5.182,1.585,7.956v78.82l38.646,17.695
	c0.057-0.17,0.142-0.341,0.227-0.51c0.284-0.509,0.594-0.962,0.963-1.415c0.821-1.019,1.869-1.84,3.057-2.378
	c1.161-0.566,2.463-0.849,3.794-0.821l13.533,0.132v-8.031h-6.455c-5.775,0-10.985-2.35-14.75-6.116
	c-3.765-3.765-6.116-8.974-6.116-14.722v-15.741c0.17,0.113,0.312,0.198,0.397,0.255l-0.19-0.133
	c-1.201-0.843-6.048-4.406-9.154-10.06c-0.113-0.227-0.141-0.481-0.085-0.708c0-0.085,5.324-23.301,30.832-29.444
	c22.395-5.407,28.368,8.069,29.586,11.806c2.293-0.34,8.069-0.255,11.324,7.333c1.813,4.219,2.35,9.032,2.095,13.93
	c-0.34,5.804-3.568,16.619-3.568,16.619c0.963,1.302,1.557,2.916,1.557,4.671c0,2.123-0.877,4.077-2.264,5.464
	c-1.301,1.3-3.082,2.149-5.033,2.264c-1.303,2.212-2.599,4.017-3.744,5.296c-0.877,0.984-1.731,1.663-2.491,1.965v15.599
	l19.903,0.216c0.057,0,0.114,0,0.17,0.028c1.926,0.086,3.879,0.651,5.691,1.671c14.949,8.975,31.058,17.214,45.724,26.415
	c3.596,2.095,6.002,5.436,6.992,9.145c1.02,3.737,0.594,7.87-1.5,11.466l-4.983,8.692l22.565,10.333l19.762,9.032l21.574,9.881
	c5.266,2.434,9.06,6.738,10.929,11.778c1.897,5.039,1.84,10.787-0.566,16.052l-0.029,0.085c-2.435,5.238-6.738,9.032-11.75,10.901
	c-5.039,1.869-10.787,1.812-16.052-0.595l-21.602-9.881l-19.762-9.059l-26.104-11.948l-0.594,1.048l1.897,20.555
	c0.029,0.509-0.283,0.934-0.736,1.048c-0.962,0.283-1.925,0.537-2.887,0.792l-2.406,65.486c-0.085,2.01,0.028,4.048,0.283,6.059
	c0.283,2.01,0.736,3.992,1.359,5.946l18.403,57.926c0.057,0.114,0.085,0.227,0.085,0.369l2.633,24.688
	c0.113,0.906,0,1.812-0.283,2.662c-0.255,0.849-0.708,1.642-1.331,2.321c-0.014,0.014-0.026,0.028-0.038,0.042l-0.065,0.086
	c-0.012,0.014-0.024,0.028-0.038,0.042h37.966c0.566,0,1.02,0.424,1.02,0.991c0,0.538-0.453,0.991-1.02,0.991H66.274
	c-0.566,0-0.991-0.452-0.991-0.991c0-0.566,0.424-0.991,0.991-0.991h243.087c-0.509-0.566-0.906-1.19-1.19-1.897
	c-0.34-0.736-0.481-1.557-0.481-2.378c0-1.812,0.424-3.54,1.274-5.068c0.821-1.529,2.01-2.859,3.483-3.85l25.876-17.157v-69.619
	c0-2.435,0.312-4.87,0.963-7.22c0.651-2.349,1.614-4.614,2.86-6.71l30.265-50.678c-0.877-0.255-1.727-0.481-2.605-0.764
	c-0.537-0.142-0.821-0.708-0.679-1.217c0.028-0.057,0.028-0.085,0.057-0.142l0.028-0.085c2.039-5.435,3.284-11.126,3.681-16.902
	c0.424-5.747,0-11.551-1.218-17.242l-4.586-21.092l-10.051,28.228c-0.594,1.67-1.67,3.057-3.029,4.02
	c-1.387,0.962-3.029,1.5-4.784,1.5h-6.767l-1.105-0.028c-0.255,0.028-0.481,0.028-0.736,0.028c-3.086,0-5.917-1.104-8.097-3.001
	c-1.84-1.585-3.227-3.709-3.878-6.144v-0.028l-0.029-0.114l-0.028-0.113l-0.028-0.057v-0.085l-0.029-0.113l-0.028-0.085v-0.057
	l-0.028-0.085v-0.028l-0.029-0.114v-0.028l-0.028-0.113v-0.029l-0.028-0.113v-0.142h-0.029v-0.141l-6.087-41.505l-4.361-2.52
	v186.151c0,2.746-0.566,5.435-1.585,7.955c-1.048,2.492-2.577,4.785-4.529,6.739c-1.926,1.953-4.219,3.482-6.739,4.502
	c-2.491,1.047-5.209,1.585-7.955,1.585h-55.237c-0.538,0-0.991-0.424-0.991-0.991c0-0.538,0.452-0.991,0.991-0.991h55.237
	c2.491,0,4.954-0.509,7.191-1.444c2.264-0.934,4.332-2.293,6.116-4.077c1.755-1.755,3.142-3.822,4.076-6.087
	c0.935-2.265,1.416-4.7,1.416-7.191V263.175c-0.312-0.171-0.566-0.369-0.821-0.595l-0.057-0.056
	c-0.283-0.227-0.538-0.481-0.793-0.765l-0.056-0.085l-4.757-7.276c-0.283-0.424-0.48-0.878-0.565-1.358l-13.279-6.06h-0.028v-0.028
	h-0.057v-0.028h-0.028v-0.029h-0.057v-0.028h-0.028v-0.028h-0.029l-0.085-0.085l-21.517-21.603v-0.028l-18.714-18.799
	c-0.397-0.397-0.397-1.02,0-1.415c0.198-0.199,0.481-0.284,0.764-0.284l26.501,1.897h0.028l30.407,2.152
	c0.142,0.028,0.283,0.056,0.397,0.141l2.775,1.246v-77.886c0-2.52-0.481-4.955-1.416-7.22c-0.934-2.236-2.321-4.332-4.076-6.087
	c-1.784-1.756-3.851-3.143-6.116-4.077c-2.237-0.935-4.699-1.415-7.191-1.416h-24.858v16.223c0.962,0.906,1.755,1.982,2.321,3.171
	c0.623,1.302,0.963,2.746,0.963,4.275c0,2.775-1.133,5.295-2.944,7.134c-1.841,1.813-4.361,2.944-7.135,2.944
	c-2.775,0-5.294-1.132-7.106-2.944c-1.812-1.84-2.944-4.36-2.944-7.134c0-1.529,0.341-2.972,0.963-4.275
	c0.566-1.19,1.359-2.265,2.322-3.171v-16.223h-35.702v16.223c0.962,0.906,1.784,1.982,2.349,3.171
	c0.595,1.302,0.935,2.746,0.935,4.275c0,2.775-1.105,5.295-2.944,7.106v0.028c-1.812,1.813-4.332,2.944-7.106,2.944
	c-2.775,0-5.295-1.132-7.134-2.944c-1.813-1.84-2.944-4.36-2.944-7.134c0-1.529,0.34-2.972,0.962-4.275
	c0.566-1.19,1.359-2.265,2.322-3.171v-16.223h-35.674v16.223c0.963,0.906,1.756,1.982,2.322,3.171
	c0.622,1.302,0.962,2.746,0.962,4.275c0,2.775-1.132,5.295-2.944,7.134c-1.84,1.813-4.36,2.944-7.134,2.944
	c-2.775,0-5.295-1.132-7.106-2.944c-1.812-1.84-2.944-4.36-2.944-7.134c0-1.529,0.34-2.972,0.935-4.275
	c0.565-1.19,1.386-2.265,2.349-3.171v-16.223h-35.702v16.223c0.963,0.906,1.784,1.982,2.35,3.171
	c0.594,1.302,0.935,2.746,0.935,4.275c0,2.775-1.133,5.295-2.944,7.106v0.028c-1.813,1.813-4.332,2.944-7.106,2.944
	c-2.775,0-5.295-1.132-7.135-2.944c-1.812-1.84-2.944-4.36-2.944-7.134c0-1.529,0.34-2.972,0.963-4.275l0.028-0.057
	c0.566-1.189,1.359-2.236,2.293-3.114v-16.223H86.064c-2.492,0.001-4.955,0.481-7.191,1.416c-2.264,0.934-4.332,2.321-6.116,4.077
	c-1.755,1.755-3.142,3.85-4.048,6.087c-0.935,2.265-1.444,4.7-1.444,7.22v184.678c0,0.566-0.452,0.992-0.991,0.992
	c-0.566,0-0.991-0.425-0.991-0.992L65.284,132.175L65.284,132.175z M59.706,509.205H47.305c-0.538,0-0.991-0.452-0.991-0.991
	c0-0.566,0.452-0.991,0.991-0.991h12.401c0.537,0,0.991,0.424,0.991,0.991C60.697,508.753,60.244,509.205,59.706,509.205z
	 M521.192,509.205h-11.551c-0.566,0-1.02-0.452-1.02-0.991c0-0.566,0.453-0.991,1.02-0.991h11.551c0.566,0,0.991,0.424,0.991,0.991
	C522.183,508.753,521.758,509.205,521.192,509.205z M402.989,371.609h-0.085c-0.368,0.001-0.707,0.057-1.047,0.227l-0.029,0.029
	c-0.312,0.141-0.566,0.34-0.792,0.622l-24.887,30.634c-1.812,2.236-3.227,4.756-4.162,7.446c-0.963,2.69-1.444,5.521-1.444,8.437
	v83.747c0,0.85-0.198,1.699-0.509,2.463c-0.312,0.736-0.736,1.416-1.302,2.011h48.726c-0.481-0.538-0.878-1.161-1.162-1.84
	c-0.312-0.737-0.452-1.529-0.452-2.35c0-1.302,0.255-2.605,0.707-3.822c0.481-1.19,1.19-2.321,2.068-3.284L436,477.241
	l-25.254-53.736c-1.019-2.208-1.84-4.474-2.434-6.796c-0.566-2.321-0.935-4.727-1.077-7.134l-1.868-35.702
	c-0.029-0.651-0.312-1.218-0.736-1.614C404.206,371.835,403.612,371.61,402.989,371.609z M464.54,478.402h-26.925l-17.525,18.884
	c-0.736,0.765-1.302,1.671-1.671,2.662c-0.397,0.963-0.594,2.011-0.594,3.086c0,0.566,0.113,1.104,0.312,1.613
	c0.227,0.481,0.537,0.935,0.906,1.331c0.397,0.397,0.878,0.707,1.359,0.906c0.509,0.227,1.019,0.34,1.585,0.34h40.684
	c0.622-0.028,1.245-0.142,1.784-0.396c0.566-0.255,1.104-0.622,1.528-1.104c0.425-0.453,0.736-1.02,0.906-1.586
	c0.199-0.594,0.284-1.245,0.199-1.869L464.54,478.402z M368.534,478.402h-28.935l-26.047,17.299
	c-1.217,0.793-2.18,1.869-2.832,3.114c-0.679,1.245-1.047,2.662-1.047,4.134c0,0.566,0.113,1.104,0.34,1.613
	c0.198,0.51,0.509,0.992,0.906,1.387c0.424,0.426,0.878,0.736,1.387,0.935c0.509,0.227,1.048,0.34,1.614,0.34h50.168
	c0.595,0,1.162-0.142,1.699-0.34l0.029-0.028c0.537-0.227,0.991-0.538,1.415-0.935c0.425-0.425,0.736-0.934,0.963-1.472
	c0.226-0.509,0.34-1.104,0.34-1.699L368.534,478.402L368.534,478.402z M368.534,476.42v-57.417c0-3.114,0.537-6.199,1.557-9.088
	c1.048-2.915,2.548-5.634,4.53-8.04l24.859-30.634c0.424-0.509,0.906-0.906,1.472-1.19l0.056-0.028
	c0.594-0.283,1.217-0.424,1.897-0.424h0.085c1.162,0,2.237,0.452,3.03,1.218c0.792,0.736,1.301,1.784,1.358,2.944l1.869,35.702
	c0.113,2.293,0.453,4.557,1.02,6.767c0.537,2.208,1.301,4.36,2.293,6.426l25.254,53.765h26.273l-18.035-56.737
	c-0.651-2.068-1.132-4.162-1.415-6.257c-0.312-2.123-0.396-4.275-0.34-6.426l2.406-64.863c-23.329,5.861-48.867,6.992-72.28,1.019
	l-30.549,51.189c-1.161,1.954-2.066,4.048-2.661,6.228c-0.595,2.151-0.907,4.417-0.907,6.682v69.166h28.228V476.42z
	 M207.127,471.267H86.064c-2.746,0-5.464-0.538-7.955-1.585c-2.492-1.02-4.813-2.549-6.739-4.502
	c-1.953-1.954-3.482-4.247-4.53-6.739c-1.019-2.52-1.557-5.21-1.557-7.955v-94.025c0-0.537,0.424-0.991,0.991-0.991
	c0.538,0,0.991,0.453,0.991,0.991v94.025c0,2.491,0.509,4.926,1.444,7.191c0.906,2.264,2.293,4.332,4.048,6.087
	c1.784,1.784,3.851,3.143,6.116,4.077c2.236,0.934,4.699,1.444,7.191,1.444h121.063c0.566,0,1.019,0.452,1.019,0.991
	C208.146,470.843,207.693,471.267,207.127,471.267z M237.364,471.267h-5.295c-0.566,0-1.02-0.424-1.02-0.991
	c0-0.538,0.453-0.991,1.02-0.991h5.295c0.537,0,0.991,0.452,0.991,0.991C238.355,470.843,237.903,471.267,237.364,471.267z
	 M227.341,471.267h-15.997c-0.537,0-0.991-0.424-0.991-0.991c0-0.538,0.453-0.991,0.991-0.991h15.997c0.566,0,1.02,0.452,1.02,0.991
	C228.361,470.843,227.908,471.267,227.341,471.267z M123.917,438.935h-17.836c-1.245,0-2.491-0.255-3.624-0.736
	s-2.18-1.161-3.086-2.039l-0.057-0.056c-0.849-0.878-1.528-1.926-1.982-3.029c-0.481-1.133-0.736-2.378-0.736-3.625v-17.836
	c0-1.274,0.255-2.491,0.736-3.624c0.453-1.162,1.161-2.208,2.038-3.086c0.906-0.878,1.954-1.585,3.086-2.066
	c1.133-0.453,2.378-0.708,3.624-0.708h17.836c1.274,0,2.492,0.255,3.625,0.708c1.161,0.481,2.208,1.189,3.086,2.066
	c0.877,0.878,1.585,1.925,2.066,3.086c0.452,1.133,0.708,2.349,0.708,3.624v17.836c0,1.246-0.256,2.492-0.708,3.625
	c-0.481,1.133-1.19,2.179-2.066,3.085c-0.878,0.878-1.926,1.557-3.086,2.039C126.409,438.68,125.192,438.935,123.917,438.935z
	 M123.917,404.111h-17.836c-0.991,0-1.982,0.199-2.859,0.566c-0.906,0.369-1.727,0.935-2.435,1.642
	c-0.707,0.708-1.245,1.529-1.613,2.407c-0.369,0.906-0.566,1.869-0.566,2.887v17.836c0,0.991,0.198,1.983,0.566,2.86
	c0.368,0.878,0.877,1.699,1.557,2.378l0.056,0.057c0.708,0.708,1.529,1.246,2.435,1.614c0.878,0.368,1.869,0.566,2.859,0.566h17.836
	c1.02,0,1.983-0.199,2.888-0.566c0.878-0.369,1.699-0.906,2.406-1.614c0.708-0.708,1.274-1.529,1.642-2.435
	c0.369-0.877,0.566-1.869,0.566-2.86v-17.836c0-1.019-0.198-1.982-0.566-2.887c-0.368-0.878-0.934-1.699-1.642-2.407
	c-0.707-0.707-1.528-1.273-2.406-1.642C125.9,404.31,124.937,404.111,123.917,404.111z M276.944,426.024H158.827
	c-0.538,0-0.991-0.452-0.991-0.991v-9.003c0-0.566,0.452-1.019,0.991-1.019h118.117c0.538,0,0.991,0.452,0.991,1.019v9.003
	C277.935,425.572,277.482,426.024,276.944,426.024z M275.953,417.021H159.846v7.021h116.108L275.953,417.021L275.953,417.021z
	 M123.917,381.858h-17.836c-1.245,0-2.491-0.255-3.624-0.708c-1.133-0.481-2.18-1.189-3.086-2.066
	c-0.878-0.878-1.585-1.926-2.038-3.086c-0.481-1.133-0.736-2.35-0.736-3.624v-17.836c0-1.247,0.255-2.492,0.736-3.625
	c0.453-1.133,1.161-2.179,2.038-3.086c0.906-0.877,1.954-1.585,3.086-2.038c1.133-0.481,2.378-0.736,3.624-0.736h17.836
	c1.274,0,2.492,0.255,3.625,0.736c1.161,0.452,2.208,1.161,3.086,2.038l0.056,0.057c0.878,0.878,1.529,1.926,2.011,3.029
	c0.452,1.133,0.708,2.378,0.708,3.625v17.836c0,1.273-0.256,2.491-0.708,3.624c-0.481,1.161-1.19,2.208-2.066,3.086
	c-0.878,0.878-1.926,1.585-3.086,2.066C126.409,381.604,125.192,381.858,123.917,381.858z M123.917,347.063h-17.836
	c-0.991,0-1.982,0.199-2.859,0.566c-0.906,0.369-1.727,0.906-2.435,1.614c-0.707,0.707-1.245,1.529-1.613,2.435
	c-0.369,0.877-0.566,1.868-0.566,2.86v17.836c0,1.019,0.198,1.982,0.566,2.887c0.368,0.878,0.906,1.699,1.613,2.407
	c0.708,0.707,1.529,1.273,2.435,1.642c0.878,0.368,1.869,0.566,2.859,0.566h17.836c1.02,0,1.983-0.199,2.888-0.566
	c0.878-0.369,1.699-0.935,2.406-1.642c0.708-0.708,1.274-1.529,1.642-2.407c0.369-0.906,0.566-1.869,0.566-2.887v-17.836
	c0-0.992-0.198-1.983-0.566-2.86c-0.368-0.878-0.906-1.699-1.585-2.379l-0.057-0.056c-0.707-0.708-1.528-1.245-2.406-1.614
	C125.9,347.261,124.937,347.063,123.917,347.063z M276.944,368.976H158.827c-0.538,0-0.991-0.452-0.991-1.019v-9.003
	c0-0.538,0.452-0.991,0.991-0.991h118.117c0.538,0,0.991,0.452,0.991,0.991v9.003C277.935,368.523,277.482,368.976,276.944,368.976z
	 M275.953,359.945H159.846v7.021h116.108L275.953,359.945L275.953,359.945z M65.284,331.066c0-0.537,0.424-0.991,0.991-0.991
	c0.538,0,0.991,0.453,0.991,0.991v20.186c0,0.566-0.452,1.02-0.991,1.02c-0.566,0-0.991-0.453-0.991-1.02V331.066z M545.059,323.308
	c-1.699-4.557-5.153-8.493-9.909-10.673l-20.697-9.457l-6.172,13.534l-9.654,21.035c6.88,3.171,13.844,6.257,20.668,9.484
	c4.784,2.18,9.994,2.237,14.552,0.538s8.465-5.125,10.645-9.881l0.028-0.057C546.701,333.077,546.729,327.867,545.059,323.308z
	 M426.233,310.88v-0.028l0.085-0.142l-1.218-1.982c-0.34-0.538-0.538-1.133-0.651-1.727c-0.028-0.34-0.057-0.679-0.028-1.02
	l-56.397-25.821l5.605,25.708c1.274,5.889,1.671,11.892,1.246,17.808c-0.396,5.634-1.557,11.239-3.482,16.591
	c25.424,7.333,53.623,5.889,78.877-1.133l-1.557-16.987l-0.453,0.793c-1.076,1.84-2.803,3.086-4.699,3.596
	c-1.897,0.509-3.992,0.312-5.832-0.736l-8.381-4.841c-1.869-1.076-3.114-2.804-3.624-4.7
	C425.243,314.504,425.384,312.607,426.233,310.88z M496.815,336.927l6.2-13.534l9.625-21.035l-17.949-8.239l-5.776,12.628
	l-10.051,21.97L496.815,336.927z M492.879,293.298l-21.744-9.966l-19.11,33.097l25.028,11.467l5.775-12.628L492.879,293.298z
	 M65.284,322.544c0-0.566,0.424-1.019,0.991-1.019c0.538,0,0.991,0.452,0.991,1.019v2.832c0,0.566-0.452,1.019-0.991,1.019
	c-0.566,0-0.991-0.452-0.991-1.019V322.544z M434.274,300.886l-5.889,10.221c-0.028,0.057-0.056,0.114-0.085,0.142l-0.085,0.113
	c-0.793,1.387-0.934,2.944-0.566,4.389c0.369,1.415,1.302,2.69,2.69,3.483c2.775,1.613,5.577,3.255,8.381,4.841
	c1.358,0.764,2.915,0.934,4.332,0.537c1.415-0.368,2.69-1.302,3.482-2.661l1.586-2.747l0.424-0.764l1.585-2.718l2.463-4.276
	L434.274,300.886z M123.917,324.81h-17.836c-1.245,0-2.491-0.255-3.624-0.736s-2.18-1.161-3.086-2.039
	c-0.878-0.906-1.585-1.954-2.038-3.086c-0.481-1.133-0.736-2.378-0.736-3.624v-17.837c0-1.273,0.255-2.491,0.736-3.652
	c0.453-1.133,1.161-2.18,2.038-3.058l0.057-0.056c0.878-0.878,1.925-1.529,3.029-2.011c1.133-0.452,2.378-0.708,3.624-0.708h17.836
	c1.274,0,2.492,0.256,3.625,0.708c1.161,0.481,2.208,1.161,3.086,2.066c0.877,0.878,1.585,1.926,2.066,3.086
	c0.452,1.133,0.708,2.35,0.708,3.624v17.837c0,1.246-0.256,2.491-0.708,3.624c-0.481,1.133-1.19,2.18-2.066,3.086
	c-0.878,0.878-1.926,1.557-3.086,2.039C126.409,324.555,125.192,324.81,123.917,324.81z M123.917,289.986h-17.836
	c-0.991,0-1.982,0.198-2.859,0.566c-0.878,0.368-1.699,0.906-2.378,1.585l-0.057,0.057c-0.707,0.707-1.245,1.528-1.613,2.406
	c-0.369,0.906-0.566,1.869-0.566,2.887v17.837c0,0.991,0.198,1.982,0.566,2.86c0.368,0.906,0.906,1.727,1.613,2.435
	c0.708,0.707,1.529,1.246,2.435,1.613c0.878,0.369,1.869,0.566,2.859,0.566h17.836c1.02,0,1.983-0.198,2.888-0.566
	c0.878-0.368,1.699-0.906,2.406-1.613c0.708-0.708,1.274-1.529,1.642-2.435c0.369-0.906,0.566-1.869,0.566-2.86v-17.837
	c0-1.019-0.198-1.982-0.566-2.887c-0.368-0.878-0.934-1.727-1.642-2.406c-0.679-0.708-1.528-1.274-2.406-1.642
	C125.9,290.184,124.937,289.986,123.917,289.986z M346.393,270.252l6.398,34.003c0.34,1.812,0.284,3.653-0.17,5.407
	c-0.452,1.756-1.302,3.398-2.463,4.813c-0.821,0.963-1.755,1.813-2.803,2.492h1.869c1.33,0,2.576-0.424,3.624-1.161
	c1.048-0.736,1.869-1.784,2.293-3.029l11.126-31.257l-0.509-2.406L346.393,270.252z M326.632,269.374l-2.18-1.246l5.861,39.948
	l0.057,0.227v0.113l0.028,0.029c0,0.085,0.029,0.141,0.029,0.226l0.028,0.085v0.029l0.028,0.056v0.114l0.029,0.056v0.057
	l0.028,0.057c0.537,2.123,1.699,3.963,3.284,5.323c1.614,1.387,3.681,2.293,5.917,2.491h1.558c1.301-0.085,2.576-0.424,3.736-0.962
	c1.359-0.651,2.605-1.586,3.596-2.775c0.991-1.19,1.671-2.577,2.068-4.049c0.368-1.443,0.424-3.001,0.141-4.529l-6.681-35.39
	l-2.944-1.359l-4.53-2.066l-0.566,1.019C334.191,270.139,329.945,271.3,326.632,269.374z M276.944,311.899H158.827
	c-0.538,0-0.991-0.453-0.991-0.991v-9.003c0-0.566,0.452-1.02,0.991-1.02h118.117c0.538,0,0.991,0.453,0.991,1.02v9.003
	C277.935,311.446,277.482,311.899,276.944,311.899z M275.953,302.896H159.846v7.021h116.108L275.953,302.896L275.953,302.896z
	 M414.116,246.13l37.966,21.913c0.481,0.284,0.651,0.906,0.369,1.387l-17.186,29.728l18.319,10.56l21.744-37.825
	c1.812-3.142,2.179-6.71,1.302-9.966c-0.85-3.227-2.944-6.116-6.06-7.927l-45.723-26.415
	C413.011,220.763,401.46,238.826,414.116,246.13z M427.451,308.756l3.822-6.625l-3.54,1.954c-0.312,0.17-0.566,0.397-0.764,0.651
	c-0.227,0.255-0.369,0.566-0.453,0.878l-0.028,0.028v0.057c-0.085,0.34-0.113,0.679-0.057,1.019c0.057,0.312,0.17,0.651,0.369,0.963
	L427.451,308.756z M316.553,212.552c-0.029,0-0.085-0.028-0.142-0.057l-3.284-1.5l-6.597,14.439l-9.23,20.157l11.637,5.324
	c0.991-3.03,4.869-4.134,7.502-2.492l0.51,0.312c0.509-0.369,1.076-0.623,1.67-0.793c0.679-0.17,1.359-0.227,2.039-0.142
	c0.679,0.114,1.33,0.312,1.926,0.68l13.589,7.813c0.594,0.369,1.104,0.821,1.529,1.359c0.396,0.538,0.707,1.161,0.877,1.812
	c0.199,0.679,0.227,1.359,0.142,2.039c-0.085,0.679-0.312,1.33-0.651,1.926l-0.368,0.651l7.757,3.539l0.029,0.028l21.489,9.825
	c0.028,0.028,0.085,0.028,0.113,0.056l52.774,24.179l5.153,2.35c0.113-0.199,0.227-0.369,0.369-0.538
	c0.368-0.481,0.849-0.877,1.386-1.189l6.427-3.54l12.202-21.148l2.775-4.813l-16.222-7.446c-0.028,0-0.057-0.029-0.085-0.029
	L316.553,212.552z M433.141,263.74l16.026,7.362l1.047-1.813l-18.742-10.843L433.141,263.74z M318.28,250.235
	c-0.227,0.142-0.453,0.341-0.651,0.538c-0.199,0.283-0.566,0.424-0.935,0.368c-0.396-0.085-0.679-0.368-0.792-0.707l-0.509-0.312
	c-1.218-0.765-2.747-0.594-3.794,0.312l-0.028,0.028l-0.029,0.028l-0.028,0.029h-0.028l-0.029,0.028l-0.028,0.028
	c-0.453,0.481-0.736,1.02-0.679,1.728v0.028c0.028,0.34,0.141,0.679,0.34,0.991l4.728,7.191c0.141,0.198,0.312,0.34,0.481,0.509
	l0.056,0.029c0.227,0.198,0.453,0.34,0.68,0.48l0.283,0.171c0.057,0.028,0.113,0.056,0.17,0.085l6.144,3.539
	c0.029,0.028,0.057,0.057,0.085,0.085l3.907,2.236c2.888,1.671,5.577,0.227,7.078-2.349l0.736-1.274l0.906-1.585
	c0.424-0.765,0.537-1.614,0.312-2.464c-0.114-0.396-0.284-0.792-0.538-1.132c-0.255-0.312-0.594-0.595-0.934-0.821l-13.59-7.842
	c-0.141-0.085-0.283-0.142-0.452-0.199h-0.028l-0.057-0.028l-0.029-0.029h-0.056l-0.029-0.028h-0.085
	c-0.566-0.17-1.132-0.17-1.698-0.028c-0.312,0.085-0.594,0.198-0.85,0.368L318.28,250.235L318.28,250.235z M123.917,267.732h-17.836
	c-1.245,0-2.491-0.255-3.624-0.707c-1.133-0.481-2.18-1.19-3.086-2.067c-0.878-0.877-1.585-1.925-2.038-3.085
	c-0.481-1.133-0.736-2.35-0.736-3.625v-16.392l-4.643-4.671c-0.396-0.369-0.396-1.02,0-1.387l4.955-4.955
	c0.368-0.369,1.019-0.369,1.387,0l2.038,2.039c0.679-0.538,1.444-0.963,2.265-1.274c1.104-0.452,2.264-0.679,3.482-0.679h17.836
	c1.218,0,2.407,0.227,3.511,0.679l0.057,0.029c0.793,0.311,1.529,0.736,2.18,1.245l13.108-13.08c0.369-0.397,1.02-0.397,1.416,0
	l4.926,4.926c0.397,0.397,0.397,1.02,0,1.415l-15.713,15.714v16.392c0,1.274-0.256,2.492-0.708,3.625
	c-0.481,1.161-1.19,2.208-2.066,3.085l-0.057,0.057c-0.878,0.849-1.897,1.529-3.029,2.011
	C126.409,267.477,125.192,267.732,123.917,267.732z M106.081,265.75h17.836c1.02,0,1.983-0.198,2.888-0.566
	c0.878-0.368,1.67-0.906,2.378-1.585l0.028-0.057c0.708-0.708,1.274-1.529,1.642-2.406c0.369-0.906,0.566-1.869,0.566-2.888v-14.41
	l-13.25,13.222c-1.925,1.954-4.558,1.613-6.341,0l-13.222-13.222v14.41c0,1.02,0.198,1.983,0.566,2.888
	c0.368,0.877,0.906,1.698,1.613,2.406c0.708,0.708,1.529,1.274,2.435,1.642C104.099,265.553,105.09,265.75,106.081,265.75z
	 M412.785,226.086l-12.881-0.142c-0.142,0.906-0.424,1.812-0.821,2.662l-0.029,0.085c-0.537,1.161-1.273,2.208-2.179,3.114
	c-1.048,1.048-2.265,1.84-3.568,2.378c-1.33,0.566-2.747,0.849-4.19,0.849c-1.472,0-2.888-0.283-4.219-0.849
	c-1.302-0.538-2.52-1.33-3.568-2.378c-0.934-0.935-1.67-2.011-2.236-3.228c-0.397-0.906-0.679-1.869-0.849-2.887l-13.675-0.142
	c-1.019,0-2.039,0.199-2.944,0.623c-0.877,0.424-1.698,1.048-2.349,1.869c-0.284,0.34-0.51,0.707-0.736,1.076
	c-0.057,0.142-0.114,0.255-0.171,0.397l72.309,33.125l-1.755-5.662l-15.798-9.117C404.717,243.016,404.772,231.04,412.785,226.086z
	 M114.518,256.323c0.453,0.085,0.935,0.085,1.359-0.085h0.028l0.029-0.029h0.028l0.028-0.028h0.029l0.028-0.028h0.028l0.029-0.029
	h0.028v-0.028h0.029l0.028-0.028h0.028l0.029-0.029h0.028v-0.028h0.057v-0.028h0.028v-0.029h0.028l0.029-0.028h0.028v-0.028h0.028
	v-0.029h0.029l0.028-0.028h0.028v-0.029h0.029l0.028-0.028h0.028v-0.028h0.029v-0.029h0.028V255.7h0.028v-0.028h0.029l0.028-0.029
	l30.209-30.208l-3.511-3.54l-27.774,27.774c-0.396,0.397-1.019,0.397-1.415,0l-16.705-16.704l-3.511,3.511l4.191,4.218h0.028
	l0.028,0.057l14.921,14.921c0.17,0.141,0.34,0.255,0.509,0.368h0.028l0.085,0.057h0.029l0.028,0.028h0.028l0.029,0.029h0.057v0.028
	h0.056l0.029,0.028h0.056l0.029,0.029h0.056v0.028h0.085l0.029,0.028h0.085v0.029h0.055V256.323z M276.944,254.851H158.827
	c-0.538,0-0.991-0.453-0.991-1.02v-9.003c0-0.538,0.452-0.991,0.991-0.991h118.117c0.538,0,0.991,0.452,0.991,0.991v9.003
	C277.935,254.397,277.482,254.85,276.944,254.851z M275.953,245.819H159.846v7.021h116.108L275.953,245.819L275.953,245.819z
	 M123.917,232.937h-17.836c-0.963,0-1.897,0.17-2.746,0.509c-0.566,0.227-1.077,0.509-1.586,0.849l13.25,13.25l13.25-13.25
	c-0.452-0.34-0.962-0.594-1.5-0.821l-0.057-0.028C125.815,233.107,124.88,232.937,123.917,232.937z M311.145,210.571l-28.313-2.011
	l-2.236,4.87l-4.955,10.815l20.045,20.102l13.987-30.577L311.145,210.571z M398.092,200.095c0-0.566,0.424-0.991,0.991-0.991h6.766
	c1.586,0,3.03-0.651,4.077-1.699c1.048-1.02,1.671-2.463,1.671-4.049c0-1.443-0.517-2.751-1.365-3.761l-0.02-0.023
	c-0.021-0.021-0.04-0.043-0.059-0.066l-0.283-0.283c-0.51-0.51-1.133-0.906-1.813-1.19c-0.679-0.283-1.443-0.424-2.208-0.424h-6.766
	c-0.255,0-0.481-0.114-0.651-0.255c-1.048-0.736-10.617-8.012-9.003-26.019c-4.983,4.672-18.46,14.949-36.607,9.513v7.701
	l-0.001,0.025c0-0.007,0.001-0.016,0.001-0.025v16.279c0,5.182,2.094,9.909,5.52,13.307c3.398,3.426,8.125,5.521,13.335,5.521h7.446
	c0.567,0,0.992,0.452,0.992,1.019v9.372l0.028,0.594c0.085,1.105,0.34,2.151,0.793,3.114c0.424,0.991,1.047,1.869,1.812,2.662
	c0.849,0.821,1.84,1.5,2.915,1.925c1.077,0.453,2.237,0.68,3.455,0.68c1.189,0,2.349-0.227,3.426-0.68
	c1.076-0.424,2.066-1.104,2.915-1.925c0.736-0.765,1.331-1.614,1.784-2.577l0.028-0.057c0.425-0.906,0.78-3.047,0.787-3.071
	c0.019-0.222,0.035-0.435,0.035-0.665v-23.952H398.092z M280.709,208.39l-22.395-1.585l15.827,15.911L280.709,208.39z
	 M123.917,210.684h-17.836c-1.245,0-2.491-0.255-3.624-0.736c-1.133-0.481-2.18-1.161-3.086-2.039
	c-0.878-0.906-1.585-1.954-2.038-3.085c-0.481-1.162-0.736-2.379-0.736-3.625v-16.421l-4.643-4.643
	c-0.396-0.396-0.396-1.019,0-1.415l4.955-4.926c0.368-0.397,1.019-0.397,1.387,0l2.038,2.01c0.708-0.509,1.444-0.934,2.265-1.273
	c1.104-0.424,2.264-0.651,3.482-0.651h17.836c1.218,0,2.407,0.227,3.511,0.651l0.057,0.028c0.793,0.34,1.529,0.736,2.18,1.245
	l13.108-13.08c0.369-0.397,1.02-0.397,1.416,0l4.926,4.927c0.397,0.396,0.397,1.047,0,1.415l-15.713,15.713V201.2
	c0,1.245-0.256,2.463-0.708,3.625c-0.481,1.132-1.19,2.179-2.066,3.085c-0.878,0.878-1.926,1.557-3.086,2.039
	C126.409,210.429,125.192,210.684,123.917,210.684z M106.081,208.674h17.836c1.02,0,1.983-0.199,2.888-0.566
	c0.878-0.369,1.699-0.906,2.406-1.614c0.708-0.708,1.274-1.529,1.642-2.435c0.369-0.906,0.566-1.869,0.566-2.86v-14.41
	l-13.25,13.222c-1.925,1.925-4.558,1.585-6.341,0l-13.222-13.222v14.41c0,0.991,0.198,1.954,0.566,2.86
	c0.368,0.906,0.906,1.727,1.613,2.435c0.708,0.708,1.529,1.245,2.435,1.614C104.099,208.475,105.09,208.674,106.081,208.674z
	 M403.98,201.086h-3.907v5.011c0.283-0.255,0.622-0.623,1.019-1.048C401.97,204.088,402.933,202.728,403.98,201.086z
	 M372.356,201.765c-0.17-0.537,0.141-1.076,0.679-1.245c0.509-0.142,1.019,0.142,1.218,0.622c0.34,0.765,0.878,1.387,1.557,1.841
	c0.708,0.424,1.529,0.679,2.378,0.679s1.67-0.255,2.378-0.679c0.679-0.453,1.245-1.105,1.585-1.897
	c0.057-0.142,0.171-0.284,0.284-0.369l0.028-0.028c0.34-0.255,0.821-0.284,1.19,0c0.368,0.255,0.509,0.708,0.368,1.133l-0.056,0.085
	c-0.481,1.133-1.302,2.066-2.322,2.746c-1.019,0.651-2.208,1.02-3.454,1.02s-2.435-0.369-3.454-1.02
	c-0.991-0.651-1.812-1.585-2.322-2.718C372.384,201.878,372.356,201.822,372.356,201.765z M114.518,199.245
	c0.453,0.114,0.935,0.085,1.359-0.085c0.34-0.113,0.736-0.452,0.906-0.566l30.209-30.237l-3.511-3.511l-27.774,27.746
	c-0.396,0.397-1.019,0.397-1.415,0L99.569,177.87l-1.982-1.983l-3.511,3.54l4.191,4.218h0.028l14.949,14.949
	c0.17,0.17,0.368,0.284,0.566,0.397l0.028,0.028h0.057v0.029h0.028l0.028,0.028h0.029l0.057,0.029h0.028l0.028,0.028h0.029
	l0.028,0.028h0.057l0.028,0.029h0.057l0.028,0.028h0.085l0.028,0.028h0.085V199.245z M276.944,197.773H158.827
	c-0.538,0-0.991-0.452-0.991-0.991v-9.003c0-0.566,0.452-1.02,0.991-1.02h118.117c0.538,0,0.991,0.453,0.991,1.02v9.003
	C277.935,197.321,277.482,197.773,276.944,197.773z M275.953,188.77H159.846v7.021h116.108L275.953,188.77L275.953,188.77z
	 M123.917,175.86h-17.836c-0.963,0-1.897,0.199-2.746,0.538c-0.566,0.198-1.077,0.481-1.586,0.849l13.25,13.25l13.25-13.25
	c-0.452-0.34-0.962-0.623-1.5-0.821l-0.057-0.028C125.815,176.059,124.88,175.86,123.917,175.86z M405.848,185.599
	c1.049,0,2.04,0.199,2.973,0.595c0.594,0.226,1.133,0.565,1.642,0.934c1.642-4.841,2.86-10.079,3.142-15.176
	c0.284-4.614-0.255-9.116-1.925-13.023c-3.398-8.012-9.909-6.031-9.909-6.031l-0.057,0.028c-0.538,0.114-1.076-0.226-1.19-0.764
	c-0.028-0.057-3.567-16.987-27.463-11.239c-22.48,5.407-28.481,24.716-29.246,27.603c2.18,3.85,5.21,6.625,6.993,8.069v-7.106h0.028
	c0-0.085,0-0.198,0.029-0.312c0.17-0.509,0.736-0.792,1.273-0.622c21.942,7.389,37.004-9.683,37.825-10.617
	c0.227-0.284,0.566-0.453,0.935-0.396c0.565,0.085,0.934,0.594,0.849,1.133c-2.718,18.288,6.086,25.763,7.644,26.924H405.848z
	 M209.42,132.684c-0.199,0.283-0.369,0.594-0.509,0.934c-0.51,1.048-0.765,2.208-0.765,3.426c0,2.236,0.906,4.247,2.35,5.719
	c1.472,1.444,3.483,2.35,5.719,2.35c2.208,0,4.247-0.906,5.691-2.35c1.472-1.472,2.378-3.483,2.378-5.719
	c0-1.218-0.284-2.378-0.765-3.426c-0.17-0.34-0.34-0.651-0.537-0.963v0.51l-0.029,0.028v0.198l-0.028,0.057v0.142l-0.028,0.057v0.17
	h-0.029v0.113l-0.028,0.028v0.114l-0.028,0.028v0.113h-0.029v0.085l-0.028,0.029v0.085l-0.028,0.028v0.085h-0.029v0.057
	l-0.028,0.028v0.085h-0.028v0.085l-0.029,0.029v0.056l-0.028,0.029v0.028l-0.028,0.057v0.028l-0.029,0.029v0.056l-0.028,0.029v0.056
	l-0.029,0.029c-0.34,0.821-0.849,1.557-1.472,2.208c-0.622,0.594-1.33,1.104-2.151,1.443h-0.057
	c-0.793,0.34-1.698,0.538-2.576,0.538c-0.906,0-1.784-0.199-2.605-0.538c-0.821-0.34-1.557-0.821-2.208-1.443
	c-0.623-0.651-1.105-1.387-1.444-2.208l-0.028-0.057v-0.028l-0.028-0.029l-0.029-0.056v-0.029l-0.028-0.028v-0.057l-0.028-0.028
	v-0.085h-0.029v-0.057l-0.028-0.028v-0.085h-0.028v-0.057l-0.029-0.028v-0.085l-0.028-0.029v-0.056l-0.028-0.029v-0.113h-0.029
	v-0.114h-0.028v-0.113l-0.029-0.028v-0.114l-0.028-0.028v-0.113l-0.028-0.057v-0.17l-0.029-0.029v-0.198h-0.028v-0.368l-0.028-0.029
	L209.42,132.684L209.42,132.684z M160.185,132.655c-0.198,0.312-0.368,0.623-0.537,0.963c-0.481,1.048-0.765,2.208-0.765,3.426
	c0,2.236,0.906,4.247,2.378,5.719c1.444,1.444,3.483,2.35,5.691,2.35c2.236,0,4.247-0.906,5.719-2.35
	c1.444-1.472,2.35-3.483,2.35-5.719c0-1.218-0.255-2.378-0.765-3.426c-0.141-0.34-0.311-0.651-0.509-0.934v0.227l-0.028,0.028v0.34
	l-0.028,0.028v0.17l-0.029,0.085v0.114l-0.028,0.057v0.113l-0.029,0.028v0.142l-0.028,0.028v0.085l-0.028,0.029v0.085l-0.029,0.028
	v0.085l-0.028,0.029v0.085h-0.028v0.085l-0.029,0.028v0.085h-0.028v0.057l-0.028,0.028v0.057l-0.029,0.056v0.029l-0.028,0.028v0.057
	l-0.028,0.028v0.057l-0.029,0.028v0.029l-0.028,0.028v0.028l-0.028,0.029c-0.341,0.821-0.821,1.557-1.444,2.208
	c-0.623,0.594-1.358,1.104-2.151,1.443h-0.057c-0.821,0.34-1.699,0.538-2.605,0.538c-0.878,0-1.755-0.199-2.576-0.538
	c-0.822-0.34-1.586-0.821-2.208-1.443c-0.623-0.623-1.105-1.359-1.444-2.152l-0.029-0.056v-0.057l-0.028-0.028l-0.028-0.029v-0.056
	l-0.029-0.029v-0.028l-0.028-0.057v-0.028l-0.028-0.029v-0.085h-0.029v-0.085h-0.028v-0.085l-0.028-0.028v-0.057l-0.029-0.028
	v-0.085l-0.028-0.028v-0.057l-0.028-0.029v-0.085l-0.029-0.028v-0.113l-0.028-0.029v-0.085l-0.028-0.028v-0.142l-0.029-0.028v-0.113
	l-0.028-0.057v-0.142l-0.028-0.057v-0.255l-0.029-0.028L160.185,132.655L160.185,132.655z M110.922,132.655
	c-0.17,0.312-0.34,0.595-0.509,0.906v0.057c-0.509,1.048-0.764,2.208-0.764,3.426c0,2.236,0.906,4.247,2.35,5.719
	c1.472,1.444,3.482,2.35,5.719,2.35c2.208,0,4.247-0.906,5.69-2.35c1.472-1.472,2.378-3.483,2.378-5.719
	c0-1.218-0.283-2.378-0.764-3.426c-0.17-0.34-0.34-0.651-0.538-0.963v0.453l-0.028,0.028v0.255l-0.028,0.057v0.142l-0.029,0.057
	v0.113l-0.028,0.057v0.113l-0.028,0.028v0.085l-0.029,0.029v0.113l-0.028,0.028v0.085l-0.028,0.029v0.057l-0.029,0.028v0.113h-0.028
	v0.057l-0.028,0.028v0.085h-0.029v0.085h-0.028v0.085l-0.028,0.029v0.028l-0.029,0.057v0.028l-0.028,0.029v0.056l-0.029,0.029v0.028
	l-0.028,0.028v0.029c-0.34,0.821-0.849,1.557-1.472,2.208c-0.622,0.594-1.358,1.104-2.151,1.443h-0.057
	c-0.793,0.34-1.699,0.538-2.576,0.538c-0.907,0-1.784-0.199-2.605-0.538c-0.821-0.34-1.557-0.821-2.208-1.443
	c-0.595-0.623-1.105-1.359-1.444-2.152v-0.056l-0.028-0.029v-0.028l-0.029-0.028v-0.029l-0.028-0.028v-0.057l-0.028-0.028v-0.057
	l-0.029-0.028v-0.029l-0.028-0.056v-0.057l-0.028-0.028v-0.057h-0.029v-0.085l-0.028-0.028v-0.085h-0.028v-0.085l-0.029-0.029
	v-0.085l-0.028-0.028v-0.085l-0.028-0.029v-0.085l-0.029-0.028v-0.142l-0.028-0.028v-0.113l-0.029-0.057v-0.114l-0.028-0.028v-0.227
	l-0.028-0.028v-0.34l-0.029-0.028C110.922,132.91,110.922,132.655,110.922,132.655z M258.683,132.655
	c-0.199,0.312-0.369,0.623-0.538,0.963c-0.481,1.048-0.764,2.208-0.764,3.426c0,2.236,0.906,4.247,2.378,5.719
	c1.443,1.444,3.482,2.35,5.69,2.35c2.237,0,4.247-0.906,5.719-2.35c1.444-1.472,2.35-3.483,2.35-5.719
	c0-1.218-0.255-2.378-0.736-3.426c-0.17-0.34-0.34-0.651-0.537-0.963v0.312l-0.029,0.029v0.311l-0.028,0.057v0.17l-0.029,0.028
	v0.171l-0.028,0.028v0.113l-0.028,0.029v0.113l-0.029,0.028v0.085l-0.028,0.029v0.085l-0.028,0.028v0.085l-0.029,0.029v0.085
	l-0.028,0.028v0.057l-0.028,0.028v0.085h-0.029v0.085l-0.028,0.028v0.029l-0.028,0.056v0.029l-0.029,0.028v0.057l-0.028,0.028v0.057
	l-0.028,0.028v0.029l-0.029,0.028v0.057c-0.34,0.821-0.849,1.557-1.472,2.208c-0.622,0.594-1.358,1.104-2.151,1.443h-0.057
	c-0.821,0.34-1.699,0.538-2.605,0.538c-0.877,0-1.755-0.199-2.576-0.538c-0.821-0.34-1.586-0.821-2.208-1.443
	c-0.623-0.623-1.105-1.359-1.444-2.152l-0.028-0.056v-0.057l-0.029-0.028v-0.029h-0.028v-0.056l-0.028-0.029v-0.028l-0.029-0.029
	v-0.085h-0.028v-0.085h-0.028v-0.085l-0.029-0.028v-0.057l-0.028-0.028v-0.057l-0.028-0.028v-0.085l-0.029-0.028v-0.057
	l-0.028-0.029v-0.085l-0.028-0.028v-0.113l-0.029-0.029v-0.085l-0.028-0.028v-0.113l-0.028-0.057v-0.113l-0.029-0.057v-0.142
	l-0.028-0.057v-0.283h-0.028L258.683,132.655L258.683,132.655z M265.332,87.358c-0.583,0.014-1.164,0.127-1.695,0.339
	c-0.594,0.255-1.104,0.595-1.557,1.048c-0.452,0.453-0.821,0.991-1.048,1.557c-0.226,0.566-0.368,1.19-0.368,1.841V132.6
	c0,0.651,0.142,1.273,0.368,1.84l0.029,0.029c0.226,0.566,0.566,1.076,1.019,1.528c0.453,0.453,0.963,0.793,1.557,1.02
	c0.566,0.255,1.19,0.368,1.812,0.368c0.651,0,1.274-0.113,1.841-0.368h0.057c0.537-0.255,1.047-0.595,1.5-1.02
	c0.453-0.452,0.793-0.991,1.048-1.557c0.227-0.566,0.34-1.189,0.34-1.84V92.142c0-0.651-0.113-1.274-0.34-1.841
	c-0.255-0.566-0.594-1.104-1.048-1.557c-0.453-0.452-0.991-0.793-1.557-1.048c-0.566-0.227-1.19-0.34-1.841-0.34L265.332,87.358z
	 M166.835,87.358c-0.583,0.014-1.166,0.127-1.723,0.339c-0.566,0.255-1.077,0.595-1.529,1.048c-0.453,0.453-0.821,0.991-1.048,1.557
	s-0.368,1.19-0.368,1.841V132.6c0,0.651,0.141,1.273,0.368,1.84l0.028,0.029c0.227,0.566,0.566,1.076,1.02,1.528
	c0.452,0.453,0.963,0.793,1.557,1.02c0.566,0.255,1.189,0.368,1.812,0.368c0.651,0,1.274-0.113,1.841-0.368h0.056
	c0.538-0.255,1.048-0.595,1.501-1.02c0.452-0.452,0.792-0.991,1.019-1.557c0.255-0.566,0.369-1.189,0.369-1.84V92.142
	c0-0.651-0.114-1.274-0.369-1.841c-0.227-0.566-0.566-1.104-1.019-1.557c-0.453-0.452-0.991-0.793-1.557-1.048
	c-0.566-0.227-1.19-0.34-1.841-0.34L166.835,87.358z M117.596,87.358c-0.607,0.014-1.188,0.127-1.719,0.339
	c-0.566,0.255-1.104,0.595-1.557,1.048c-0.453,0.453-0.793,0.991-1.019,1.557c-0.256,0.566-0.369,1.19-0.369,1.841V132.6
	c0,0.651,0.113,1.273,0.369,1.84v0.029c0.255,0.566,0.594,1.076,1.019,1.528c0.453,0.453,0.991,0.793,1.557,1.02
	c0.566,0.255,1.19,0.368,1.841,0.368c0.622,0,1.245-0.113,1.812-0.368h0.056c0.566-0.255,1.077-0.595,1.501-1.02
	c0.452-0.452,0.821-0.991,1.048-1.557c0.226-0.566,0.368-1.189,0.368-1.84V92.142c0-0.651-0.142-1.274-0.368-1.841
	c-0.227-0.566-0.595-1.104-1.048-1.557c-0.453-0.452-0.963-0.793-1.529-1.048c-0.594-0.227-1.218-0.34-1.84-0.34L117.596,87.358z
	 M216.093,87.358c-0.607,0.014-1.188,0.127-1.719,0.339c-0.566,0.255-1.104,0.595-1.557,1.048c-0.452,0.453-0.792,0.991-1.019,1.557
	c-0.255,0.566-0.369,1.19-0.369,1.841V132.6c0,0.651,0.114,1.273,0.369,1.84c0.227,0.566,0.566,1.105,1.019,1.557
	c0.453,0.453,0.991,0.793,1.557,1.02c0.566,0.255,1.19,0.368,1.841,0.368c0.623,0,1.245-0.113,1.812-0.368h0.057
	c0.566-0.255,1.076-0.595,1.5-1.02c0.453-0.452,0.821-0.991,1.048-1.557S221,133.251,221,132.6V92.142
	c0-0.651-0.141-1.274-0.368-1.841c-0.227-0.566-0.594-1.104-1.048-1.557c-0.452-0.452-0.963-0.793-1.529-1.048
	c-0.594-0.227-1.217-0.34-1.84-0.34L216.093,87.358z"></path>
</svg>