<?xml version="1.0" standalone="no"?>
<svg version="1.1" id="Layer_1_99_" xmlns="http://www.w3.org/2000/svg" xmlns:xlink="http://www.w3.org/1999/xlink" x="0px" y="0px" viewBox="0 0 595.276 595.276" enable-background="new 0 0 595.276 595.276" xml:space="preserve">
<path id="color_x5F_7" fill-rule="evenodd" clip-rule="evenodd" fill="#2563eb" d="M367.609,477.541
	c9.873,0,17.865,7.992,17.865,17.865c0,9.873-7.992,17.865-17.865,17.865c-9.872,0-17.865-7.992-17.865-17.865
	S357.737,477.541,367.609,477.541z M444.431,406.989c0.522,0.008,1.046,0.027,1.57,0.058c2.399,0.143,4.818,0.526,7.23,1.171
	c19.291,5.157,30.762,24.994,25.604,44.286c-5.158,19.291-24.996,30.759-44.286,25.602c-19.292-5.157-30.761-24.994-25.604-44.284
	C413.316,417.468,428.237,406.737,444.431,406.989L444.431,406.989z M431.644,424.855c-0.19,0.007-0.38,0.022-0.567,0.047
	c-0.752,0.1-1.484,0.347-2.153,0.733c-1.34,0.775-2.318,2.051-2.718,3.545c-1.319,4.935-3.298,12.341-4.617,17.276
	c-0.4,1.495-0.189,3.087,0.585,4.427s2.049,2.315,3.545,2.716c7.474,1.998,21.24,5.678,28.713,7.676
	c1.495,0.4,3.088,0.189,4.429-0.585c1.338-0.774,2.315-2.049,2.715-3.545c1.319-4.935,3.3-12.34,4.619-17.276
	c0.401-1.494,0.19-3.086-0.585-4.426c-0.774-1.339-2.051-2.318-3.544-2.718c-7.474-1.998-21.241-5.678-28.715-7.676
	C432.789,424.898,432.214,424.835,431.644,424.855L431.644,424.855L431.644,424.855z M240.129,405.127h28.639
	c-0.58,0.595-0.942,1.404-0.942,2.296v21.189c0,0.892,0.362,1.7,0.942,2.294H256.34c1.484-2.762,3.319-6.176,4.362-8.117
	c0.012-0.023,0.022-0.044,0.033-0.067h2.12c0.431,0,0.844-0.183,1.142-0.497c0.299-0.314,0.46-0.732,0.46-1.167v-6.234
	c0-0.434-0.162-0.852-0.458-1.167c-0.001,0-0.001-0.001-0.002-0.002c-0.298-0.313-0.709-0.495-1.142-0.495H255.8
	c-2.237-1.202-4.598-2.472-6.471-3.478c0,0-0.001,0-0.002,0c-0.561-0.302-1.156-0.479-1.756-0.54
	c-1.798-0.184-3.621,0.673-4.585,2.323l-0.991,1.695h-5.646c-0.185,0-0.362,0.03-0.54,0.055v-3.765c0-1.146,0.455-2.246,1.266-3.056
	C237.885,405.583,238.983,405.127,240.129,405.127L240.129,405.127L240.129,405.127z M295.359,422.782h-16.945v-6.428h8.066v-0.999
	h-8.066v-6.425h16.945c0.394,0,0.772,0.157,1.05,0.434c0.278,0.279,0.433,0.655,0.433,1.048V421.3c0,0.393-0.156,0.769-0.433,1.047
	C296.131,422.625,295.752,422.782,295.359,422.782z M508.728,334.201v7.149c-12.188,9.07-27.285,14.445-43.634,14.445
	c-13.684,0-26.491-3.768-37.45-10.314v-9.338h23.498c0.598,2.233,1.21,4.517,1.777,6.632c0.879,3.283,4.267,5.239,7.548,4.359
	C472.454,343.922,492.188,338.632,508.728,334.201L508.728,334.201z M438.47,245.452h14.648c-0.503,2.996,0.371,5.748,2.265,7.751
	c2.025,2.138,5.163,3.433,8.909,3.433c7.34,0,14.423-4.903,16.107-11.183h23.908c-6.16,2.534-9.646,9.314-7.876,15.917
	c0.125,0.468,0.274,0.925,0.444,1.369l9.268,28.471l2.595,7.968h-0.01v11.138l-39.126,12.028l-4.838-14.677h18.217
	c0.883,0,1.732-0.352,2.356-0.975c0.623-0.625,0.976-1.473,0.976-2.357v-33.299c0-0.883-0.353-1.732-0.976-2.356
	c-0.624-0.623-1.473-0.976-2.356-0.976h-38.674c-1.833,0-3.332,1.498-3.332,3.332v8.133h-13.332v-22.892
	c0-2.873,1.141-5.625,3.17-7.655C432.845,246.592,435.599,245.452,438.47,245.452L438.47,245.452L438.47,245.452z M171.929,299.246
	c0.364-0.036,0.73,0.077,1.017,0.323c0.38,0.328,0.548,0.836,0.438,1.324c-1.148,5.119-3.306,14.746-4.454,19.865
	c-0.11,0.489-0.479,0.877-0.964,1.01c-0.483,0.134-0.999-0.011-1.343-0.377c-2.49-2.633-6.264-6.623-8.031-8.492
	c-0.496-0.524-0.7-1.261-0.542-1.966c0.359-1.598,0.944-4.207,1.302-5.804c0.158-0.704,0.655-1.283,1.326-1.547l0.002-0.002
	c2.397-0.934,7.515-2.931,10.89-4.249C171.687,299.287,171.808,299.258,171.929,299.246L171.929,299.246L171.929,299.246z
	 M128.021,287.733c0.24,0.005,0.483,0.033,0.726,0.088l23.105,5.182c1.944,0.435,3.16,2.357,2.725,4.301l-4.186,18.667
	c-0.436,1.944-2.358,3.161-4.302,2.725l-23.105-5.183c-1.944-0.435-3.16-2.355-2.725-4.3l4.186-18.666
	c0.328-1.459,1.489-2.508,2.87-2.757C127.546,287.748,127.782,287.729,128.021,287.733L128.021,287.733z M202.676,97.285
	L202.676,97.285L202.676,97.285L202.676,97.285c26.007,11.234,44.233,37.114,44.233,67.229c0,26.406-14.008,49.557-34.99,62.434
	l-1.652-8.068c-0.002-0.022-0.813-10.03-1.527-18.841c0.595,0.739,1.275,1.415,2.048,2c2.859,2.162,6.548,2.899,10.018,2.004
	c0.171-0.044,0.341-0.087,0.51-0.131c6.113-1.578,9.887-7.722,8.532-13.887c-2.96-13.465-7.861-35.76-9.31-42.346
	c-0.292-1.329-1.474-2.281-2.835-2.281h-0.938l2.466-15.537c0.24-1.511-0.877-2.845-2.398-2.845h-12.129
	c0.198-1.068,0.394-2.118,0.567-3.055c0.687-3.701-0.072-7.521-2.102-10.688c-0.013-0.032-0.03-0.063-0.049-0.091
	c-1.392-2.137-1.967-4.704-1.623-7.232L202.676,97.285L202.676,97.285z M146.708,96.472c-0.479,1.425-1.049,3.114-1.437,4.27
	c-0.908,2.696-2.613,5.053-4.889,6.758c-4.877,3.656-8.32,8.907-9.726,14.839c-0.834,3.52-1.782,7.523-2.6,10.976
	c-4.423,3.172-6.668,8.854-5.178,14.415l10.84,40.455l1.459,5.444v25.256l-1.615,6.823c-19.902-13.089-33.059-35.609-33.059-61.194
	C100.503,133.643,119.655,107.227,146.708,96.472z M313.537,92.769c0.487-0.009,0.973,0.029,1.451,0.113
	c1.914,0.336,3.7,1.403,4.908,3.123l2.068,2.945c0.094,0.134,0.247,0.214,0.409,0.214c0.103,0,0.203-0.031,0.287-0.091l2.946-2.069
	c3.439-2.415,8.169-1.585,10.584,1.854l-0.002-0.006c0.001,0,0.015,0.011,0.018,0.013l-0.014-0.005
	c2.415,3.439,1.585,8.169-1.853,10.582c-2.203,1.547-8.635,6.065-12.702,8.919c-0.821,0.576-1.837,0.8-2.825,0.628
	c-0.986-0.174-1.864-0.73-2.439-1.549c0-0.001,0-0.001,0-0.002c-2.855-4.066-7.37-10.499-8.916-12.702
	c-2.415-3.44-1.589-8.169,1.851-10.582c0.001-0.001,0.003-0.002,0.004-0.002C310.602,93.248,312.074,92.796,313.537,92.769
	L313.537,92.769L313.537,92.769z"></path>
<path id="color_x5F_6" fill-rule="evenodd" clip-rule="evenodd" fill="#000000" d="M244.578,452.798
	c2.791,3.38,10.809,13.089,10.809,13.089c0.095,0.115,0.236,0.182,0.385,0.182c0.117,0,0.23-0.041,0.32-0.115l30.305-25.079
	l14.488,13.195c-0.455,0.43-20.555,19.436-34.568,32.687c-6.962,6.583-17.899,6.382-24.614-0.452
	c-5.003-5.093-9.342-9.509-9.674-9.848C232.028,476.457,239.419,462.398,244.578,452.798L244.578,452.798z M184.375,439.258
	c7.893,6.739,28.555,24.382,28.555,24.382c0.09,0.077,0.205,0.119,0.324,0.119c0.177,0,0.342-0.094,0.431-0.248l19.398-33.147
	l17.855,8.482c-10.774,20.051-25.21,46.92-25.21,46.92c-2.83,5.268-9.393,7.24-14.659,4.411c-0.575-0.309-1.109-0.661-1.604-1.052
	c-0.002-0.002-0.004-0.004-0.006-0.006c0,0-32.268-24.726-40.417-30.97c-3.364-2.577-5.14-6.718-4.686-10.93
	c0-0.001,0-0.002,0-0.002c0.483-4.493,3.414-8.345,7.612-10.014c1.05-0.417,2.135-0.681,3.227-0.795
	c0.41-0.044,0.819-0.065,1.229-0.067l0,0C179.29,436.331,182.12,437.333,184.375,439.258L184.375,439.258z M89.02,323.648
	c14.977-0.32,28.833,9.523,32.966,24.624c4.875,17.814-5.624,36.224-23.439,41.099c-17.814,4.875-36.224-5.623-41.099-23.439
	c-4.875-17.814,5.623-36.223,23.438-41.098c2.226-0.609,4.464-0.98,6.681-1.124C88.052,323.679,88.537,323.658,89.02,323.648
	L89.02,323.648z M95.534,343.052c-1,0.012-2.015,0.15-3.023,0.426c-4.651,1.272-10.051,2.75-14.701,4.022
	c-6.344,1.737-10.091,8.274-8.414,14.621c0.002,0.027,0.006,0.053,0.012,0.08l-0.008-0.065c0.001,0.003,0.001,0.006,0.002,0.009
	l0.004,0.018c0,0.003,0.001,0.006,0.002,0.008c0.006,0.035,0.009,0.058,0.011,0.071c0.001,0.002,0.002,0.004,0.002,0.006
	c0.001,0.002,0.002,0.011,0.002,0.011c0.001,0.001,0.012,0.03,0.008,0.02c1.767,6.347,8.344,10.087,14.705,8.345l11.193-3.062
	l9.992,3.273c0.05,0.017,0.103,0.025,0.156,0.025c0.274,0,0.499-0.226,0.499-0.499c0-0.055-0.009-0.109-0.027-0.161l-2.169-6.389
	c3.146-2.915,4.631-7.396,3.47-11.814c-0.002-0.013-0.022-0.103-0.043-0.172c-1.324-4.754-5.34-8.05-9.95-8.669
	c-0.387-0.051-0.776-0.084-1.169-0.097l0,0c-0.148-0.005-0.296-0.008-0.443-0.007L95.534,343.052L95.534,343.052z M415.233,336.143
	h11.412v8.715C422.555,342.327,418.736,339.405,415.233,336.143z M519.768,331.243c-3.046,3.421-6.408,6.555-10.041,9.356v-6.666
	C513.06,333.04,517.814,331.766,519.768,331.243z M509.727,302.217l2.306,7.083l-2.306,0.708V302.217L509.727,302.217z
	 M482.62,211.517c31.945,7.864,55.678,36.709,55.678,71.075c0,7.048-1.012,13.861-2.874,20.313l-5.026-18.757
	c-0.001-0.008-0.003-0.015-0.006-0.023c-3.986-14.874-7.964-29.724-7.964-29.724c-1.681-6.273-7.55-10.325-13.794-9.953
	c-0.006,0.001-0.013,0.001-0.019,0.002l-0.014,0.002c-0.006,0.001-0.013,0.002-0.019,0.002H480.5v-0.348l-2.908-23.736
	c2.529-0.529,4.639-2.498,5.207-5.182c0.271-1.278,0.149-2.549-0.273-3.695L482.62,211.517L482.62,211.517z M97.13,244.592
	c9.872,0,17.864,7.992,17.864,17.864c0,9.873-7.992,17.865-17.864,17.865c-9.873,0-17.867-7.992-17.867-17.865
	C79.263,252.585,87.257,244.592,97.13,244.592L97.13,244.592z M397.918,279.169h-5.944c0.227-4.929,0.938-9.731,2.094-14.36
	C395.379,269.699,396.39,273.469,397.918,279.169z M453.181,244.454h-19.114c-0.011,0-0.022,0-0.033,0
	c-5.588,0.376-10.572,4.245-12.1,9.947c-0.127,0.47-0.225,0.941-0.299,1.41l0.004-0.027l-3.197,15.087l-3.221-10.475l4.286-6.398
	c1.215-1.815,0.723-4.287-1.091-5.501c-1.813-1.216-4.286-0.726-5.5,1.089l-0.697,1.04l-1.902-6.182c0,0,0-0.001,0-0.002
	c-0.562-1.827-2.138-3.076-3.93-3.31c-0.543-0.071-1.105-0.034-1.665,0.094c8.046-11.713,19.404-20.972,32.724-26.418l0,0
	c0.51,4.168,0.675,5.518,1.198,9.783c0.396,3.232,2.126,6.153,4.774,8.049c2.646,1.897,5.967,2.601,9.155,1.937
	c0.036-0.008,0.025-0.006,0.062-0.013L453.181,244.454L453.181,244.454z M136.07,219.441h73.294l1.644,8.047
	c-10.928,6.49-23.678,10.23-37.302,10.23c-14.444,0-27.905-4.208-39.253-11.439L136.07,219.441L136.07,219.441z M159.38,130.813
	h-22.802c-0.495-0.026-0.995-0.034-1.496-0.004c-0.893,0.053-1.791,0.197-2.687,0.437c-1.123,0.301-2.163,0.748-3.131,1.294
	c0.764-3.222,1.605-6.775,2.363-9.972c1.352-5.705,4.662-10.754,9.354-14.27c0.008-0.007,0.016-0.014,0.023-0.022
	c0.005-0.004,0.009-0.008,0.014-0.011c0.003-0.003,0.007-0.006,0.01-0.008c2.414-1.824,4.224-4.331,5.189-7.198
	c1.682-4.995,4.455-13.23,6.215-18.459c1.007-2.991,3.146-5.468,5.958-6.904c2.585-1.32,5.304-2.71,5.304-2.71
	c0.022-0.011,0.043-0.023,0.063-0.037c0,0,0.616-0.439,1.56-1.112c3.62-2.579,7.915-3.862,12.224-3.778h-0.001
	c2.586,0.05,5.177,0.591,7.628,1.64c3.511,1.502,7.364,3.15,10.71,4.582c0,0.001,0,0.001,0,0.002
	c4.984,2.133,7.928,7.326,7.196,12.698c-0.851,6.248-1.925,14.124-2.567,18.831c-0.369,2.706,0.257,5.442,1.71,7.75
	c0.013,0.057,0.036,0.111,0.067,0.16c1.934,2.969,2.652,6.569,2.006,10.053c-0.185,0.993-0.39,2.099-0.601,3.238h-4.976
	c-1.521,0-2.879,1.176-3.119,2.687l-0.178,1.112h-11.709v-7.561c0.025,0.004,0.038,0.006,0.063,0.01
	c3.218,0.491,6.497-0.389,9.038-2.425c2.541-2.036,4.114-5.045,4.336-8.293c0.43-6.299,1.034-15.122,1.451-21.22
	c0.286-4.182-2.783-7.858-6.95-8.322c-3.065-0.342-5.976-0.665-5.976-0.665c-0.017-0.002-0.034-0.004-0.051-0.004
	c-0.203-0.002-0.389,0.121-0.466,0.309c-3.633,8.752-10.987,13.307-22.69,13.435c-0.26,0.003-0.474,0.208-0.491,0.466l-0.917,13.407
	L159.38,130.813z"></path>
<path id="color_x5F_5" fill-rule="evenodd" clip-rule="evenodd" fill="#FFD2BB" d="M301.038,427.903
	c0.937-0.013,1.879,0.325,2.616,1.017c2.12,1.991,4.994,4.687,7.335,6.884c2.083,1.956,2.186,5.217,0.232,7.3l-9.63,10.261
	l-14.703-13.392l-0.757-7.708c-0.161-1.635,1.026-3.082,2.661-3.244c1.635-0.161,3.082,1.03,3.242,2.663l0.227,2.292
	c0.025,0.255,0.241,0.45,0.496,0.45c0.132,0,0.259-0.052,0.352-0.144l5.344-5.293C299.169,428.278,300.101,427.916,301.038,427.903
	L301.038,427.903z M259.603,422.723c-2.007,3.735-4.906,9.128-8.191,15.241l-18.028-8.564v-12.274c0-1.612,1.273-2.917,2.964-2.967
	c1.643,0,2.967,1.325,2.967,2.967v3.672c0,1.058,0.868,1.925,1.926,1.925H259.603L259.603,422.723z M209.124,429.157l-0.415,0.277
	c1.614,2.414,1.715,4.44,0.747,5.896c-0.967,1.455-3.14,2.448-6.394,2.448c-6.449,0-14.46-3.998-17.745-8.767l1.46-21.374
	c1.471-0.596,2.756-1.546,3.755-2.747c1.281,0.494,2.722,0.61,4.146,0.228l-0.258-0.965c-3.053,0.818-6.183-0.99-7.001-4.042
	c-0.818-3.053,0.99-6.183,4.042-7.001c0.951-0.255,1.907-0.254,2.802-0.041l0.074-0.311l0.004,0.002
	c0.874-1.438,1.377-3.129,1.377-4.933c0-0.849-0.219-1.636-0.431-2.419c1.041,0.396,2.109,0.751,3.283,0.751
	c3.413,0,6.373-1.829,8.06-4.533c1.721,1.438,3.887,2.37,6.301,2.37c2.586,0,4.903-1.043,6.672-2.661l0,0l0,0l0,0
	c1.17,0.987,2.563,1.712,4.098,2.059c-0.032,0.465-0.927,13.546-1.636,23.929c-0.204,2.971-1.641,5.722-3.964,7.583
	c-2.324,1.862-5.321,2.666-8.264,2.216c-7.336-1.121-12.504-1.91-12.504-1.91l-0.151,0.987c0,0,5.087,0.777,11.443,1.748v11.211
	L209.124,429.157L209.124,429.157z M253.691,413.16h-10.54l0.696-1.19c0.622-1.063,1.685-1.709,2.91-1.844
	c0.703-0.061,1.429,0.077,2.097,0.435C250.254,411.314,252.003,412.254,253.691,413.16L253.691,413.16z M529.561,284.878
	l7.874,29.39c1.548,5.776-1.876,11.711-7.653,13.259c0,0-52.294,14.011-69.575,18.641c-2.76,0.74-5.583-0.889-6.322-3.65
	c-0.831-3.1-1.851-6.91-2.604-9.719c-0.523-1.953,0.585-3.957,2.518-4.55l7.188-2.21c0.21-0.064,0.354-0.259,0.354-0.478
	c0-0.167-0.084-0.323-0.223-0.415l-1.914-1.279c-1.365-0.915-1.729-2.752-0.815-4.116c0.913-1.364,2.751-1.729,4.116-0.816
	l6.595,4.417c0.126,0.084,0.282,0.107,0.425,0.063l43.285-13.306c0.209-0.065,0.353-0.26,0.353-0.477
	c0-0.053-0.009-0.105-0.025-0.155l-5.885-18.084L529.561,284.878L529.561,284.878z M419.948,279.169h-20.996
	c-2.983-11.133-5.856-21.851-7.51-28.027c-0.74-2.76,0.891-5.582,3.652-6.322c3.1-0.83,6.907-1.851,9.716-2.604l0.732-0.121
	c1.7-0.112,3.301,0.948,3.821,2.639l2.21,7.189c0.064,0.208,0.259,0.351,0.476,0.351c0.167,0,0.323-0.083,0.414-0.221l1.282-1.914
	c0.914-1.365,2.75-1.729,4.114-0.815c1.364,0.913,1.729,2.751,0.815,4.116l-4.417,6.596c-0.084,0.125-0.107,0.281-0.062,0.424
	L419.948,279.169L419.948,279.169z M479.508,244.228l0.03,0.612c-1.353,5.878-8.213,10.798-15.245,10.798
	c-3.517,0-6.378-1.212-8.185-3.121c-1.808-1.911-2.589-4.514-1.913-7.452l-0.485-0.112l0.497-0.027l-0.583-10.569
	c6.295-1.309,11.332-2.358,11.332-2.358l-0.203-0.978c0,0-5.119,1.064-12.384,2.575c-2.914,0.607-5.951-0.035-8.37-1.769
	c-2.421-1.735-4.003-4.404-4.365-7.358c-1.262-10.304-2.831-23.11-2.894-23.634l31.672-4.933l5.604,12.145l0.452-0.209l0.143,0.479
	c0.882-0.262,1.836-0.315,2.8-0.111c3.092,0.653,5.064,3.683,4.411,6.775c-0.653,3.091-3.682,5.064-6.773,4.411l-0.208,0.978
	c0.592,0.125,1.183,0.161,1.76,0.129L479.508,244.228L479.508,244.228z M193.017,151.922h13.032c1.073,0,2.092,0.457,2.804,1.259
	c0,0.001,0,0.002,0,0.002c0.144,0.162,0.294,0.331,0.448,0.505c1.816,2.048,1.724,5.143-0.211,7.077
	c-12.407,12.406-51.164,51.165-51.164,51.165c-4.229,4.228-11.082,4.228-15.309,0c-1.395-1.395-2.33-3.074-2.804-4.852
	c0,0,0-0.001,0-0.002l-4.998-18.66l20.625-5.082c-2.16,2.009-4.386,4.078-6.133,5.702c-0.102,0.094-0.16,0.227-0.16,0.366
	c0,0.274,0.226,0.499,0.5,0.499c0.126,0,0.248-0.048,0.34-0.134c11.109-10.328,32.607-30.315,39.01-36.268v0.002
	C190.091,152.487,191.526,151.922,193.017,151.922L193.017,151.922L193.017,151.922z M208.006,146.395h9.697
	c0.897,0,1.667,0.62,1.86,1.496c1.448,6.587,6.349,28.881,9.309,42.346c1.242,5.65-2.203,11.26-7.806,12.708
	c-0.169,0.043-0.34,0.086-0.51,0.13c-3.175,0.82-6.549,0.148-9.165-1.832c-2.616-1.978-4.182-5.042-4.259-8.32
	c-0.193-8.367-0.439-19.056-0.649-28.136c1.007-1.007,2.511-2.51,3.314-3.314c2.301-2.302,2.412-6.012,0.252-8.447
	c-0.155-0.175-0.305-0.344-0.448-0.505c-0.876-0.988-2.123-1.561-3.439-1.592c-0.022-0.964-0.042-1.878-0.059-2.586
	c-0.011-0.512,0.184-1.007,0.542-1.373C207.003,146.602,207.494,146.395,208.006,146.395L208.006,146.395L208.006,146.395z
	 M353.806,143.699c0.481,0.015,0.951,0.179,1.342,0.474c0.52,0.394,0.851,0.985,0.917,1.634c0.418,4.201,1.12,11.244,1.12,11.244
	c0.025,0.255,0.241,0.45,0.496,0.45c0.03,0,0.059-0.002,0.089-0.007c0,0,3.43-0.614,6.82-1.22c1.498-0.267,3.038,0.136,4.215,1.102
	c1.178,0.967,1.873,2.399,1.903,3.921c0.084,4.367,0.191,10.064,0.277,14.521c0.074,3.877-2.675,7.227-6.492,7.908
	c-5.626,1.005-12.502,2.234-12.6,2.251l-9.801-1.67l-3.572-19.997c0.203-0.212,2.861-2.989,4.656-4.867
	c1.014-1.06,1.854-2.273,2.488-3.596c1.377-2.872,3.935-8.206,5.119-10.672h-0.002c0.326-0.68,0.959-1.162,1.701-1.293
	c0,0,0.001,0,0.002,0c0.264-0.048,0.547-0.099,0.839-0.151C353.483,143.706,353.645,143.694,353.806,143.699L353.806,143.699
	L353.806,143.699z M183.206,131.312l-0.487,0.107c0.569,2.593-0.142,4.883-1.754,6.568c-1.612,1.685-4.149,2.757-7.258,2.757
	c-6.193,0-12.188-4.321-13.361-9.478l1.703-21.242l-0.499-0.039l0.499,0.034l0.887-12.998c11.522-0.257,19.193-4.927,22.966-13.651
	l0,0c0.309,0.034,2.745,0.305,5.632,0.626c3.646,0.406,6.313,3.604,6.063,7.262c-0.417,6.099-1.021,14.92-1.451,21.218
	c-0.203,2.97-1.64,5.72-3.963,7.581c0,0.001,0,0.002,0,0.002c-2.323,1.863-5.32,2.666-8.262,2.216
	c-7.316-1.117-9.415-1.885-9.415-1.885l-0.341,0.939c0,0,2.155,0.731,8.542,1.754v8.23L183.206,131.312L183.206,131.312z"></path>
<path id="color_x5F_4" fill-rule="evenodd" clip-rule="evenodd" fill="#000000" d="M225.2,516.285h-47.694
	c-8.101-4.805-15.194-11.126-20.893-18.574l2.269-49.733c0.467-10.258,8.908-18.323,19.176-18.322l0,0h6.496
	c3.587,5.133,11.692,9.12,18.507,9.12c3.457,0,5.999-1.049,7.226-2.895c1.105-1.663,1.02-3.885-0.286-6.224h7.983
	c4.355,0,8.49,1.797,11.474,4.923l-16.334,27.914l-6.32-5.396c-0.005-0.004-0.01-0.009-0.015-0.013c0,0-11.21-9.572-21.767-18.585
	c-2.788-2.379-6.39-3.456-9.934-3.084c-1.181,0.125-2.356,0.41-3.492,0.861c-4.54,1.805-7.711,5.976-8.234,10.834
	c0,0.001,0,0.002,0,0.002c-0.491,4.557,1.431,9.043,5.07,11.832c8.291,6.352,22.802,17.471,22.802,17.471l17.61,13.494
	c0.54,0.426,1.125,0.812,1.752,1.149c4.994,2.684,11.073,1.396,14.603-2.76L225.2,516.285L225.2,516.285z M355.253,451.001
	c0.932-7.882,7.025-14.508,15.247-15.708c1.028-0.15,2.049-0.209,3.052-0.183l0,0c7.031,0.178,13.29,4.507,15.995,10.903
	c0,0,0,0.001,0,0.002c0.384,0.902,0.327,1.93-0.154,2.786c-0.481,0.854-1.332,1.436-2.302,1.578h-0.004
	c-6.985,1.077-21.17,3.146-28.169,4.167c-0.988,0.144-1.986-0.177-2.704-0.87c-0.717-0.694-1.071-1.68-0.962-2.671V451.001z
	 M275.118,430.907h-3.997c-1.273-0.001-2.296-1.021-2.296-2.294v-9.687c0.962,1.34,2.525,2.223,4.296,2.223
	c1.77,0,3.332-0.883,4.294-2.223v9.687C277.415,429.886,276.392,430.906,275.118,430.907L275.118,430.907z M368.032,412.234
	c4.394-0.192,8.303,2.969,8.952,7.415c0.692,4.743-2.589,9.144-7.331,9.836c-4.742,0.692-9.144-2.589-9.836-7.331
	c-0.692-4.742,2.589-9.144,7.331-9.836C367.445,412.275,367.74,412.247,368.032,412.234L368.032,412.234L368.032,412.234z
	 M262.855,421.724h-21.614c-0.517,0-0.927-0.408-0.927-0.926v-3.672c0-1.168-0.537-2.186-1.41-2.967h23.951
	c0.152,0,0.302,0.064,0.418,0.186c0.117,0.123,0.186,0.295,0.186,0.479v6.234c0,0.184-0.071,0.36-0.186,0.48
	C263.157,421.662,263.007,421.724,262.855,421.724z M271.121,405.127h3.999c1.272,0,2.294,1.023,2.294,2.296v5.36
	c-0.962-1.339-2.524-2.221-4.294-2.221c-1.771,0-3.334,0.882-4.296,2.221v-5.36C268.825,406.182,269.797,405.179,271.121,405.127z
	 M96.056,344.054c0.361,0.012,0.718,0.042,1.072,0.09c4.244,0.565,7.938,3.6,9.141,7.994c0.001,0.001,0.001,0.002,0.002,0.004
	c0,0.001,0,0.002,0,0.004c1.15,4.204-0.305,8.499-3.383,11.183c-0.152,0.133-0.209,0.345-0.144,0.536l1.937,5.71l-9.186-3.008
	c-0.093-0.031-0.193-0.033-0.287-0.008l-11.336,3.101c-5.858,1.604-11.893-1.837-13.496-7.696c0-0.002-0.001-0.004-0.002-0.006
	c-1.603-5.858,1.84-11.894,7.699-13.497c4.65-1.272,10.049-2.749,14.7-4.021C93.872,344.141,94.977,344.017,96.056,344.054
	C96.056,344.054,96.056,344.054,96.056,344.054z M262.569,266.994c0.408,0.196,9.71,4.648,13.61,6.514
	c0.859,0.411,1.446,1.233,1.557,2.179c0.198,1.685,0.487,4.162,0.657,5.608c0.075,0.641-0.076,1.288-0.427,1.832
	c-1.954,3.013-7.813,12.054-9.761,15.058c-0.351,0.538-0.876,0.939-1.487,1.134c-1.022,0.325-2.571,0.818-3.897,1.241
	c-1.718,0.547-2.813,2.241-2.602,4.032c0.191,1.63,0.427,3.654,0.588,5.023c0.133,1.132,0.771,2.145,1.735,2.753
	c2.326,1.466,7.132,4.498,9.587,6.046c1.088,0.684,2.45,0.77,3.614,0.225c3.377-1.583,11.108-5.207,14.151-6.633
	c0.683-0.32,1.465-0.35,2.17-0.078c3.861,1.486,15.212,5.852,18.891,7.268c0,0.001,0,0.002,0,0.002
	c0.636,0.245,1.161,0.715,1.471,1.32c0.987,1.926,3.006,5.863,4.032,7.863c0.342,0.666,0.4,1.44,0.162,2.148
	c-1.854,5.523-8.867,26.408-9.012,26.84c-1.939,0.479-3.92,0.857-5.948,1.114c-0.195-0.455-3.696-8.655-5.474-12.822v-0.002
	c-0.655-1.535-2.248-2.459-3.907-2.264c-1.994,0.234-4.788,0.56-6.681,0.782c-1.078,0.126-2.127-0.387-2.691-1.313
	c-2.629-4.321-9.233-15.177-11.109-18.263c-0.38-0.623-0.933-1.123-1.591-1.439c-3.292-1.579-14.928-7.158-18.618-8.927
	c-0.618-0.296-1.103-0.81-1.363-1.443c0-0.001,0-0.001,0-0.002c-1.496-3.63-5.932-14.387-6.026-14.615
	C246.382,285.795,253.019,274.757,262.569,266.994L262.569,266.994L262.569,266.994z M450.875,335.144h-53.9
	c-2.82,0-6.026-2.398-6.969-5.256l-14.759-44.78c-0.471-1.428-0.306-2.655,0.277-3.523c0.571-0.852,1.555-1.397,3.002-1.418h70.888
	c2.82,0,6.027,2.398,6.969,5.256l11.93,36.196l-5.252-3.516c-1.814-1.214-4.287-0.725-5.5,1.089
	c-1.215,1.814-0.726,4.286,1.089,5.501l1.04,0.696l-6.184,1.903c-2.436,0.748-3.848,3.302-3.189,5.764
	C450.477,333.66,450.693,334.465,450.875,335.144L450.875,335.144z M426.449,303.681h-8.801c-0.328,0-0.657,0.154-0.839,0.425
	c-0.182,0.271-0.203,0.617-0.102,0.924c0,0.001,0,0.002,0,0.002l1.832,5.56c0.204,0.614,0.745,1.038,1.399,1.038h8.801
	c0.328,0,0.657-0.154,0.839-0.425c0.182-0.272,0.203-0.617,0.102-0.925l-1.832-5.559c0-0.001,0-0.001,0-0.002
	C427.645,304.103,427.104,303.681,426.449,303.681L426.449,303.681z M337.729,295.971c-2.584,0.437-6.757,1.145-9.453,1.602
	c-1.289,0.218-2.552-0.487-3.039-1.701v-0.002c-1.176-2.938-3.09-7.717-3.909-9.762c0-0.001,0-0.001,0-0.002
	c-0.217-0.538-0.256-1.131-0.117-1.695h-0.002c0.594-2.401,2.084-8.423,2.845-11.496c0.241-0.978,0.991-1.747,1.962-2.012
	c1.915-0.521,4.418-1.202,4.711-1.281l0,0c8.502,8.046,14.339,19.002,15.806,31.529c0.25,2.139,0.351,4.261,0.339,6.361
	c-0.916-1.698-3.467-6.423-5.191-9.613c-0.765-1.42-2.357-2.196-3.948-1.928L337.729,295.971L337.729,295.971z M310.707,257.824
	c4.906,1.551,9.516,3.825,13.704,6.703c-0.926,0.242-2.969,0.776-4.89,1.279c-1.373,0.36-2.433,1.462-2.734,2.851
	c-0.125,0.577-0.263,1.225-0.4,1.853c-0.313,1.444-1.691,2.386-3.15,2.151c-0.333-0.053-0.667-0.108-0.992-0.16
	c-1.227-0.197-2.169-1.181-2.313-2.415c-0.307-2.619-0.783-6.678-1.036-8.835c-0.092-0.787,0.159-1.577,0.686-2.168L310.707,257.824
	L310.707,257.824z M284.394,263.68c0.714-0.019,1.433,0.045,2.139,0.195c0.412,0.088,0.831,0.176,1.225,0.26
	c0.409,0.087,0.756,0.351,0.95,0.72c0.001,0.001,0.001,0.001,0.002,0.002c0.195,0.371,0.214,0.805,0.053,1.19
	c0,0.001,0,0.002,0,0.002c-0.543,1.307-1.241,2.986-1.797,4.323c-0.168,0.404-0.511,0.705-0.933,0.818
	c-0.423,0.113-0.871,0.025-1.217-0.24c0-0.001,0-0.002,0-0.002c-1.425-1.089-3.365-2.57-4.909-3.749
	c-0.394-0.302-0.599-0.785-0.541-1.278c0.057-0.493,0.37-0.918,0.823-1.122c0.244-0.108,0.492-0.22,0.735-0.33
	c0.88-0.394,1.81-0.64,2.757-0.741C283.919,263.702,284.155,263.687,284.394,263.68L284.394,263.68L284.394,263.68z M483.548,200.09
	c-1.435,4.415-2.617,8.044-2.837,8.72c-0.848-0.765-1.899-1.328-3.093-1.58c-0.976-0.207-1.948-0.177-2.863,0.031l-5.593-12.12
	c-0.086-0.186-0.279-0.302-0.483-0.289c-0.015,0.001-0.03,0.003-0.045,0.006l-32.352,5.037c-0.358-0.185-4.445-2.376-6.683-7.386
	c0,0,0-0.001,0-0.002c-0.558-1.244-0.188-2.703,0.897-3.531c4.655-3.474,16.997-11.826,28.343-13.029
	c0.479-0.051,0.957-0.082,1.432-0.093v-0.001c7.128-0.168,13.703,4.051,16.476,10.726c0.046,0.11,0.131,0.2,0.238,0.254l0.002,0.002
	c0.018,0.009,0.036,0.016,0.055,0.023c5.399,1.923,8.283,7.781,6.509,13.232L483.548,200.09L483.548,200.09z"></path>
<path id="color_x5F_3" fill-rule="evenodd" clip-rule="evenodd" fill="#2563eb" d="M179.242,517.284h46.046l1.602,8.197
	c-3.943,0.658-7.988,1.015-12.116,1.015C201.879,526.496,189.768,523.145,179.242,517.284L179.242,517.284z M445.34,442.092
	c-0.777,0.288-1.645,0.055-2.174-0.581c-3.259-3.915-12.216-14.674-12.832-15.415c0.286-0.094,0.578-0.165,0.876-0.205
	c0.312-0.041,0.627-0.051,0.942-0.031l0,0c0.316,0.02,0.63,0.071,0.941,0.154c7.474,1.998,21.239,5.679,28.713,7.677
	c0.914,0.245,1.726,0.753,2.348,1.447l-18.811,6.955L445.34,442.092L445.34,442.092z M199.684,353.391
	c3.929,0,7.302,2.37,8.772,5.751c0.08,0.182,0.26,0.3,0.458,0.3c0.141,0,0.275-0.059,0.37-0.163
	c1.561-1.711,3.797-2.776,6.288-2.776c4.725,0,8.551,3.827,8.551,8.552v0.018c0,0.004,0,0.009,0,0.014
	c0,0.274,0.226,0.499,0.499,0.499c0.022,0,0.044-0.002,0.066-0.004c0.321-0.043,0.653-0.063,0.994-0.063
	c4.724,0,8.55,3.825,8.55,8.551c0,4.724-3.825,8.552-8.55,8.552c-2.218,0-4.235-0.845-5.751-2.239
	c-0.196-0.18-0.502-0.174-0.691,0.014c-1.617,1.607-3.845,2.6-6.31,2.6c-2.356,0-4.495-0.909-6.087-2.399
	c-0.092-0.087-0.215-0.136-0.342-0.136c-0.183,0-0.351,0.1-0.438,0.261c-1.454,2.646-4.264,4.438-7.495,4.438
	c-1.319,0-2.564-0.299-3.676-0.841c-0.068-0.033-0.142-0.05-0.218-0.05c-0.274,0-0.499,0.226-0.499,0.499
	c0,0.059,0.01,0.118,0.031,0.173c0.333,0.894,0.511,1.867,0.511,2.885c0,1.502-0.402,2.903-1.083,4.128
	c-0.796-0.083-1.618-0.028-2.435,0.191c-3.574,0.958-5.706,4.649-4.748,8.225c0.48,1.792,1.648,3.219,3.143,4.079
	c-1.568,1.772-3.845,2.896-6.397,2.896c-4.724,0-8.55-3.825-8.55-8.551c0-1.73,0.513-3.335,1.396-4.671
	c0.054-0.082,0.083-0.178,0.083-0.276c0-0.222-0.148-0.418-0.362-0.479c-3.994-1.147-6.918-4.827-6.918-9.192
	c0-4.544,3.169-8.346,7.415-9.317c0.227-0.052,0.388-0.255,0.388-0.487c0-0.064-0.012-0.128-0.036-0.188
	c-0.446-1.097-0.689-2.291-0.689-3.547c0-5.289,4.285-9.572,9.572-9.572c1.44,0,2.804,0.319,4.019,0.896
	c0.066,0.031,0.14,0.048,0.214,0.048c0.247,0,0.458-0.184,0.494-0.428C190.885,356.952,194.867,353.391,199.684,353.391
	L199.684,353.391L199.684,353.391z M243.894,300.054c0.825,2.003,4.064,9.86,5.407,13.117c0.355,0.86,1.015,1.56,1.855,1.963
	c3.691,1.769,15.324,7.349,18.616,8.928c0.485,0.234,0.891,0.598,1.171,1.058c1.877,3.086,8.481,13.942,11.109,18.263
	c0.765,1.258,2.198,1.959,3.662,1.787c1.893-0.222,4.685-0.548,6.679-0.782c1.225-0.144,2.39,0.531,2.874,1.664c0,0,0,0.001,0,0.002
	c1.741,4.077,5.028,11.773,5.359,12.549c-28.152,3.004-53.564-17.231-56.865-45.417
	C243.238,308.717,243.305,304.314,243.894,300.054L243.894,300.054z M294.411,255.432c5.263-0.08,10.383,0.655,15.239,2.077
	c-0.265,0.297-0.428,0.479-0.812,0.91c-0.717,0.804-1.058,1.877-0.932,2.947c0.253,2.156,0.727,6.217,1.034,8.836
	c0.196,1.674,1.484,3.018,3.148,3.285c0.324,0.052,0.658,0.106,0.991,0.159c1.975,0.317,3.861-0.971,4.285-2.924
	c0.137-0.629,0.277-1.276,0.402-1.856c0.221-1.021,0.996-1.83,2.008-2.094c2.247-0.588,5.467-1.43,5.721-1.496
	c1.517,1.1,2.965,2.291,4.356,3.548c-0.761,0.208-2.431,0.663-4.096,1.117c-1.319,0.359-2.343,1.407-2.671,2.735
	c-0.76,3.073-2.25,9.096-2.845,11.496c0,0,0,0.001,0,0.002c-0.188,0.766-0.133,1.572,0.163,2.305
	c0.819,2.046,2.734,6.827,3.909,9.764c0.659,1.645,2.383,2.611,4.131,2.315c2.697-0.457,6.872-1.164,9.456-1.601
	c1.173-0.2,2.338,0.37,2.902,1.416c2.001,3.703,5.932,10.984,6.027,11.159c-1.002,22.348-16.436,41.676-38.07,47.552
	c0.441-1.313,6.997-20.839,8.81-26.238c0.324-0.963,0.243-2.018-0.221-2.922c-1.026-2.002-3.045-5.937-4.032-7.861
	c-0.422-0.824-1.134-1.465-2-1.798c-3.68-1.417-15.031-5.785-18.891-7.271c-0.959-0.368-2.027-0.33-2.955,0.106
	c-3.042,1.426-10.772,5.049-14.149,6.632c-0.856,0.402-1.857,0.341-2.657-0.164c-2.455-1.548-7.262-4.58-9.588-6.047
	c-0.708-0.447-1.179-1.19-1.275-2.022c-0.161-1.369-0.397-3.393-0.587-5.023c-0.156-1.321,0.643-2.562,1.912-2.965
	c1.326-0.422,2.875-0.916,3.897-1.241c0.001,0,0.002,0,0.002,0c0.832-0.265,1.544-0.811,2.02-1.543
	c1.948-3.003,7.81-12.042,9.763-15.056c0.477-0.738,0.684-1.619,0.581-2.491c-0.17-1.446-0.459-3.924-0.657-5.611
	c-0.151-1.284-0.95-2.404-2.116-2.962c-0.001,0-0.002,0-0.002,0c-3.778-1.808-12.249-5.863-13.185-6.311
	c7.204-5.604,15.981-9.374,25.703-10.512C290.901,255.576,292.664,255.459,294.411,255.432L294.411,255.432L294.411,255.432z
	 M279.781,263.887c-0.774,0.347-1.306,1.075-1.405,1.916c-0.098,0.842,0.257,1.675,0.929,2.188c1.543,1.18,3.481,2.662,4.906,3.749
	c0.592,0.454,1.361,0.604,2.081,0.411c0.72-0.193,1.311-0.709,1.598-1.398c0.556-1.337,1.253-3.015,1.797-4.323
	c0.275-0.659,0.24-1.406-0.092-2.039c-0.333-0.633-0.931-1.087-1.629-1.234c-0.395-0.084-0.811-0.172-1.224-0.26
	c-0.784-0.167-1.583-0.239-2.376-0.217l0,0c-0.264,0.007-0.527,0.025-0.79,0.053c-1.05,0.111-2.082,0.387-3.058,0.823h-0.002
	c-0.243,0.11-0.489,0.221-0.733,0.33H279.781L279.781,263.887z M209.23,218.442h-73.054v-21.085l2.669,9.957
	c0.002,0.007,0.004,0.015,0.006,0.023c0.517,1.942,1.54,3.778,3.061,5.301c4.61,4.61,12.111,4.61,16.722,0
	c0,0,15.607-15.607,30.18-30.181h17.078c0.085,3.693,0.168,7.264,0.242,10.49c0.045,1.911,0.566,3.75,1.465,5.383
	C208.345,207.539,209.184,217.881,209.23,218.442L209.23,218.442z M334.817,161.71c1.277,0.032,2.394,0.955,2.628,2.263
	l3.772,21.124c0.268,1.496-0.723,2.916-2.219,3.184l-6.387,1.139c-1.495,0.268-2.914-0.722-3.181-2.217l-3.773-21.125
	c-0.267-1.496,0.722-2.916,2.218-3.183l6.387-1.142C334.448,161.72,334.634,161.706,334.817,161.71L334.817,161.71L334.817,161.71z
	 M185.388,155.494h-33.385l-2.831-13.349l0.004,0.027c-0.074-0.469-0.172-0.94-0.299-1.41c-1.127-4.207-4.141-7.405-7.884-8.95
	h18.47c1.468,5.588,7.721,9.931,14.245,9.931c3.339,0,6.153-1.155,7.98-3.064c1.698-1.776,2.506-4.213,2.104-6.867h11.465
	l-3.043,19.164c-1.449,0.171-2.818,0.791-3.896,1.793c0,0.001,0,0.002,0,0.002L185.388,155.494L185.388,155.494z"></path>
<path id="color_x5F_2" fill-rule="evenodd" clip-rule="evenodd" fill="#ffffff" d="M286.193,469.338
	c-6.386,28.5-29.397,50.748-58.316,55.983l-1.678-8.582v-29.825c0.14-0.223,0.284-0.441,0.41-0.677c0,0,3.894-7.247,4.819-8.967
	c0.426,0.434,4.617,4.7,9.562,9.734c7.088,7.215,18.664,7.428,26.013,0.477L286.193,469.338L286.193,469.338z M178.058,428.658
	c-10.792-0.001-19.683,8.496-20.174,19.276l-2.212,48.521c-8.859-12.106-14.102-27.023-14.102-43.163
	c0-24.858,12.417-46.83,31.458-60.12c0.612,0.363,1.261,0.672,1.945,0.911c-0.806,1.394-1.322,2.986-1.322,4.712
	c0,5.266,4.284,9.549,9.548,9.549c0.886,0,1.739-0.133,2.554-0.359l-1.414,20.672L178.058,428.658L178.058,428.658z
	 M278.413,423.781h3.359c1.32,2.99,2.45,6.083,3.365,9.264l0.064-0.019l0.687,6.97l-30.049,24.871l-5.039-6.101
	c-0.002-0.002-0.004-0.005-0.006-0.008c0,0-2.481-3.002-5.706-6.908c3.16-5.881,4.017-7.477,6.98-12.991
	c1.508-2.807,2.428-4.52,3.736-6.953h15.179v-0.014c0.047,0.002,0.091,0.013,0.139,0.014h3.999c1.812-0.001,3.292-1.48,3.292-3.293
	L278.413,423.781z M429.39,426.523c0.379,0.454,9.706,11.659,13.009,15.628c0.798,0.959,2.118,1.31,3.289,0.877
	c4.843-1.79,18.519-6.845,19.073-7.049c0.625,1.104,0.796,2.407,0.467,3.633c-1.319,4.936-3.298,12.34-4.617,17.275
	c-0.331,1.239-1.143,2.296-2.252,2.938c-1.112,0.641-2.431,0.817-3.67,0.485c-7.473-1.998-21.239-5.678-28.713-7.676
	c-1.241-0.332-2.296-1.141-2.938-2.251c-0.641-1.111-0.817-2.43-0.485-3.67c1.319-4.935,3.3-12.341,4.619-17.276
	C427.491,428.242,428.257,427.219,429.39,426.523L429.39,426.523z M234.807,413.473c-1.422,0.604-2.423,2.017-2.423,3.654v12.454
	l-2.407,4.112c-3.155-3.196-7.461-5.035-11.992-5.035h-8.362v-10.559c0.037,0.006,0.026,0.004,0.063,0.01
	c3.219,0.491,6.496-0.388,9.038-2.423c2.541-2.037,4.114-5.046,4.337-8.295c0.706-10.34,1.589-23.259,1.628-23.83
	c0.327,0.036,0.656,0.06,0.994,0.06c2.013,0,3.879-0.629,5.42-1.697l0,0c14.848,3.389,27.976,11.302,37.874,22.205h-28.848
	c-1.411,0-2.764,0.561-3.76,1.559c-0.998,0.997-1.559,2.352-1.559,3.762v4.023L234.807,413.473L234.807,413.473z M273.121,411.561
	c2.377,0,4.294,1.916,4.294,4.293c0,2.378-1.917,4.296-4.294,4.296c-2.378,0-4.296-1.918-4.296-4.296
	C268.825,413.477,270.743,411.561,273.121,411.561z M417.644,304.679h8.805c0.114,0,0.401,0.201,0.45,0.353l1.832,5.56
	c0.018,0.052,0.012,0.04,0.012,0.039h-8.805c-0.113,0-0.398-0.199-0.449-0.352l-1.834-5.559v-0.002
	C417.646,304.689,417.644,304.681,417.644,304.679L417.644,304.679L417.644,304.679L417.644,304.679L417.644,304.679
	L417.644,304.679z M482.981,306.669h-18.544l-7.106-21.56c-1.094-3.321-4.556-5.94-7.916-5.94h-7.44v-8.133
	c0-1.293,1.04-2.333,2.333-2.333h38.674c0.618,0,1.212,0.246,1.65,0.683c0.437,0.438,0.683,1.032,0.683,1.65v33.299
	c0,0.619-0.246,1.213-0.683,1.651C484.193,306.423,483.599,306.669,482.981,306.669L482.981,306.669z M509.774,245.427
	c5.368,0.146,10.231,3.779,11.691,9.233c0,0,3.915,14.616,7.836,29.249l-22.358,6.529l-9.128-28.034
	c-0.002-0.009-0.005-0.017-0.008-0.026c-0.158-0.41-0.297-0.833-0.414-1.267c-1.782-6.648,2.162-13.481,8.81-15.261
	c0.807-0.216,1.617-0.345,2.42-0.398h0.603v-0.016c0.183-0.003,0.365-0.014,0.546-0.01L509.774,245.427L509.774,245.427z
	 M426.645,279.169h-5.654l-1.945-6.332l3.57-16.845c0.003-0.009,0.005-0.018,0.006-0.027c0.069-0.435,0.159-0.871,0.276-1.305
	c0,0,0.001,0,0.002,0c1.373-5.125,5.752-8.63,10.729-9.157l0,0l0,0l0,0c-1.297,0.582-2.496,1.388-3.522,2.413
	c-2.216,2.217-3.462,5.225-3.462,8.361L426.645,279.169L426.645,279.169z M136.576,131.812c5.228,0.293,9.909,3.876,11.337,9.209
	c0.117,0.435,0.209,0.87,0.278,1.305c0.001,0.009,0.002,0.017,0.004,0.026l8.41,39.668l-22.048,5.433l-10.713-39.982
	c-1.782-6.649,2.162-13.479,8.809-15.259c1.011-0.271,2.024-0.395,3.023-0.411l0,0v0.012L136.576,131.812L136.576,131.812z
	 M188.813,182.456c0,0,15.231-15.23,16.692-16.692c0.035,1.49,0.387,16.692,0.387,16.692H188.813z M152.213,156.493h32.102
	c-6.347,5.9-16.954,15.761-26.817,24.931L152.213,156.493z M205.162,150.923h-11.929l3.346-21.064
	c0.157-0.991,1.152-1.846,2.132-1.846h18.122c0.981,0,1.57,0.697,1.412,1.688l-2.493,15.695h-7.747
	c-0.781,0-1.529,0.316-2.075,0.874h-0.002c-0.545,0.559-0.843,1.316-0.825,2.097C205.12,149.068,205.14,149.974,205.162,150.923
	L205.162,150.923z M404.193,113.864c9.873,0,17.865,7.992,17.865,17.865c0,9.872-7.992,17.864-17.865,17.864
	c-9.873,0-17.865-7.992-17.865-17.864C386.328,121.89,394.267,113.918,404.193,113.864z M321.728,78.17
	c1.374,0.03,2.765,0.163,4.161,0.408c14.895,2.608,24.864,16.807,22.256,31.701c-2.607,14.896-16.807,24.865-31.701,22.256
	c-14.896-2.607-24.864-16.806-22.257-31.701c2.282-13.033,13.44-22.295,26.172-22.659C320.813,78.161,321.269,78.16,321.728,78.17
	L321.728,78.17z M318.643,119.974c1.247,0.218,2.531-0.068,3.568-0.796c4.066-2.855,10.498-7.371,12.702-8.918
	c3.825-2.687,4.758-7.933,2.173-11.801c-0.014-0.058-0.038-0.114-0.071-0.164l-0.006-0.012c-0.038-0.054-0.087-0.101-0.144-0.136
	c-0.002-0.001-0.003-0.002-0.004-0.002c-2.761-3.737-8.005-4.643-11.83-1.959l-2.538,1.781l-1.781-2.536
	c-1.362-1.941-3.386-3.147-5.554-3.527c-0.528-0.093-1.066-0.135-1.603-0.125l0,0c-1.613,0.03-3.233,0.523-4.666,1.488
	c-0.041,0.013-0.089,0.029-0.09,0.029c0,0-0.017,0.016-0.021,0.02c-0.013,0.009-0.028,0.008-0.041,0.017l0.031-0.009
	c-0.014,0.012-0.027,0.022-0.053,0.044l0.02-0.035c-0.046,0.033-0.066,0.085-0.112,0.118c-0.003,0.002-0.017,0.015-0.017,0.015
	l-0.002,0.004c-3.747,2.758-4.651,8.013-1.965,11.842c1.546,2.202,6.063,8.634,8.917,12.701c0.727,1.037,1.837,1.742,3.084,1.961
	L318.643,119.974L318.643,119.974z"></path>
<path id="color_x5F_1" fill="#000000" d="M177.57,66.564c-0.925-0.018-1.85,0.022-2.768,0.121
	c-3.674,0.396-7.247,1.719-10.354,3.932c-0.908,0.646-1.455,1.037-1.5,1.07c-0.065,0.033-2.689,1.371-5.242,2.676
	c-3.159,1.613-5.561,4.399-6.693,7.761c-1.215,3.605-2.799,8.309-4.286,12.725c-27.914,10.83-47.724,37.957-47.724,69.665
	c0,16.071,5.107,30.954,13.761,43.147c-6.144,11.227-11.277,23.082-15.286,35.444c-0.117-0.002-0.232-0.01-0.35-0.01
	c-10.682,0-19.364,8.68-19.364,19.363c0,7.832,4.678,14.573,11.38,17.621c-1.156,8.868-1.758,17.909-1.758,27.09
	c0,5.054,0.187,10.064,0.542,15.029c-0.155,0.008-0.309,0.009-0.463,0.02c-2.316,0.15-4.651,0.535-6.977,1.172
	c-18.597,5.09-29.577,24.343-24.487,42.941c5.088,18.597,24.343,29.577,42.94,24.487c1.806-0.494,3.538-1.127,5.193-1.875
	c8.986,20.943,21.314,40.115,36.315,56.843c-0.247,2.469-0.379,4.973-0.379,7.507c0,41.218,33.484,74.702,74.702,74.702
	c17.361,0,33.339-5.949,46.032-15.903c11.172,1.862,22.645,2.835,34.341,2.835c19.756,0,38.873-2.77,56.984-7.932
	c3.534,4.711,9.146,7.776,15.479,7.776c10.682,0,19.363-8.681,19.363-19.363c0-0.613-0.032-1.218-0.088-1.816
	c11.921-5.884,23.197-12.877,33.693-20.845c3.904,3.083,8.48,5.442,13.585,6.807c20.075,5.366,40.753-6.587,46.119-26.662
	c3.494-13.064-0.355-26.382-8.998-35.572c12.871-20.527,22.256-43.457,27.32-67.962c8.882-4.471,16.752-10.662,23.169-18.134
	c1.37-0.367,8.397-2.249,8.397-2.249c6.559-1.758,10.471-8.535,8.713-15.095l-2.444-9.12c2.177-7.006,3.357-14.452,3.357-22.168
	c0-35.304-24.556-64.925-57.512-72.701c-0.074-0.116-0.159-0.225-0.24-0.336c0.147-0.452,1.448-4.445,2.93-9.001
	c1.966-6.042-1.165-12.487-6.999-14.849c-2.874-6.585-9.18-10.913-16.203-11.32c-1.019-0.06-2.051-0.038-3.091,0.072
	c-1.096,0.116-2.193,0.312-3.289,0.54c-10.223-12.377-21.853-23.545-34.642-33.272c1.77-2.922,2.808-6.335,2.808-9.996
	c0-10.683-8.681-19.363-19.363-19.363c-6.826,0-12.82,3.554-16.269,8.899c-12.018-6.015-24.698-10.899-37.903-14.511
	c0.602-14.253-9.448-27.127-23.874-29.654c-1.962-0.343-3.913-0.478-5.831-0.422c-13.044,0.378-24.533,9.623-27.377,22.749
	c-23.438,0.245-45.954,4.379-66.931,11.789c-6.504-6.385-14.168-11.588-22.647-15.264c0.426-3.13,0.799-5.857,1.196-8.765
	c0.822-6.033-2.494-11.885-8.092-14.28c-3.346-1.432-7.198-3.08-10.709-4.582C183.125,67.197,180.346,66.617,177.57,66.564
	L177.57,66.564L177.57,66.564z M177.529,68.558c2.522,0.049,5.049,0.578,7.441,1.601c3.511,1.502,7.363,3.152,10.709,4.584
	c4.78,2.046,7.6,7.019,6.899,12.171c-0.851,6.248-1.924,14.126-2.566,18.832c-0.376,2.766,0.267,5.552,1.717,7.928
	c0.026,0.114,0.072,0.224,0.137,0.322c1.864,2.862,2.556,6.329,1.933,9.687c-0.161,0.868-0.344,1.849-0.526,2.831h-4.561
	c-1.791,0-3.331,1.337-3.613,3.108l-0.109,0.69h-10.784v-6.508c3.189,0.35,6.397-0.562,8.913-2.579
	c2.65-2.122,4.292-5.26,4.524-8.647c0.43-6.299,1.032-15.122,1.449-21.22c0.304-4.444-2.963-8.36-7.391-8.852
	c-3.064-0.342-5.978-0.665-5.978-0.665c-0.033-0.004-0.066-0.007-0.099-0.008c-0.408-0.005-0.779,0.24-0.935,0.616
	c-3.564,8.587-10.66,13.003-22.234,13.129c-0.518,0.006-0.95,0.413-0.986,0.93l-0.915,13.406l-1.634,20.399h-22.36
	c-0.499-0.025-1.002-0.032-1.508-0.002c-0.925,0.055-1.859,0.204-2.788,0.452c-0.793,0.213-1.544,0.502-2.265,0.837
	c0.698-2.945,1.435-6.058,2.113-8.917c1.325-5.591,4.568-10.539,9.166-13.985c0.001,0,0.002-0.001,0.002-0.002
	c2.52-1.887,4.406-4.494,5.409-7.477c1.682-4.995,4.455-13.229,6.215-18.458c0.966-2.869,3.014-5.244,5.71-6.619
	c2.585-1.32,5.304-2.71,5.304-2.71c0.045-0.022,0.087-0.048,0.127-0.076c0,0,0.617-0.44,1.561-1.113
	C169.138,69.728,173.327,68.476,177.529,68.558C177.529,68.558,177.529,68.558,177.529,68.558z M321.716,78.668
	c1.35,0.029,2.715,0.16,4.087,0.4c14.628,2.562,24.411,16.496,21.849,31.125c-2.56,14.628-16.495,24.411-31.124,21.849
	c-14.628-2.56-24.408-16.495-21.848-31.124c2.241-12.8,13.188-21.889,25.69-22.246C320.816,78.659,321.265,78.658,321.716,78.668
	L321.716,78.668L321.716,78.668z M186.191,83.9c0.563,0.063,2.577,0.29,5.287,0.591c3.385,0.377,5.854,3.333,5.622,6.73
	c-0.417,6.099-1.021,14.921-1.451,21.22c-0.194,2.832-1.564,5.451-3.778,7.226s-5.071,2.541-7.875,2.112
	c-0.222-0.034-0.34-0.059-0.552-0.092c-0.052-0.013-0.105-0.022-0.158-0.027c-6.618-1.042-8.609-1.742-8.609-1.742
	c-0.12-0.049-0.248-0.074-0.377-0.074c-0.547,0-0.999,0.451-0.999,0.999c0,0.433,0.282,0.82,0.694,0.952c0,0,2.159,0.72,8.213,1.709
	v7.706c-0.005,0.065-0.004,0.131,0.004,0.197c0,0.004,0,0.008,0,0.011c0.002,0.017,0.005,0.033,0.008,0.049
	c0.004,0.029,0.009,0.058,0.016,0.086c0.525,2.433-0.133,4.523-1.631,6.089c-1.504,1.572-3.904,2.602-6.898,2.602
	c-5.939,0-11.716-4.19-12.858-9.028l1.698-21.149c0-0.006,0-0.011,0-0.016l0.86-12.589C174.636,97.082,182.346,92.44,186.191,83.9
	L186.191,83.9L186.191,83.9z M313.587,91.288c-1.667,0.031-3.339,0.537-4.832,1.504c-0.083,0.027-0.178,0.058-0.178,0.058
	s-0.034,0.03-0.043,0.037c-0.026,0.018-0.057,0.019-0.084,0.037l0.067-0.021c-0.027,0.024-0.053,0.047-0.104,0.092l0.035-0.069
	c-0.087,0.062-0.126,0.159-0.211,0.223c-0.01,0.009-0.046,0.041-0.046,0.041s-0.004,0.011-0.004,0.012
	c-3.835,2.944-4.761,8.403-1.957,12.397c1.546,2.202,6.062,8.635,8.916,12.702c0.804,1.145,2.031,1.924,3.408,2.165
	c0.001,0,0.002,0,0.002,0c1.378,0.24,2.796-0.076,3.941-0.88c4.066-2.855,10.497-7.37,12.702-8.917
	c3.991-2.802,4.974-8.245,2.373-12.317c-0.026-0.118-0.074-0.229-0.14-0.33c0,0.001,0.008,0.029,0.01,0.033
	c-0.01-0.014-0.009-0.032-0.02-0.047c-0.002-0.004-0.004-0.008-0.006-0.011c-0.076-0.11-0.174-0.203-0.287-0.274
	c0-0.001-0.001-0.001-0.002-0.002c-2.947-3.82-8.394-4.743-12.383-1.943l-2.128,1.494l-1.496-2.13
	c-1.44-2.052-3.581-3.324-5.876-3.725C314.697,91.321,314.142,91.277,313.587,91.288L313.587,91.288L313.587,91.288z
	 M313.546,93.266c0.455-0.008,0.909,0.027,1.355,0.106c1.788,0.313,3.455,1.31,4.584,2.92l2.07,2.945
	c0.315,0.448,0.942,0.558,1.39,0.244l2.945-2.067c3.219-2.26,7.631-1.488,9.891,1.73l-0.004-0.01
	c0.002,0.002,0.024,0.021,0.029,0.026l-0.025-0.014c2.259,3.219,1.487,7.63-1.731,9.888c-2.203,1.547-8.635,6.063-12.702,8.917
	c-0.711,0.499-1.592,0.695-2.45,0.546c-0.856-0.15-1.619-0.635-2.118-1.346c-2.855-4.066-7.371-10.499-8.917-12.702
	c-2.259-3.218-1.488-7.629,1.731-9.888c0.001-0.001,0.003-0.001,0.004-0.002C310.806,93.712,312.18,93.292,313.546,93.266
	L313.546,93.266L313.546,93.266z M145.889,97.337c-0.352,1.045-0.797,2.367-1.093,3.244c-0.875,2.601-2.518,4.873-4.713,6.518
	c0,0-0.001,0-0.002,0c-0.006,0.004-0.01,0.009-0.015,0.014l-0.006,0.006c-4.959,3.724-8.46,9.068-9.891,15.105
	c-0.82,3.46-1.747,7.378-2.555,10.791c-4.487,3.311-6.747,9.143-5.219,14.844l10.841,40.455l1.441,5.379v25.133l-1.441,6.083
	c-19.436-13.054-32.235-35.236-32.235-60.396C101.001,134.232,119.552,108.267,145.889,97.337L145.889,97.337L145.889,97.337z
	 M203.08,98.01c25.508,11.294,43.33,36.822,43.33,66.503c0,25.973-13.647,48.761-34.147,61.621l-1.5-7.329
	c-0.004-0.05-0.748-9.217-1.406-17.345c0.356,0.346,0.731,0.673,1.131,0.976c2.979,2.254,6.827,3.023,10.443,2.089
	c0.171-0.044,0.34-0.089,0.51-0.133c6.367-1.644,10.306-8.054,8.894-14.476c-2.959-13.465-7.861-35.76-9.31-42.347h0.002
	c-0.341-1.555-1.732-2.672-3.324-2.672h-0.353l2.374-14.961c0.281-1.771-1.101-3.422-2.891-3.422h-11.531
	c0.157-0.845,0.318-1.71,0.458-2.465c0.705-3.798-0.068-7.715-2.132-10.974c-0.024-0.059-0.054-0.116-0.09-0.17
	c-1.326-2.037-1.876-4.482-1.548-6.89C202.263,104.015,202.701,100.788,203.08,98.01L203.08,98.01z M292.585,101.43
	c-2.225,15.379,8.192,29.883,23.6,32.579c15.694,2.749,30.689-7.78,33.435-23.473c0.103-0.584,0.18-1.168,0.246-1.75
	c12.906,3.558,25.303,8.34,37.063,14.218c-1.332,2.625-2.099,5.584-2.099,8.725c0,10.682,8.681,19.363,19.363,19.363
	c6.304,0,11.894-3.037,15.43-7.712c12.37,9.419,23.638,20.205,33.586,32.135c-10.083,2.707-19.597,9.265-23.616,12.264
	c-0.003,0.002-0.006,0.004-0.01,0.006c-1.63,1.245-2.191,3.462-1.353,5.334c2.181,4.882,5.903,7.268,7.022,7.908
	c0.035,0.283,0.906,7.389,1.524,12.436c-11.976,4.916-22.391,12.849-30.303,22.857l-159.466-57.432c0.91-4.654,1.4-9.457,1.4-14.376
	c0-20.066-7.938-38.294-20.838-51.724C247.975,105.687,269.836,101.708,292.585,101.43L292.585,101.43L292.585,101.43z
	 M481.89,113.228c-0.548,0.007-0.993,0.464-0.985,1.012v7.355c-0.001,0.004-0.001,0.009-0.001,0.014c0,0.547,0.451,0.999,1,0.999
	c0.547,0,0.999-0.451,0.999-0.999c0-0.005,0-0.01,0-0.014v-7.355c0-0.004,0-0.009,0-0.013c0-0.548-0.451-1-0.999-1
	C481.899,113.227,481.894,113.228,481.89,113.228z M404.193,114.363c9.602,0,17.366,7.764,17.366,17.366
	c0,9.602-7.764,17.366-17.366,17.366c-9.603,0-17.366-7.764-17.366-17.366S394.59,114.363,404.193,114.363z M469.29,118.454
	c-0.548,0-0.999,0.451-0.999,0.999c0,0.27,0.109,0.528,0.302,0.716l5.199,5.199c0.188,0.188,0.442,0.294,0.708,0.294
	c0.548,0,0.999-0.451,0.999-1c0-0.265-0.105-0.519-0.293-0.706l-5.201-5.199C469.818,118.563,469.56,118.454,469.29,118.454z
	 M494.49,118.454c-0.26,0.008-0.505,0.116-0.686,0.303l-5.201,5.199c-0.188,0.187-0.294,0.441-0.294,0.707
	c0,0.548,0.451,0.999,1,0.999c0.265,0,0.518-0.105,0.706-0.292l5.201-5.201c0.193-0.188,0.303-0.446,0.303-0.716
	c0-0.548-0.451-0.999-0.999-0.999C494.51,118.454,494.5,118.454,494.49,118.454z M198.71,128.512h18.123
	c0.71,0,1.035,0.381,0.919,1.111l-2.425,15.274h-7.321c-0.915,0-1.793,0.37-2.432,1.024c-0.001,0-0.002,0-0.002,0
	c-0.64,0.655-0.989,1.54-0.968,2.456c0,0.001,0,0.001,0,0.002c0.013,0.56,0.03,1.322,0.047,2.045h-10.835l3.256-20.487
	C197.188,129.206,198,128.512,198.71,128.512L198.71,128.512z M464.078,131.068c-0.005,0-0.01,0-0.014,0
	c-0.548,0-0.999,0.45-0.999,0.999c0,0.548,0.45,0.999,0.999,0.999c0.004,0,0.009,0,0.014,0h7.354c0.005,0,0.01,0,0.014,0
	c0.548,0,0.999-0.45,0.999-0.999c0-0.548-0.45-0.999-0.999-0.999c-0.004,0-0.009,0-0.014,0H464.078z M492.377,131.068
	c-0.005,0-0.01,0-0.014,0c-0.548,0-0.999,0.45-0.999,0.999c0,0.548,0.45,0.999,0.999,0.999c0.004,0,0.009,0,0.014,0h7.354
	c0.005,0,0.01,0,0.014,0c0.548,0,0.999-0.45,0.999-0.999c0-0.548-0.45-0.999-0.999-0.999c-0.004,0-0.009,0-0.014,0H492.377z
	 M135.676,132.296v0.014h0.903c5.007,0.292,9.48,3.725,10.851,8.839c0,0,0.001,0.001,0.002,0.002c0.112,0.417,0.2,0.832,0.265,1.25
	c0.003,0.017,0.007,0.035,0.01,0.052l8.307,39.196l-21.101,5.2l-10.587-39.509c-1.712-6.387,2.07-12.937,8.457-14.648
	C133.748,132.433,134.719,132.314,135.676,132.296L135.676,132.296z M143.093,132.31h15.989c1.707,5.683,8.019,9.931,14.624,9.931
	c3.454,0,6.406-1.196,8.342-3.218c1.675-1.751,2.545-4.135,2.317-6.713h10.306l-2.893,18.224c-1.413,0.241-2.738,0.882-3.8,1.869
	c-0.456,0.425-2.183,2.032-2.786,2.591h-32.786l-2.747-12.953l0.01,0.053c-0.076-0.486-0.179-0.975-0.31-1.463
	C148.39,137.013,146.072,134.11,143.093,132.31L143.093,132.31z M474.479,138.465c-0.26,0.008-0.506,0.117-0.687,0.303l-5.199,5.199
	c-0.196,0.189-0.307,0.448-0.307,0.72c0,0.548,0.45,1,0.999,1c0.272,0,0.532-0.112,0.72-0.308l5.201-5.199
	c0.194-0.188,0.304-0.446,0.304-0.716c0-0.548-0.451-0.999-1-0.999C474.5,138.465,474.489,138.465,474.479,138.465z
	 M489.299,138.465c-0.548,0-0.999,0.451-0.999,0.999c0,0.27,0.109,0.528,0.303,0.716l5.201,5.199
	c0.188,0.196,0.448,0.308,0.72,0.308c0.548,0,0.999-0.451,0.999-1c0-0.272-0.111-0.531-0.307-0.72l-5.201-5.199
	C489.826,138.573,489.569,138.465,489.299,138.465z M481.89,141.528c-0.548,0.007-0.993,0.464-0.985,1.012v7.355
	c-0.001,0.004-0.001,0.009-0.001,0.014c0,0.547,0.451,0.999,1,0.999c0.547,0,0.999-0.451,0.999-0.999c0-0.005,0-0.01,0-0.014v-7.355
	c0-0.004,0-0.009,0-0.013c0-0.548-0.451-0.999-0.999-0.999C481.899,141.528,481.894,141.528,481.89,141.528z M353.851,142.2
	c-0.264-0.008-0.529,0.012-0.792,0.059c-0.291,0.052-0.576,0.104-0.843,0.152c-1.213,0.218-2.252,1.007-2.786,2.118
	c-1.183,2.466-3.741,7.802-5.119,10.673c-0.566,1.18-1.314,2.261-2.218,3.207c-1.433,1.498-2.829,2.958-3.716,3.886
	c-0.88-1.469-2.602-2.335-4.379-2.018l-6.387,1.142c-2.294,0.41-3.839,2.627-3.43,4.921l3.773,21.125
	c0.41,2.294,2.626,3.839,4.92,3.429l6.386-1.139c1.921-0.344,3.301-1.958,3.465-3.818l8.997,1.532c0.113,0.019,0.23,0.019,0.343,0
	c0,0,7.024-1.255,12.691-2.267c4.533-0.809,7.815-4.807,7.727-9.411c-0.086-4.459-0.195-10.157-0.279-14.523c0,0,0-0.001,0-0.002
	c-0.039-1.959-0.934-3.804-2.449-5.048c-1.514-1.244-3.498-1.763-5.426-1.418c-0.001,0-0.002,0-0.002,0
	c-2.862,0.51-4.928,0.881-5.759,1.03c-0.113-1.135-0.632-6.371-1.011-10.172c-0.106-1.064-0.653-2.038-1.505-2.682
	C355.411,142.494,354.64,142.225,353.851,142.2L353.851,142.2L353.851,142.2z M353.79,144.198c0.379,0.012,0.747,0.141,1.056,0.373
	c0.41,0.311,0.672,0.776,0.723,1.288c0.419,4.2,1.12,11.243,1.12,11.243c0.051,0.508,0.483,0.9,0.994,0.9
	c0.059,0,0.118-0.006,0.175-0.016c0,0,3.431-0.614,6.82-1.219c1.355-0.241,2.748,0.124,3.812,0.997
	c1.064,0.874,1.691,2.168,1.719,3.545c0.084,4.367,0.191,10.064,0.277,14.521c0.07,3.636-2.501,6.769-6.081,7.407
	c-5.588,0.999-12.328,2.202-12.516,2.236l-9.368-1.594l-3.465-19.404c0.381-0.397,2.753-2.876,4.481-4.683c0-0.001,0-0.002,0-0.002
	c1.05-1.098,1.919-2.355,2.576-3.724c1.377-2.872,3.935-8.204,5.119-10.67c0.257-0.535,0.754-0.914,1.337-1.019
	c0.001,0,0.002,0,0.002,0c0.263-0.048,0.548-0.098,0.839-0.15C353.536,144.203,353.664,144.194,353.79,144.198L353.79,144.198
	L353.79,144.198z M208.006,146.894h9.697c0.665,0,1.23,0.452,1.371,1.102c0,0.001,0,0.001,0,0.002
	c1.448,6.587,6.349,28.881,9.309,42.345c1.187,5.392-2.095,10.735-7.442,12.116c-0.169,0.043-0.34,0.086-0.51,0.13
	c0,0.001,0,0.002,0,0.002c-3.028,0.782-6.243,0.138-8.737-1.75c-2.495-1.886-3.989-4.805-4.062-7.931
	c-0.192-8.304-0.436-18.887-0.645-27.921c0.953-0.954,2.396-2.397,3.164-3.164c2.483-2.485,2.603-6.5,0.273-9.13v-0.002
	c-0.155-0.175-0.308-0.344-0.45-0.505c-0.861-0.971-2.048-1.58-3.322-1.728c-0.018-0.759-0.035-1.547-0.049-2.13
	c-0.008-0.378,0.136-0.741,0.4-1.012C207.267,147.046,207.627,146.894,208.006,146.894L208.006,146.894L208.006,146.894z
	 M193.016,152.421h13.033c0.929,0,1.812,0.397,2.429,1.093c0,0,0.001,0.001,0.002,0.002c0.144,0.161,0.293,0.331,0.446,0.504
	c0.001,0,0.001,0,0.002,0c1.643,1.854,1.56,4.641-0.191,6.393c-12.407,12.406-51.165,51.164-51.165,51.164
	c-4.037,4.038-10.566,4.038-14.603,0c-1.332-1.331-2.221-2.931-2.673-4.626c0-0.001,0-0.002,0-0.002l-4.869-18.168l18.259-4.499
	c-1.602,1.49-3.375,3.138-4.718,4.388c-0.213,0.189-0.335,0.46-0.335,0.746c0,0.547,0.45,0.999,0.999,0.999
	c0.26,0,0.509-0.101,0.695-0.282c11.109-10.328,32.607-30.314,39.01-36.267C190.338,152.937,191.652,152.421,193.016,152.421
	L193.016,152.421L193.016,152.421z M152.829,156.991h30.213c-6.349,5.904-15.852,14.739-25.239,23.465L152.829,156.991z
	 M334.805,162.21c1.048,0.024,1.956,0.775,2.148,1.851l3.772,21.125c0.22,1.23-0.585,2.384-1.816,2.604l-6.387,1.14
	c-1.229,0.219-2.383-0.585-2.602-1.815l-3.773-21.124c-0.22-1.231,0.584-2.385,1.815-2.605l6.386-1.141
	C334.502,162.217,334.655,162.206,334.805,162.21L334.805,162.21z M205.034,166.942c0.105,4.545,0.209,9.035,0.318,13.75h-14.069
	C197.461,174.515,200.457,171.517,205.034,166.942z M460.281,176.355c6.926-0.165,13.309,3.929,16.003,10.414
	c0.092,0.222,0.261,0.403,0.475,0.509l0.002,0.002c0.036,0.018,0.073,0.034,0.112,0.047c5.15,1.834,7.892,7.409,6.2,12.608
	c-1.321,4.066-2.245,6.9-2.614,8.031c-0.795-0.579-1.717-1.009-2.739-1.225c-0.001,0-0.001,0-0.002,0
	c-0.907-0.192-1.815-0.204-2.682-0.059l-5.421-11.752c-0.158-0.34-0.493-0.564-0.868-0.579c-0.065-0.002-0.13,0.002-0.194,0.012
	l-32.177,5.01c-0.653-0.355-4.26-2.454-6.323-7.069c0,0-0.001,0-0.002,0c-0.463-1.037-0.157-2.241,0.746-2.93
	c4.627-3.453,16.95-11.749,28.093-12.929C459.356,176.394,459.82,176.366,460.281,176.355L460.281,176.355L460.281,176.355z
	 M246.588,180.859L405.2,237.985c-0.777,1.041-1.532,2.098-2.255,3.179c-2.607,0.699-5.612,1.505-8.24,2.208
	c-3.543,0.95-5.661,4.616-4.711,8.158c0.669,2.498,2.047,7.638,3.037,11.334c-1.387,5.074-2.248,10.364-2.53,15.805h-11.975
	c-1.816,0-3.373,0.779-4.247,2.083c-0.875,1.304-1.041,3.05-0.454,4.826l14.757,44.78c1.172,3.553,4.762,6.283,8.392,6.283h16.59
	c0.838,0.799,1.693,1.579,2.567,2.339l-108.47,91.643c-1.024-0.962-2.12-1.989-2.982-2.798c-1.026-0.962-2.345-1.432-3.66-1.414
	c-1.314,0.018-2.623,0.522-3.623,1.512l-3.85,3.815l-0.02-0.203v-0.002c-0.241-2.44-2.439-4.246-4.881-4.005
	c-1.29,0.128-2.392,0.811-3.119,1.779c-0.578-1.705-1.218-3.381-1.914-5.029h11.748c0.79,0,1.55-0.315,2.108-0.874
	c0.559-0.558,0.873-1.316,0.873-2.106v-10.888c0-0.789-0.314-1.547-0.873-2.106c-0.558-0.558-1.318-0.874-2.108-0.874h-16.447
	v-0.008c0-2.082-1.709-3.794-3.792-3.794h-3.998c-0.048,0-0.092,0.012-0.139,0.014v-0.014h-0.433
	c-9.79-10.985-22.773-19.057-37.487-22.767c1.65-1.792,2.669-4.174,2.669-6.792c0-5.536-4.513-10.049-10.049-10.049
	c-0.088,0-0.176,0.015-0.265,0.018c-0.535-5.038-4.668-9.034-9.844-9.034c-2.464,0-4.62,1.034-6.371,2.522
	c-1.907-3.331-5.414-5.634-9.517-5.634c-0.175,0-0.345,0.014-0.516,0.022L178.87,239.016c33.292-2.282,60.615-26.417,67.719-58.158
	L246.588,180.859L246.588,180.859z M189.285,182.69h16.111c0.08,3.483,0.167,7.214,0.238,10.268
	c0.046,1.958,0.569,3.843,1.477,5.524c0.722,8.913,1.489,18.395,1.576,19.46h-72.012v-16.796l1.682,6.273c0,0.001,0,0.002,0,0.002
	c0.003,0.014,0.006,0.028,0.01,0.041c0.539,2.025,1.607,3.942,3.191,5.526c4.802,4.802,12.627,4.802,17.428,0
	c0,0,16.637-16.636,30.299-30.298L189.285,182.69L189.285,182.69z M477.543,185.446l0.11,0.047l0.039,0.041
	C477.636,185.513,477.6,185.466,477.543,185.446L477.543,185.446z M468.118,196.453l5.444,11.804
	c0.208,0.448,0.718,0.679,1.192,0.538c0.805-0.239,1.672-0.286,2.554-0.099c2.828,0.597,4.623,3.356,4.026,6.183
	c-0.598,2.826-3.355,4.621-6.181,4.024l-0.414,1.955c0.476,0.101,0.952,0.15,1.422,0.155l2.852,23.274l0.049,0.401l-0.01,0.041
	c-1.285,5.583-7.957,10.409-14.76,10.409c-3.401,0-6.123-1.17-7.823-2.965c-1.68-1.776-2.406-4.152-1.802-6.904
	c0.018-0.061,0.03-0.123,0.037-0.186l0.201-0.88l-0.24-0.054l-0.519-9.394c5.915-1.23,10.911-2.268,10.911-2.268
	c0.462-0.096,0.797-0.506,0.797-0.979c0-0.547-0.451-0.999-1-0.999c-0.068,0-0.136,0.007-0.203,0.021c0,0-5.059,1.054-11.584,2.411
	c-0.118,0.003-0.234,0.027-0.344,0.07c-0.262,0.055-0.188,0.04-0.456,0.096c0,0-0.001,0-0.002,0
	c-2.778,0.578-5.67-0.034-7.976-1.687c-2.307-1.654-3.814-4.197-4.159-7.013c-1.237-10.095-2.712-22.139-2.837-23.154
	L468.118,196.453L468.118,196.453z M114.065,209.46c13.643,18.064,35.289,29.755,59.64,29.755c1.058,0,2.107-0.036,3.154-0.08
	l20.329,113.058c-3.968,0.945-7.052,4.085-8.072,8.055c-1.143-0.405-2.344-0.681-3.619-0.681c-6.099,0-11.071,4.971-11.071,11.071
	c0,1.104,0.302,2.122,0.608,3.133c-4.433,1.443-7.686,5.506-7.686,10.405c0,3.384,1.562,6.359,3.985,8.359
	c-16.314,11.69-27.732,29.785-30.57,50.59c-14.35-16.277-26.167-34.836-34.835-55.062c14.239-7.45,21.91-24.063,17.498-40.187
	c-4.227-15.445-18.224-25.629-33.5-25.725c-0.357-4.949-0.544-9.945-0.544-14.984c0-8.922,0.575-17.709,1.678-26.333
	c1.911,0.631,3.947,0.985,6.067,0.985c10.683,0,19.363-8.68,19.363-19.362c0-9.867-7.411-18.011-16.959-19.2
	C103.38,231.489,108.259,220.189,114.065,209.46L114.065,209.46L114.065,209.46z M483.253,212.192
	c31.346,8.074,54.545,36.534,54.545,70.398c0,6.359-0.829,12.526-2.366,18.406l-4.546-16.956c-0.003-0.016-0.007-0.031-0.011-0.047
	c-3.986-14.874-7.963-29.722-7.963-29.722c-1.742-6.502-7.834-10.706-14.309-10.321c-0.012,0.001-0.024,0.003-0.035,0.004h-27.585
	l-2.841-23.206c2.514-0.699,4.571-2.738,5.146-5.456C483.512,214.234,483.483,213.183,483.253,212.192L483.253,212.192
	L483.253,212.192z M437.028,215.524c0.484,3.959,0.63,5.148,1.118,9.127c0.412,3.37,2.22,6.416,4.98,8.394v-0.002
	c2.62,1.879,5.873,2.618,9.04,2.097l0.487,8.813h-11.626h-6.961c-0.022,0-0.044,0.001-0.066,0.002
	c-5.798,0.39-10.966,4.407-12.55,10.315c-0.132,0.488-0.234,0.975-0.31,1.461l0.01-0.052l-2.798,13.202l-2.585-8.408l4.151-6.201
	c1.364-2.039,0.814-4.829-1.225-6.193c-2.039-1.365-4.829-0.812-6.194,1.228l-0.113,0.17l-1.594-5.184
	c-0.62-2.016-2.366-3.4-4.346-3.66c-0.23-0.03-0.464-0.024-0.698-0.023C413.575,229.575,424.4,220.82,437.028,215.524
	L437.028,215.524L437.028,215.524z M136.466,219.94h72.49l1.49,7.296c-10.785,6.334-23.335,9.982-36.74,9.982
	c-14.219,0-27.478-4.103-38.685-11.165L136.466,219.94L136.466,219.94z M405.577,242.592c1.475-0.099,2.856,0.817,3.308,2.288
	l2.21,7.188c0.128,0.418,0.517,0.706,0.955,0.706c0.333,0,0.645-0.166,0.83-0.442l1.281-1.914c0.764-1.141,2.282-1.442,3.422-0.679
	s1.44,2.283,0.677,3.424l-4.417,6.596c-0.167,0.249-0.213,0.561-0.125,0.848l5.552,18.062h-19.937
	c-2.941-10.973-5.779-21.563-7.411-27.655c-0.67-2.499,0.798-5.042,3.298-5.712c3.101-0.83,6.91-1.851,9.719-2.604
	C405.152,242.641,405.366,242.606,405.577,242.592L405.577,242.592z M97.129,245.091c9.603,0,17.366,7.763,17.366,17.366
	c0,9.602-7.763,17.365-17.366,17.365c-9.602,0-17.367-7.763-17.367-17.365C79.762,252.854,87.527,245.091,97.129,245.091
	L97.129,245.091z M509.911,245.93c0.392,0.015,0.781,0.05,1.166,0.103c4.617,0.641,8.624,3.965,9.906,8.755
	c0,0,3.854,14.392,7.71,28.778l-21.425,6.259l-8.975-27.576c-0.006-0.017-0.012-0.034-0.018-0.051
	c-0.152-0.395-0.287-0.802-0.398-1.22c-1.712-6.386,2.069-12.937,8.456-14.648c0.769-0.206,1.541-0.329,2.306-0.381h0.589v-0.015
	C509.455,245.932,509.684,245.921,509.911,245.93L509.911,245.93L509.911,245.93z M438.47,245.951h14.059
	c-0.325,2.917,0.618,5.615,2.491,7.595c2.132,2.253,5.411,3.59,9.273,3.59c7.421,0,14.557-4.807,16.484-11.184h21.431
	c-5.173,3.135-7.902,9.419-6.26,15.546c0.13,0.485,0.285,0.96,0.462,1.42l-0.018-0.049l9.278,28.496l2.56,7.863v10.72
	l-38.305,11.777l-4.469-13.559h17.526c1.016,0,1.992-0.405,2.709-1.122c0,0,0-0.001,0-0.002c0.717-0.718,1.123-1.692,1.123-2.708
	v-33.298c0-1.017-0.406-1.992-1.123-2.71c-0.717-0.717-1.693-1.122-2.709-1.122h-38.674c-2.103,0-3.831,1.727-3.831,3.831v7.633
	h-12.333v-22.393c0-2.74,1.088-5.365,3.024-7.301C433.104,247.039,435.731,245.951,438.47,245.951L438.47,245.951z M430.712,246.704
	c-0.333,0.27-0.653,0.553-0.958,0.859c-2.311,2.31-3.61,5.444-3.61,8.713v22.393h-4.783l-1.8-5.858l3.544-16.716
	c0.004-0.018,0.008-0.035,0.01-0.053c0.066-0.419,0.154-0.836,0.266-1.252c0-0.001,0-0.001,0-0.002
	C424.417,250.921,427.236,248.019,430.712,246.704L430.712,246.704L430.712,246.704z M294.387,253.936
	c-1.797,0.027-3.61,0.145-5.432,0.359c-29.172,3.416-50.097,29.895-46.681,59.065c3.416,29.171,29.895,50.097,59.064,46.681
	c29.172-3.417,50.098-29.895,46.682-59.065C344.816,273.628,321.344,253.527,294.387,253.936z M294.419,255.932
	c4.938-0.076,9.752,0.566,14.334,1.832c-0.135,0.151-0.151,0.169-0.287,0.322c-0.813,0.911-1.2,2.127-1.058,3.34
	c0.253,2.155,0.73,6.215,1.037,8.834c0.221,1.894,1.681,3.421,3.564,3.722c0.324,0.052,0.659,0.105,0.993,0.158
	c2.23,0.357,4.372-1.105,4.85-3.312c0.137-0.629,0.277-1.275,0.402-1.854v-0.002c0.182-0.837,0.816-1.499,1.646-1.717
	c2.156-0.564,5.006-1.309,5.489-1.435c1.191,0.871,2.346,1.791,3.457,2.761c-1.037,0.282-1.914,0.52-3.224,0.877
	c-1.493,0.408-2.653,1.594-3.024,3.096c-0.76,3.073-2.247,9.099-2.842,11.498c-0.214,0.867-0.151,1.783,0.183,2.614
	c0.82,2.047,2.733,6.825,3.907,9.761c0.746,1.862,2.702,2.958,4.678,2.624c0.001,0,0.001,0,0.002,0
	c2.697-0.457,6.872-1.166,9.456-1.603c0.964-0.164,1.916,0.303,2.38,1.163c1.977,3.661,5.773,10.694,5.956,11.032
	c-1.03,21.765-15.875,40.599-36.782,46.693c0.84-2.502,6.756-20.119,8.506-25.33c0.367-1.092,0.276-2.285-0.25-3.309
	c-1.026-2.002-3.045-5.937-4.032-7.861c-0.478-0.933-1.284-1.659-2.265-2.037h-0.002c-3.681-1.417-15.03-5.785-18.889-7.27
	c-1.085-0.417-2.293-0.375-3.345,0.119c-3.042,1.426-10.774,5.049-14.151,6.632c-0.703,0.33-1.52,0.28-2.177-0.134
	c-2.455-1.548-7.263-4.579-9.59-6.046c-0.58-0.367-0.964-0.976-1.044-1.658c-0.16-1.369-0.398-3.394-0.588-5.024
	c-0.128-1.087,0.524-2.098,1.568-2.43c1.326-0.422,2.876-0.917,3.897-1.241c0.942-0.301,1.751-0.918,2.288-1.746
	c1.948-3.004,7.809-12.045,9.762-15.059c0,0,0.001,0,0.002,0c0.54-0.834,0.773-1.832,0.657-2.821
	c-0.17-1.445-0.459-3.922-0.657-5.608c-0.171-1.454-1.078-2.723-2.398-3.355c0-0.001,0-0.002,0-0.002
	c-3.564-1.706-10.725-5.134-12.44-5.954c7.01-5.276,15.46-8.83,24.8-9.924c1.756-0.206,3.502-0.321,5.233-0.348L294.419,255.932
	L294.419,255.932z M310.867,258.393c4.394,1.42,8.548,3.424,12.362,5.927c-1.255,0.329-2.328,0.608-3.835,1.003
	c-1.554,0.408-2.754,1.657-3.093,3.228c-0.125,0.578-0.266,1.227-0.403,1.854c-0.257,1.19-1.377,1.957-2.581,1.763
	c0,0-0.001,0-0.002,0c-0.332-0.052-0.667-0.106-0.991-0.158c-1.008-0.162-1.778-0.967-1.896-1.982
	c-0.307-2.619-0.783-6.679-1.036-8.835c-0.076-0.645,0.13-1.291,0.563-1.777C310.386,258.932,310.614,258.677,310.867,258.393
	L310.867,258.393L310.867,258.393z M284.352,262.181c-0.277,0.008-0.553,0.026-0.829,0.055c-1.102,0.117-2.186,0.407-3.21,0.864
	c-0.001,0.001-0.002,0.002-0.002,0.002c-0.243,0.11-0.488,0.22-0.732,0.328c-0.001,0-0.001,0-0.002,0
	c-0.933,0.419-1.579,1.299-1.697,2.314c-0.119,1.016,0.308,2.023,1.12,2.643c1.543,1.18,3.483,2.663,4.908,3.751
	c0.715,0.547,1.647,0.73,2.515,0.497c0.869-0.233,1.581-0.858,1.927-1.689v-0.002c0.556-1.337,1.253-3.014,1.797-4.321v-0.002
	c0.332-0.797,0.29-1.701-0.111-2.464c-0.402-0.764-1.124-1.309-1.965-1.488c-0.395-0.084-0.813-0.174-1.225-0.262
	C286.022,262.233,285.184,262.159,284.352,262.181L284.352,262.181L284.352,262.181z M284.407,264.177
	c0.675-0.018,1.355,0.044,2.024,0.186c0.411,0.088,0.829,0.178,1.223,0.262c0.265,0.056,0.49,0.225,0.614,0.462c0,0,0,0.001,0,0.002
	c0.126,0.239,0.139,0.518,0.036,0.766c-0.543,1.307-1.24,2.986-1.797,4.323c0,0.001,0,0.002,0,0.002
	c-0.109,0.261-0.33,0.454-0.601,0.527c-0.274,0.073-0.56,0.015-0.784-0.157c-0.001,0-0.001,0-0.002,0
	c-1.425-1.088-3.363-2.571-4.906-3.75c-0.255-0.195-0.387-0.505-0.35-0.824c0.038-0.32,0.235-0.59,0.529-0.721
	c0.244-0.109,0.491-0.221,0.735-0.33l0.004-0.002c0.83-0.372,1.709-0.606,2.602-0.701
	C283.958,264.199,284.182,264.184,284.407,264.177L284.407,264.177L284.407,264.177z M394.102,266.859
	c1.116,4.161,1.911,7.133,3.164,11.81h-4.763C392.717,274.637,393.256,270.691,394.102,266.859z M262.637,267.58
	c0.766,0.367,9.508,4.551,13.328,6.378c0.705,0.339,1.185,1.011,1.275,1.787c0.198,1.686,0.488,4.162,0.658,5.609
	c0.061,0.525-0.063,1.056-0.352,1.502c-1.954,3.013-7.815,12.052-9.761,15.056c-0.288,0.442-0.717,0.771-1.218,0.93
	c-1.023,0.326-2.573,0.819-3.899,1.242c-1.944,0.618-3.184,2.541-2.946,4.566c0.191,1.63,0.428,3.654,0.589,5.023
	c0.15,1.281,0.872,2.427,1.963,3.115c2.326,1.466,7.135,4.498,9.59,6.046c1.229,0.774,2.774,0.873,4.09,0.256
	c3.377-1.583,11.107-5.209,14.149-6.635c0.56-0.262,1.203-0.284,1.781-0.062c3.861,1.486,15.212,5.852,18.892,7.268
	c0.52,0.201,0.951,0.588,1.206,1.085c0.987,1.925,3.006,5.861,4.032,7.861c0.28,0.546,0.328,1.181,0.132,1.762
	c-1.836,5.469-8.646,25.757-8.922,26.581c-1.715,0.415-3.468,0.744-5.254,0.984c-0.371-0.868-3.596-8.419-5.326-12.47
	c-0.741-1.737-2.548-2.785-4.425-2.565c-1.993,0.234-4.786,0.56-6.679,0.782c-0.885,0.104-1.746-0.317-2.208-1.077
	c-2.629-4.321-9.233-15.178-11.109-18.263c-0.43-0.707-1.057-1.273-1.803-1.631c-3.292-1.579-14.925-7.157-18.615-8.927
	c-0.507-0.243-0.904-0.664-1.119-1.184c-1.483-3.598-5.804-14.082-5.973-14.49C246.884,286.015,253.348,275.223,262.637,267.58
	L262.637,267.58z M444.307,269.203h38.674c0.486,0,0.952,0.192,1.296,0.536s0.537,0.811,0.537,1.297v33.298
	c0,0.486-0.194,0.951-0.537,1.295c-0.345,0.345-0.81,0.538-1.296,0.538h-18.183l-6.993-21.216c-1.171-3.553-4.76-6.283-8.391-6.283
	h-6.941v-7.633C442.473,270.012,443.283,269.203,444.307,269.203z M330.589,270.175c8.307,7.95,14.003,18.726,15.444,31.033
	c0.168,1.432,0.259,2.856,0.307,4.272c-1.334-2.472-2.82-5.224-4.222-7.819c-0.866-1.607-2.67-2.489-4.471-2.183
	c-2.584,0.437-6.759,1.145-9.456,1.602c-1.062,0.179-2.09-0.398-2.491-1.397c-1.176-2.937-3.09-7.716-3.909-9.761
	c0-0.001,0-0.001,0-0.002c-0.178-0.441-0.212-0.928-0.098-1.391c0.595-2.401,2.082-8.423,2.843-11.495
	c0.198-0.803,0.812-1.432,1.609-1.649C327.951,270.894,330.06,270.319,330.589,270.175L330.589,270.175L330.589,270.175z
	 M378.526,280.667h70.888c2.549,0,5.629,2.286,6.494,4.912l11.476,34.819l-4.045-2.709c-2.04-1.364-4.829-0.812-6.194,1.227
	c-1.364,2.039-0.812,4.828,1.228,6.193l0.17,0.114l-5.184,1.593c-2.688,0.826-4.252,3.656-3.525,6.371
	c0.113,0.422,0.267,0.997,0.391,1.457h-53.25c-2.548,0-5.627-2.285-6.494-4.912l-14.757-44.78c-0.433-1.312-0.268-2.365,0.217-3.088
	C376.423,281.142,377.251,280.667,378.526,280.667L378.526,280.667z M529.211,285.497l7.743,28.899
	c1.478,5.515-1.787,11.168-7.302,12.647c0,0-52.292,14.013-69.573,18.643c-2.499,0.67-5.043-0.799-5.712-3.299
	c-0.831-3.1-1.851-6.907-2.604-9.716c-0.455-1.699,0.502-3.429,2.182-3.945l7.189-2.21c0.418-0.128,0.704-0.517,0.704-0.954
	c0-0.334-0.166-0.645-0.443-0.831l-1.914-1.281c-1.141-0.764-1.439-2.283-0.676-3.424c0.762-1.139,2.28-1.438,3.421-0.676
	l6.598,4.417c0.25,0.167,0.561,0.213,0.848,0.125l43.287-13.307c0.418-0.129,0.705-0.517,0.705-0.954c0-0.106-0.017-0.21-0.049-0.31
	l-5.73-17.595L529.211,285.497L529.211,285.497z M128.052,286.236c-0.338-0.006-0.671,0.023-0.997,0.082
	c-1.954,0.359-3.611,1.848-4.071,3.9l-4.186,18.666c-0.001,0-0.002,0-0.002,0c-0.613,2.736,1.125,5.477,3.86,6.091l23.105,5.181
	c2.735,0.614,5.476-1.124,6.09-3.858l4.187-18.666c0.612-2.736-1.124-5.477-3.859-6.091l-23.104-5.182
	C128.732,286.283,128.391,286.242,128.052,286.236L128.052,286.236L128.052,286.236z M128.011,288.231
	c0.207,0.004,0.417,0.029,0.626,0.077l23.105,5.181c1.68,0.378,2.723,2.025,2.347,3.704l-4.187,18.667
	c-0.377,1.679-2.025,2.724-3.704,2.346l-23.105-5.181c-1.679-0.377-2.723-2.024-2.346-3.704l4.186-18.667
	C125.264,289.184,126.566,288.201,128.011,288.231L128.011,288.231z M172.161,297.744c-0.382-0.014-0.769,0.049-1.137,0.193
	c-3.376,1.317-8.495,3.315-10.89,4.249c-1.135,0.444-1.979,1.425-2.245,2.616c-0.359,1.597-0.942,4.206-1.3,5.804
	c-0.001,0-0.002,0-0.002,0c-0.267,1.19,0.079,2.436,0.917,3.322c1.767,1.869,5.541,5.861,8.031,8.494
	c0.723,0.765,1.813,1.071,2.829,0.792c1.016-0.28,1.797-1.101,2.029-2.126c0-0.001,0-0.001,0-0.002
	c1.148-5.119,3.308-14.746,4.456-19.865c0.23-1.027-0.126-2.102-0.925-2.79c-0.001,0-0.001,0-0.002,0
	c-0.4-0.343-0.877-0.562-1.379-0.647C172.416,297.761,172.288,297.748,172.161,297.744L172.161,297.744L172.161,297.744z
	 M171.978,299.743c0.229-0.024,0.46,0.047,0.641,0.203c0.243,0.208,0.349,0.527,0.28,0.837c-1.148,5.119-3.308,14.745-4.456,19.864
	c-0.071,0.312-0.303,0.554-0.609,0.638c-0.307,0.085-0.629-0.006-0.848-0.238c-2.49-2.633-6.264-6.623-8.031-8.492
	c-0.383-0.405-0.539-0.972-0.417-1.514c0.359-1.598,0.943-4.206,1.301-5.803c0.121-0.543,0.504-0.989,1.024-1.193
	c2.397-0.934,7.514-2.931,10.889-4.249C171.825,299.769,171.901,299.751,171.978,299.743L171.978,299.743L171.978,299.743z
	 M244.171,302.038c1.319,3.198,3.509,8.511,4.668,11.322c0.402,0.975,1.15,1.767,2.1,2.223c3.691,1.769,15.324,7.348,18.616,8.927
	c0.398,0.191,0.733,0.491,0.962,0.868c1.877,3.086,8.481,13.942,11.109,18.263c0.866,1.424,2.49,2.216,4.145,2.023
	c1.893-0.222,4.686-0.548,6.68-0.782c1.006-0.118,1.957,0.434,2.354,1.365c1.654,3.872,4.481,10.494,5.09,11.919
	c-27.613,2.582-52.396-17.346-55.639-45.039C243.816,309.367,243.809,305.657,244.171,302.038L244.171,302.038L244.171,302.038z
	 M417.648,303.18c-0.462,0-0.976,0.232-1.254,0.648c-0.28,0.415-0.301,0.934-0.162,1.357c0,0.001,0.001,0.001,0.002,0.002
	l1.832,5.559c0,0.001,0,0.002,0,0.002c0.279,0.845,0.948,1.379,1.873,1.379h8.801c0.462,0,0.975-0.229,1.254-0.645
	c0.279-0.416,0.3-0.937,0.16-1.36l-1.832-5.561c-0.28-0.846-0.948-1.381-1.873-1.381L417.648,303.18L417.648,303.18z
	 M418.332,305.178h8.117c-0.158,0,0.003,0.089-0.023,0.01l1.629,4.943h-8.117c0.155,0,0.004-0.083,0.023-0.011L418.332,305.178
	L418.332,305.178z M510.226,305.366l1.175,3.607l-1.175,0.361L510.226,305.366L510.226,305.366z M89.032,324.145
	c14.754-0.317,28.399,9.38,32.473,24.259c4.803,17.554-5.535,35.682-23.09,40.485c-17.553,4.804-35.683-5.533-40.486-23.088
	c-4.804-17.553,5.533-35.684,23.088-40.488c2.193-0.6,4.399-0.963,6.583-1.106C88.078,324.177,88.555,324.156,89.032,324.145
	L89.032,324.145z M518.248,332.167c-2.484,2.662-5.166,5.137-8.021,7.403v-5.254C512.855,333.612,516.477,332.641,518.248,332.167
	L518.248,332.167z M508.229,334.851v6.25c-12.069,8.917-26.986,14.194-43.136,14.194c-13.49,0-26.12-3.682-36.951-10.092v-8.562
	h22.617c0.57,2.129,1.142,4.264,1.678,6.262c0.948,3.543,4.615,5.661,8.158,4.71C472.426,344.444,491.592,339.308,508.229,334.851z
	 M416.51,336.642h9.634v7.317C422.73,341.785,419.508,339.338,416.51,336.642z M417.687,340.284
	c12.902,10.615,29.414,17.008,47.406,17.008c11.145,0,21.724-2.453,31.23-6.84c-5.051,23.545-14.128,45.6-26.486,65.407
	c-4.417-4.211-9.916-7.406-16.218-9.091c-2.509-0.671-5.029-1.07-7.526-1.218c-17.481-1.032-33.9,10.316-38.596,27.882
	c-3.813,14.266,1.128,28.83,11.506,37.993c-10.123,7.649-20.971,14.382-32.426,20.08c-1.808-8.818-9.622-15.464-18.969-15.464
	c-10.682,0-19.363,8.681-19.363,19.363c0,3.597,1.001,6.955,2.714,9.842c-17.751,4.999-36.47,7.68-55.813,7.68
	c-10.974,0-21.744-0.872-32.254-2.53c12.583-10.615,21.616-25.303,25.05-42.029c5.117-4.838,14.362-13.579,14.362-13.579
	c0.024-0.023,0.047-0.047,0.069-0.072l9.941-10.591c2.508-2.674,2.375-6.906-0.299-9.416c-0.922-0.865-1.881-1.764-2.889-2.71
	L417.687,340.284L417.687,340.284z M95.937,342.552c-0.355-0.008-0.711,0-1.069,0.024c-0.827,0.053-1.662,0.192-2.491,0.419
	c-4.652,1.272-10.051,2.751-14.701,4.023c-6.575,1.8-10.468,8.565-8.778,15.144c0.004,0.055,0.012,0.11,0.025,0.164
	c0-0.001-0.005-0.037-0.008-0.061c0.008,0.029,0.008,0.056,0.016,0.084l-0.027-0.193c0.012,0.07,0.04,0.222,0.045,0.25
	c1.837,6.61,8.696,10.513,15.318,8.7l11.046-3.021l9.851,3.224c0.101,0.033,0.205,0.05,0.311,0.05c0.547,0,0.999-0.451,0.999-1
	c0-0.109-0.018-0.217-0.053-0.32l-2.075-6.124c3.076-3.016,4.522-7.49,3.4-11.932c-0.004-0.031-0.045-0.306-0.101-0.422
	c-0.001-0.001,0-0.003,0-0.004C106.091,346.214,101.254,342.668,95.937,342.552L95.937,342.552L95.937,342.552z M96.04,344.552
	c0.345,0.012,0.685,0.039,1.023,0.084c4.051,0.538,7.575,3.433,8.723,7.632c0.001,0.002,0.002,0.004,0.002,0.006
	c1.101,4.018-0.29,8.115-3.228,10.678c-0.304,0.266-0.418,0.691-0.289,1.073l1.615,4.764l-8.236-2.698
	c-0.187-0.061-0.387-0.066-0.575-0.014l-11.334,3.101c-5.598,1.533-11.351-1.748-12.882-7.346c-0.001-0.001-0.002-0.003-0.002-0.004
	c-1.533-5.598,1.75-11.352,7.348-12.884c4.65-1.272,10.048-2.749,14.699-4.021C93.954,344.636,95.009,344.518,96.04,344.552
	L96.04,344.552L96.04,344.552z M199.684,353.891c3.728,0,6.923,2.246,8.316,5.45c0.159,0.364,0.519,0.599,0.916,0.599
	c0.28,0,0.547-0.118,0.736-0.325c1.471-1.612,3.573-2.614,5.921-2.614c4.455,0,8.051,3.599,8.051,8.052v0.002
	c-0.001,0.01-0.001,0.021-0.001,0.031c0,0.547,0.451,0.999,0.999,0.999c0.045,0,0.089-0.003,0.134-0.009
	c0.295-0.04,0.605-0.059,0.926-0.059c4.455,0,8.051,3.597,8.051,8.051c0,4.455-3.597,8.052-8.051,8.052
	c-0.408,0-0.805-0.039-1.196-0.097c-0.077-0.021-0.156-0.032-0.236-0.033c-1.519-0.274-2.886-0.973-3.98-1.979
	c-0.391-0.36-1.004-0.348-1.38,0.027c-1.527,1.518-3.629,2.456-5.96,2.456c-2.228,0-4.243-0.856-5.745-2.262
	c-0.186-0.174-0.429-0.271-0.683-0.271c-0.365,0-0.7,0.199-0.876,0.518c-1.368,2.491-4.011,4.178-7.057,4.178
	c-1.244,0-2.413-0.28-3.457-0.79c-0.136-0.066-0.286-0.101-0.437-0.101c-0.547,0-0.999,0.451-0.999,1
	c0,0.119,0.021,0.237,0.063,0.348c0.312,0.838,0.479,1.75,0.479,2.71c0,1.306-0.326,2.526-0.878,3.613
	c-0.746-0.041-1.509,0.02-2.268,0.223c-3.835,1.028-6.13,5.001-5.101,8.837c0.456,1.706,1.498,3.104,2.85,4.044
	c-1.451,1.421-3.427,2.303-5.622,2.303c-4.455,0-8.05-3.597-8.05-8.05c0-1.631,0.481-3.14,1.312-4.398
	c0.108-0.163,0.166-0.355,0.166-0.551c0-0.444-0.297-0.838-0.724-0.96c-3.783-1.086-6.554-4.568-6.554-8.71
	c0-4.312,3.004-7.908,7.026-8.829c0.452-0.104,0.776-0.509,0.776-0.974c0-0.129-0.025-0.257-0.074-0.376
	c-0.422-1.038-0.651-2.168-0.651-3.36c0-5.018,4.055-9.073,9.073-9.073c1.366,0,2.655,0.302,3.803,0.847
	c0.135,0.064,0.282,0.097,0.429,0.097c0.495,0,0.919-0.368,0.989-0.858C191.345,357.264,195.113,353.891,199.684,353.891
	L199.684,353.891z M70.821,361.722c-0.008-0.021,0.014,0.038,0.014,0.038s0.002,0.01,0.002,0.011
	C70.83,361.749,70.825,361.73,70.821,361.722L70.821,361.722L70.821,361.722z M68.931,362.354c0,0.002,0,0.003,0,0.004
	c0.003,0.01,0.009,0.018,0.012,0.028C68.938,362.371,68.934,362.363,68.931,362.354L68.931,362.354z M219.609,381.919
	c1.055,0.822,2.254,1.471,3.565,1.846c-0.061,0.888-0.91,13.317-1.608,23.524c-0.194,2.832-1.564,5.451-3.778,7.225
	c-2.215,1.775-5.07,2.541-7.875,2.112c-0.283-0.043-0.206-0.032-0.481-0.074c-0.104-0.034-0.213-0.05-0.322-0.049
	c-6.593-1.007-11.701-1.787-11.701-1.787c-0.058-0.01-0.117-0.015-0.176-0.015c-0.547,0-0.999,0.45-0.999,0.999
	c0,0.499,0.376,0.927,0.872,0.991c0,0,5.046,0.771,11.02,1.683v10.579c-0.036,0.198-0.011,0.402,0.07,0.585
	c0.037,0.091,0.086,0.176,0.147,0.252c1.49,2.269,1.524,4.016,0.696,5.261c-0.837,1.26-2.825,2.226-5.977,2.226
	c-6.187,0-14.024-3.908-17.235-8.42l1.428-20.887c1.316-0.583,2.482-1.437,3.429-2.497c1.292,0.429,2.717,0.502,4.124,0.125
	c0.445-0.109,0.76-0.511,0.76-0.97c0-0.548-0.45-0.999-0.999-0.999c-0.094,0-0.188,0.013-0.278,0.04
	c-2.793,0.747-5.643-0.898-6.391-3.689c-0.748-2.792,0.898-5.642,3.69-6.39c0.87-0.234,1.74-0.232,2.557-0.037
	c0.083,0.021,0.168,0.032,0.254,0.032c0.548,0,0.999-0.45,0.999-0.999c0-0.181-0.049-0.359-0.143-0.514
	c0.607-1.292,0.96-2.729,0.96-4.247c0-0.545-0.192-1.034-0.277-1.556c0.844,0.232,1.717,0.388,2.63,0.388
	c3.41,0,6.371-1.757,8.187-4.37c1.744,1.313,3.83,2.206,6.174,2.206C215.501,384.493,217.788,383.463,219.609,381.919
	L219.609,381.919L219.609,381.919z M231.197,382.459c14.281,3.304,26.955,10.82,36.646,21.169h-27.714
	c-1.543,0-3.023,0.614-4.114,1.706c-1.091,1.091-1.705,2.573-1.705,4.116v3.731c-1.43,0.746-2.425,2.228-2.425,3.944v12.319
	l-2.013,3.441c-3.202-3.009-7.44-4.728-11.889-4.728h-3.211h-4.65v-9.505c3.19,0.349,6.397-0.564,8.913-2.58
	c2.65-2.122,4.29-5.259,4.521-8.647c0.692-10.124,1.522-22.251,1.596-23.331c0.176,0.01,0.351,0.025,0.528,0.025
	C227.717,384.119,229.612,383.506,231.197,382.459L231.197,382.459L231.197,382.459z M173.099,393.73
	c0.393,0.217,0.796,0.415,1.216,0.585c-0.691,1.36-1.165,2.854-1.165,4.48c0,5.535,4.513,10.048,10.048,10.048
	c0.689,0,1.358-0.084,2.01-0.217l-1.334,19.531h-5.815c-11.054-0.001-20.169,8.71-20.673,19.751l-2.147,47.078
	c-8.288-11.809-13.17-26.18-13.17-41.695C142.068,428.659,154.343,406.885,173.099,393.73L173.099,393.73z M516.457,397.025
	c-0.547,0.008-0.993,0.464-0.985,1.013v7.354c0,0.005,0,0.01,0,0.014c0,0.548,0.45,0.999,0.999,0.999
	c0.548,0,0.999-0.45,0.999-0.999c0-0.004,0-0.009,0-0.014v-7.354c0-0.005,0-0.009,0-0.014c0-0.547-0.45-0.999-0.999-0.999
	C516.466,397.025,516.462,397.025,516.457,397.025z M503.855,402.25c-0.001,0-0.001,0-0.002,0c-0.547,0-0.999,0.45-0.999,0.999
	c0,0.271,0.11,0.529,0.305,0.717l5.201,5.199c0.188,0.197,0.448,0.308,0.72,0.308c0.548,0,0.999-0.451,0.999-0.999
	c0-0.272-0.111-0.532-0.307-0.721l-5.201-5.199C504.384,402.36,504.125,402.25,503.855,402.25L503.855,402.25z M529.057,402.252
	c-0.259,0.007-0.505,0.116-0.686,0.302l-5.201,5.199c-0.196,0.189-0.307,0.449-0.307,0.721c0,0.547,0.45,0.999,0.999,0.999
	c0.272,0,0.531-0.111,0.72-0.307l5.201-5.2c0.194-0.188,0.303-0.446,0.303-0.716c0-0.547-0.45-0.999-0.999-0.999
	C529.076,402.251,529.066,402.251,529.057,402.252L529.057,402.252z M240.129,405.627h27.675c-0.295,0.537-0.477,1.144-0.477,1.796
	v21.189c0,0.652,0.184,1.257,0.477,1.795h-10.629c1.283-2.389,2.925-5.445,3.86-7.184h1.82c0.571,0,1.116-0.244,1.504-0.654
	c0.391-0.41,0.597-0.951,0.597-1.509v-6.234c0-0.559-0.208-1.101-0.595-1.51c-0.001-0.001-0.001-0.002-0.002-0.002
	c-0.389-0.409-0.932-0.652-1.504-0.652h-6.928c-2.203-1.184-4.523-2.43-6.363-3.419c-0.619-0.333-1.278-0.528-1.941-0.595
	c-1.987-0.202-4.005,0.747-5.07,2.567l-0.847,1.447h-5.358c-0.014,0-0.027,0.004-0.041,0.004v-3.214c0-1.014,0.403-1.988,1.12-2.704
	C238.144,406.029,239.115,405.627,240.129,405.627L240.129,405.627L240.129,405.627z M271.12,405.627h3.999
	c1.004,0,1.795,0.793,1.795,1.796v4.072c-1.019-0.889-2.344-1.432-3.794-1.432c-1.45,0-2.777,0.543-3.795,1.432v-4.072
	C269.324,406.42,270.117,405.627,271.12,405.627z M444.421,407.485c0.515,0.008,1.032,0.028,1.549,0.058
	c2.366,0.141,4.753,0.521,7.132,1.158c19.03,5.087,30.336,24.642,25.248,43.673c-5.087,19.03-24.644,30.336-43.674,25.249
	c-19.03-5.088-30.335-24.644-25.248-43.674C413.741,417.818,428.449,407.237,444.421,407.485L444.421,407.485z M278.912,409.428
	h16.447c0.261,0,0.512,0.105,0.696,0.289c0.185,0.185,0.287,0.433,0.287,0.695v10.887c0,0.261-0.102,0.51-0.287,0.694
	c-0.184,0.185-0.435,0.289-0.696,0.289h-16.447v-5.428h7.567c0.005,0,0.01,0,0.015,0c0.547,0,0.999-0.451,0.999-0.999
	c0-0.548-0.451-0.999-0.999-0.999c-0.005,0-0.01,0-0.015,0h-7.567V409.428L278.912,409.428z M246.799,410.622
	c0.608-0.052,1.239,0.067,1.82,0.379c0.894,0.48,2.041,1.097,3.09,1.661h-7.688l0.257-0.439
	C244.833,411.274,245.785,410.71,246.799,410.622z M367.965,410.737c-0.343,0.015-0.687,0.047-1.034,0.097
	c-5.544,0.81-9.406,5.991-8.597,11.535c0.809,5.545,5.99,9.407,11.535,8.598c5.544-0.809,9.404-5.991,8.595-11.535
	C377.707,414.233,373.106,410.515,367.965,410.737L367.965,410.737L367.965,410.737z M273.12,412.06c2.077,0,3.736,1.64,3.784,3.704
	c-0.005,0.06-0.005,0.121,0,0.182c-0.049,2.062-1.708,3.705-3.784,3.705c-2.107,0-3.795-1.689-3.795-3.796
	S271.012,412.06,273.12,412.06L273.12,412.06z M368.055,412.733c4.145-0.183,7.821,2.792,8.434,6.988
	c0.652,4.475-2.433,8.617-6.908,9.27c-4.476,0.653-8.618-2.434-9.271-6.91c-0.653-4.475,2.435-8.615,6.91-9.268
	C367.5,412.772,367.78,412.745,368.055,412.733L368.055,412.733L368.055,412.733z M236.348,414.659c1.372,0,2.468,1.096,2.468,2.467
	v3.672c0,1.327,1.098,2.425,2.424,2.425h17.528c-1.935,3.601-4.552,8.473-7.569,14.088l-17.317-8.226v-11.958
	C233.882,415.754,234.976,414.659,236.348,414.659L236.348,414.659z M239.963,414.659h22.892c0.011,0,0.03,0.003,0.055,0.029
	c0.025,0.028,0.049,0.077,0.049,0.137v6.234c0,0.058-0.026,0.11-0.049,0.134c-0.001,0.001-0.002,0.002-0.002,0.002
	c-0.025,0.027-0.042,0.03-0.053,0.03H241.24c-0.247,0-0.426-0.179-0.426-0.427v-3.672
	C240.814,416.195,240.456,415.376,239.963,414.659L239.963,414.659L239.963,414.659z M290.934,414.855c-0.004,0-0.009,0-0.014,0
	c-0.547,0-0.999,0.45-0.999,0.999c0,0.547,0.451,0.999,0.999,0.999c0.005,0,0.01,0,0.014,0h0.464c0.005,0,0.01,0,0.014,0
	c0.548,0,0.999-0.451,0.999-0.999c0-0.548-0.45-0.999-0.999-0.999c-0.004,0-0.009,0-0.014,0H290.934z M498.644,414.866
	c-0.004,0-0.009,0-0.014,0c-0.548,0-0.999,0.451-0.999,0.999c0,0.548,0.45,1,0.999,1c0.005,0,0.01,0,0.014-0.001h7.353
	c0.004,0.001,0.009,0.001,0.014,0.001c0.547,0,0.999-0.451,0.999-1c0-0.547-0.451-0.999-0.999-0.999c-0.005,0-0.01,0-0.014,0
	H498.644z M526.944,414.866c-0.004,0-0.009,0-0.014,0c-0.548,0-0.999,0.451-0.999,0.999c0,0.548,0.45,1,0.999,1
	c0.005,0,0.01,0,0.014-0.001h7.353c0.004,0.001,0.009,0.001,0.014,0.001c0.547,0,0.999-0.451,0.999-1
	c0-0.547-0.451-0.999-0.999-0.999c-0.005,0-0.01,0-0.014,0H526.944z M269.324,420.216c1.019,0.889,2.345,1.432,3.795,1.432
	c1.45,0,2.776-0.543,3.794-1.432v8.396c0,1.004-0.792,1.794-1.797,1.795h-3.997c-1.004-0.001-1.796-0.791-1.796-1.795
	L269.324,420.216L269.324,420.216z M523.866,422.26c0,0-0.001,0-0.002,0c-0.547,0-0.999,0.45-0.999,0.999
	c0,0.271,0.11,0.529,0.305,0.718l5.201,5.199c0.188,0.196,0.448,0.307,0.72,0.307c0.548,0,0.999-0.45,0.999-0.999
	c0-0.272-0.111-0.532-0.307-0.72l-5.201-5.199C524.394,422.37,524.135,422.26,523.866,422.26z M509.046,422.262
	c-0.259,0.008-0.505,0.116-0.686,0.303l-5.201,5.199c-0.197,0.188-0.308,0.448-0.308,0.72c0,0.548,0.451,0.999,0.999,0.999
	c0.273,0,0.532-0.111,0.721-0.307l5.201-5.199c0.193-0.189,0.303-0.446,0.303-0.717c0-0.547-0.451-0.999-0.999-0.999
	C509.066,422.262,509.056,422.262,509.046,422.262L509.046,422.262z M278.912,424.279h2.528c1.256,2.878,2.338,5.846,3.217,8.901
	l0.057-0.015l0.649,6.617l-29.46,24.38l-4.724-5.723c0,0-2.454-2.971-5.491-6.651c3.091-5.754,3.925-7.306,6.822-12.696
	c1.45-2.699,2.326-4.331,3.593-6.689h14.881v-0.014c0.047,0.002,0.091,0.014,0.138,0.014h3.999c2.082-0.001,3.792-1.709,3.792-3.792
	V424.279L278.912,424.279z M431.629,424.356c-0.207,0.007-0.412,0.023-0.617,0.05c-0.817,0.109-1.612,0.376-2.338,0.796
	c-1.455,0.841-2.516,2.224-2.95,3.847c-1.319,4.935-3.3,12.341-4.619,17.276c-0.433,1.623-0.204,3.353,0.636,4.806
	c0.841,1.455,2.226,2.516,3.849,2.949c7.474,1.998,21.24,5.679,28.713,7.677c1.623,0.433,3.352,0.204,4.806-0.636
	c1.453-0.84,2.516-2.225,2.949-3.848c1.319-4.935,3.298-12.34,4.617-17.276c0.434-1.622,0.205-3.351-0.635-4.805
	c0,0,0-0.001,0-0.002c-0.841-1.453-2.225-2.514-3.847-2.947c-7.474-1.998-21.241-5.679-28.715-7.677
	C432.869,424.404,432.247,424.334,431.629,424.356L431.629,424.356L431.629,424.356z M516.457,425.325
	c-0.547,0.008-0.993,0.464-0.985,1.013v7.354c0,0.005,0,0.01,0,0.014c0,0.548,0.45,0.999,0.999,0.999
	c0.548,0,0.999-0.45,0.999-0.999c0-0.004,0-0.009,0-0.014v-7.354c0-0.005,0-0.009,0-0.014c0-0.547-0.45-0.999-0.999-0.999
	C516.466,425.325,516.462,425.325,516.457,425.325z M432.12,426.356c0.283,0.018,0.564,0.065,0.843,0.139
	c7.473,1.998,21.238,5.679,28.713,7.677c0.569,0.152,1.093,0.419,1.548,0.776c-1.823,0.674-13.471,4.98-18.056,6.676
	c-0.58,0.215-1.224,0.044-1.619-0.431c-3.127-3.757-11.073-13.301-12.317-14.796c0.014-0.002,0.027-0.008,0.041-0.01
	C431.553,426.35,431.837,426.339,432.12,426.356L432.12,426.356L432.12,426.356z M429.3,427.197
	c0.77,0.926,9.486,11.394,12.715,15.272c0.933,1.121,2.48,1.533,3.847,1.027v0.002c4.733-1.751,17.512-6.475,18.639-6.893
	c0.402,0.903,0.503,1.914,0.246,2.875c-1.319,4.936-3.3,12.341-4.619,17.276c-0.298,1.112-1.024,2.057-2.02,2.634
	c-0.997,0.575-2.179,0.732-3.291,0.434c-7.473-1.998-21.239-5.676-28.713-7.674c-1.112-0.298-2.057-1.023-2.633-2.02
	c-0.576-0.995-0.733-2.179-0.435-3.291c1.319-4.935,3.298-12.341,4.617-17.276C427.91,428.603,428.502,427.78,429.3,427.197
	L429.3,427.197L429.3,427.197z M301.045,428.397c0.811-0.01,1.626,0.285,2.267,0.886v-0.002c2.12,1.991,4.993,4.689,7.335,6.887
	c1.887,1.771,1.979,4.706,0.209,6.593l-9.294,9.902l-14.196-12.929l-0.739-7.518c0-0.001,0-0.002,0-0.002
	c-0.135-1.366,0.846-2.562,2.212-2.697c1.365-0.134,2.564,0.85,2.698,2.214l0.224,2.292c0.05,0.509,0.483,0.902,0.995,0.902
	c0.263,0,0.515-0.104,0.703-0.29l5.342-5.292C299.427,428.725,300.234,428.408,301.045,428.397L301.045,428.397L301.045,428.397z
	 M178.058,430.155h6.242c3.789,5.224,11.841,9.12,18.76,9.12c3.558,0,6.284-1.076,7.641-3.117c1.099-1.653,1.104-3.8,0.106-6.003
	h7.176c4.093,0,7.98,1.644,10.849,4.507l-15.839,27.065l-5.881-5.024c0,0-11.208-9.571-21.766-18.584
	c-2.891-2.47-6.633-3.588-10.311-3.201c-1.226,0.129-2.444,0.424-3.623,0.893c-4.711,1.874-8.003,6.204-8.546,11.246
	c0,0.001,0,0.001,0,0.002c-0.51,4.73,1.484,9.387,5.261,12.28c0.001,0,0.002,0,0.002,0c8.291,6.352,22.8,17.471,22.8,17.471
	l17.606,13.49c0.562,0.443,1.171,0.847,1.825,1.198c4.807,2.584,10.585,1.629,14.34-1.949v26.238h-47.064
	c-7.943-4.733-14.904-10.936-20.516-18.234L159.38,448C159.835,438.005,168.052,430.154,178.058,430.155L178.058,430.155
	L178.058,430.155z M233.282,431.012l16.969,8.06c-10.736,19.98-24.962,46.455-24.962,46.455c-2.703,5.03-8.954,6.912-13.983,4.209
	c-0.001,0-0.002,0-0.002,0c-0.549-0.294-1.059-0.631-1.531-1.004c-0.004-0.004-0.008-0.007-0.012-0.01l-17.616-13.5
	c0,0-14.511-11.118-22.802-17.471c-3.225-2.472-4.926-6.44-4.491-10.479c0-0.002,0-0.003,0-0.004v-0.002
	c0.464-4.309,3.271-7.999,7.298-9.6c4.026-1.601,8.604-0.843,11.9,1.971c10.556,9.013,21.765,18.584,21.765,18.584l6.789,5.796
	c0.181,0.155,0.411,0.241,0.649,0.241c0.355,0,0.683-0.189,0.862-0.494L233.282,431.012L233.282,431.012z M373.587,433.614
	c-1.088-0.028-2.192,0.035-3.304,0.197c-8.898,1.298-15.511,8.475-16.519,17.018c0,0.002,0,0.004,0,0.006
	c-0.163,1.453,0.358,2.901,1.408,3.917c1.051,1.016,2.516,1.487,3.962,1.276c6.997-1.021,21.169-3.087,28.173-4.167l0.008-0.002
	c1.424-0.211,2.675-1.069,3.382-2.323c0-0.001,0-0.002,0-0.002c0.707-1.258,0.792-2.776,0.229-4.105v-0.002
	C387.993,438.492,381.2,433.807,373.587,433.614L373.587,433.614z M92.305,434.451c-0.541,0.008-0.983,0.456-0.983,0.999
	c0,0.005,0,0.01,0,0.016v7.352c0,0.005,0,0.009,0,0.014c0,0.548,0.45,0.999,0.999,0.999s0.999-0.45,0.999-0.999
	c0-0.005,0-0.009,0-0.014v-7.352c0-0.006,0-0.011,0-0.016c0-0.548-0.45-0.999-0.999-0.999
	C92.316,434.451,92.31,434.451,92.305,434.451z M373.54,435.609c6.838,0.174,12.917,4.383,15.546,10.598
	c0,0.001,0.001,0.002,0.002,0.002c0.323,0.76,0.273,1.624-0.133,2.345h0.002c-0.406,0.72-1.122,1.212-1.939,1.33
	c-0.003,0-0.006,0-0.008,0c-6.98,1.076-21.167,3.146-28.166,4.167c-0.835,0.122-1.677-0.149-2.284-0.735
	c-0.605-0.586-0.905-1.416-0.813-2.253v-0.002c0.905-7.664,6.827-14.106,14.824-15.272
	C371.572,435.643,372.564,435.584,373.54,435.609L373.54,435.609L373.54,435.609z M79.703,439.676
	c-0.547,0.002-0.997,0.452-0.997,0.999c0,0.27,0.109,0.528,0.303,0.716l5.199,5.201c0.188,0.197,0.448,0.308,0.72,0.308
	c0.548,0,0.999-0.451,0.999-0.999c0-0.273-0.111-0.532-0.307-0.721l-5.199-5.201C80.232,439.785,79.974,439.676,79.703,439.676
	L79.703,439.676z M104.904,439.676c-0.259,0.008-0.505,0.117-0.686,0.303l-5.199,5.201c-0.196,0.189-0.308,0.448-0.308,0.721
	c0,0.547,0.451,0.999,0.999,0.999c0.273,0,0.532-0.111,0.721-0.308l5.199-5.201c0.194-0.188,0.303-0.446,0.303-0.716
	c0-0.548-0.45-0.999-0.999-0.999C104.924,439.676,104.914,439.676,104.904,439.676L104.904,439.676z M286.38,441.536l13.768,12.541
	c-0.896,0.848-20.321,19.217-34.175,32.317c-6.768,6.4-17.386,6.204-23.914-0.441c-4.924-5.012-9.06-9.221-9.521-9.691
	c2.599-4.837,6.687-12.445,12.127-22.57c2.589,3.135,4.973,6.02,4.973,6.02l5.364,6.494c0.19,0.229,0.471,0.362,0.769,0.362
	c0.233,0,0.458-0.081,0.637-0.229L286.38,441.536z M74.494,452.292c-0.004,0-0.009,0-0.014,0c-0.548,0-0.999,0.451-0.999,0.999
	c0,0.548,0.45,0.999,0.999,0.999c0.005,0,0.01,0,0.014,0h7.353c0.004,0,0.009,0,0.014,0c0.547,0,0.999-0.45,0.999-0.999
	c0-0.547-0.451-0.999-0.999-0.999c-0.005,0-0.01,0-0.014,0H74.494z M102.792,452.292c-0.004,0-0.009,0-0.014,0
	c-0.548,0-0.999,0.451-0.999,0.999c0,0.548,0.45,0.999,0.999,0.999c0.005,0,0.01,0,0.014,0h7.355c0.004,0,0.009,0,0.014,0
	c0.547,0,0.999-0.45,0.999-0.999c0-0.547-0.451-0.999-0.999-0.999c-0.005,0-0.01,0-0.014,0H102.792z M84.894,459.687
	c-0.259,0.008-0.505,0.117-0.686,0.303l-5.199,5.201c-0.197,0.189-0.308,0.448-0.308,0.721c0,0.547,0.451,0.999,0.999,0.999
	c0.273,0,0.532-0.111,0.721-0.308l5.199-5.201c0.194-0.188,0.303-0.446,0.303-0.716c0-0.548-0.451-0.999-0.999-0.999
	C84.914,459.687,84.904,459.687,84.894,459.687L84.894,459.687z M99.714,459.687c-0.547,0.002-0.997,0.452-0.997,1
	c0,0.269,0.11,0.527,0.303,0.715l5.199,5.201c0.189,0.197,0.448,0.308,0.72,0.308c0.548,0,1-0.451,1-0.999
	c0-0.273-0.112-0.532-0.308-0.721l-5.199-5.201C100.243,459.796,99.984,459.687,99.714,459.687L99.714,459.687z M92.305,462.75
	c-0.541,0.008-0.983,0.456-0.983,0.999c0,0.005,0,0.01,0,0.015v7.353c0,0.005,0,0.009,0,0.014c0,0.548,0.45,0.999,0.999,0.999
	s0.999-0.45,0.999-0.999c0-0.005,0-0.009,0-0.014v-7.353c0-0.005,0-0.01,0-0.015c0-0.548-0.45-0.999-0.999-0.999
	C92.316,462.75,92.31,462.75,92.305,462.75z M285.342,470.828c-6.792,27.379-29.116,48.646-57.072,53.902l-1.572-8.038v-29.64
	c0.118-0.193,0.243-0.379,0.351-0.579c0,0,3.685-6.858,4.497-8.369c0.795,0.808,4.39,4.466,9.089,9.249
	c7.275,7.405,19.169,7.625,26.711,0.491C274.641,480.946,278.278,477.507,285.342,470.828L285.342,470.828z M367.609,478.04
	c9.602,0,17.366,7.764,17.366,17.366c0,9.603-7.764,17.366-17.366,17.366c-9.603,0-17.366-7.763-17.366-17.366
	C350.243,485.803,358.005,478.04,367.609,478.04L367.609,478.04z M181.229,517.782h43.647l1.423,7.284
	c-3.755,0.6-7.602,0.929-11.527,0.929C202.672,525.995,191.269,523.018,181.229,517.782z"></path>
</svg>